<svg width="141" height="65" viewBox="0 0 141 65" fill="none" xmlns="http://www.w3.org/2000/svg">
<path d="M22.6758 32.9648H15.3457C13.0254 32.9648 10.916 32.4023 9.01758 31.2598C7.10156 30.1172 5.57227 28.6055 4.44727 26.6895C3.30469 24.7734 2.74219 22.6641 2.74219 20.3613V19.6934C2.74219 17.373 3.30469 15.2812 4.44727 13.3652C5.57227 11.4492 7.10156 9.9375 9.01758 8.79492C10.916 7.65234 13.0254 7.08984 15.3457 7.08984H35.2793L29.4785 12.8906H15.3457C14.0977 12.8906 12.9551 13.207 11.9355 13.8223C10.8984 14.4375 10.0723 15.2637 9.45703 16.2832C8.8418 17.3203 8.54297 18.4453 8.54297 19.6934V20.3613C8.54297 21.6094 8.8418 22.7344 9.45703 23.7715C10.0723 24.791 10.8984 25.6172 11.9355 26.2324C12.9551 26.8477 14.0977 27.1641 15.3457 27.1641H22.6758C24.0996 27.1641 25.3652 26.7598 26.4902 25.9688C27.6152 25.1777 28.459 24.1582 28.9863 22.8926H13.9395L19.1777 17.0215H35.2793V20.168C35.2793 22.6113 34.7168 24.7734 33.5742 26.6895C32.4316 28.6055 30.9023 30.1172 29.0039 31.2598C27.0879 32.4023 24.9785 32.9648 22.6758 32.9648ZM70.3828 32.9121H64.582V22.8398H43.6465V32.9121H37.8457V19.6406C37.8457 17.3203 38.4082 15.2285 39.5508 13.3125C40.6934 11.3965 42.2051 9.88477 44.1211 8.74219C46.0195 7.59961 48.1289 7.03711 50.4492 7.03711H57.7793C60.0996 7.03711 62.209 7.59961 64.1074 8.74219C66.0234 9.88477 67.5527 11.3965 68.6777 13.3125C69.8203 15.2285 70.3828 17.3203 70.3828 19.6406V32.9121ZM64.0195 16.9688C63.4746 15.7383 62.6484 14.7363 61.541 13.9805C60.4336 13.2246 59.168 12.8379 57.7793 12.8379H50.4492C49.0605 12.8379 47.8125 13.2246 46.6875 13.9805C45.5801 14.7363 44.7539 15.7383 44.209 16.9688H64.0195ZM105.504 32.8945H99.6855V19.623C99.6855 18.375 99.3867 17.25 98.7715 16.2129C98.1562 15.1934 97.3301 14.3672 96.293 13.752C95.2734 13.1367 94.1309 12.8203 92.9004 12.8203H92.1797V22.8223H86.2559V12.8203H78.7676V32.8945H72.9492V7.01953H92.9004C95.2031 7.01953 97.3125 7.58203 99.2285 8.72461C101.127 9.86719 102.656 11.3789 103.781 13.2949C104.924 15.2109 105.504 17.3027 105.504 19.623V32.8945ZM140.924 33.0703H120.99C118.67 33.0703 116.561 32.5078 114.662 31.3652C112.746 30.2227 111.234 28.7109 110.092 26.7949C108.949 24.8789 108.387 22.7695 108.387 20.4668V19.7988C108.387 17.4785 108.949 15.3867 110.092 13.4707C111.234 11.5547 112.746 10.043 114.662 8.90039C116.561 7.75781 118.67 7.19531 120.99 7.19531H128.32C130.641 7.19531 132.75 7.75781 134.648 8.90039C136.564 10.043 138.076 11.5547 139.219 13.4707C140.361 15.3867 140.924 17.4785 140.924 19.7988V23.0156H114.697C115.225 24.2812 116.051 25.3008 117.176 26.0918C118.301 26.8652 119.566 27.2695 120.99 27.2695H135.123L140.924 33.0703ZM134.525 17.0918C133.98 15.8262 133.102 14.8418 131.924 14.1035C130.746 13.3652 129.551 12.9961 128.32 12.9961H120.99C119.602 12.9961 118.354 13.3828 117.246 14.1387C116.139 14.8945 115.312 15.8789 114.768 17.0918H134.525Z" fill="#835AE0"/>
<path d="M14.8242 58.9531H1.75781L5.625 55.0742V55.0859H15.0469C15.9844 55.0859 16.8281 54.8164 17.5781 54.3008C18.3281 53.7852 18.8789 53.1055 19.2305 52.2617H1.96875C1.82812 51.6406 1.75781 50.9961 1.75781 50.3281C1.76953 48.7344 2.16797 47.2812 2.92969 45.9805C3.70312 44.6914 4.73438 43.6602 6.03516 42.8867C7.32422 42.1133 8.77734 41.7266 10.3711 41.7031H23.4492L19.5703 45.582V45.5703H10.1484C9.22266 45.5703 8.37891 45.8281 7.64062 46.3438C6.89062 46.8594 6.33984 47.5273 5.97656 48.3477H23.2734C23.3555 48.6992 23.4141 49.0625 23.4492 49.4375L23.4141 49.6016C23.4375 49.8359 23.4492 50.082 23.4492 50.3281C23.4258 51.9336 23.0391 53.375 22.2656 54.6758C21.4922 55.9648 20.4609 56.9961 19.1719 57.7695C17.8711 58.543 16.4297 58.9297 14.8242 58.9531ZM41.6133 41.7031C42.5859 41.7031 43.4648 41.9492 44.2734 42.418C45.0703 42.8984 45.7148 43.543 46.1836 44.3398C46.6641 45.1367 46.8984 46.0273 46.8984 47C46.8984 47.9609 46.6641 48.8516 46.1836 49.6484C45.7148 50.457 45.0703 51.0898 44.2734 51.5703C43.4648 52.0508 42.5859 52.2852 41.6133 52.2852H33.0586H29.1445V58.9766H25.1953V45.6172V41.7266V41.7031C25.1953 41.7031 25.2305 41.7031 25.2773 41.7031H41.6133ZM41.6133 48.3594C41.9883 48.3594 42.3047 48.2305 42.5742 47.9609C42.8438 47.6914 42.9727 47.3633 42.9727 47C42.9727 46.625 42.8438 46.3086 42.5742 46.0391C42.3047 45.7695 41.9883 45.6289 41.6133 45.6289H29.1328V48.3594V52.2852L33.0586 48.3594H41.6133ZM70.4297 58.9531H66.4805V49.0859L63.3984 52.25H52.6055V58.9531H48.6562V41.7031H52.6055V48.3008H66.4805V41.7031H70.4297V58.9531ZM93.9961 59.0469H80.707C79.1602 59.0469 77.7539 58.6719 76.4883 57.9102C75.2109 57.1484 74.2031 56.1406 73.4414 54.8633C72.6797 53.5859 72.3047 52.1797 72.3047 50.6445V50.1992C72.3047 48.6523 72.6797 47.2578 73.4414 45.9805C74.2031 44.7031 75.2109 43.6953 76.4883 42.9336C77.7539 42.1719 79.1602 41.7969 80.707 41.7969H85.5938C87.1406 41.7969 88.5469 42.1719 89.8125 42.9336C91.0898 43.6953 92.0977 44.7031 92.8594 45.9805C93.6211 47.2578 93.9961 48.6523 93.9961 50.1992V52.3438H76.5117C76.8633 53.1875 77.4141 53.8672 78.1641 54.3945C78.9141 54.9102 79.7578 55.1797 80.707 55.1797H90.1289L93.9961 59.0469ZM89.7305 48.3945C89.3672 47.5508 88.7812 46.8945 87.9961 46.4023C87.2109 45.9102 86.4141 45.6641 85.5938 45.6641H80.707C79.7812 45.6641 78.9492 45.9219 78.2109 46.4258C77.4727 46.9297 76.9219 47.5859 76.5586 48.3945H89.7305ZM110.754 52.2266V52.2383H109.828L115.641 58.918H110.238L101.238 48.3008C103.23 48.3008 105.211 48.3008 107.191 48.3008H110.016H110.754H112.066C112.441 48.3008 112.758 48.1719 113.027 47.9023C113.297 47.6328 113.438 47.3047 113.438 46.9414C113.438 46.5664 113.297 46.25 113.027 45.9805C112.758 45.7109 112.441 45.5703 112.066 45.5703H99.5859V48.3008V52.2266L99.6094 52.2031V52.2266H99.5977V58.918H95.6484V45.5586V41.668V41.6445C95.6484 41.6445 95.6836 41.6445 95.7305 41.6445H112.066C113.039 41.6445 113.918 41.8906 114.727 42.3594C115.523 42.8398 116.168 43.4844 116.637 44.2812C117.117 45.0781 117.352 45.9688 117.352 46.9414C117.352 47.9023 117.117 48.793 116.637 49.5898C116.168 50.3984 115.523 51.0312 114.727 51.5117C113.918 51.9922 113.039 52.2266 112.066 52.2266H110.754ZM140.918 59.0469H127.629C126.082 59.0469 124.676 58.6719 123.41 57.9102C122.133 57.1484 121.125 56.1406 120.363 54.8633C119.602 53.5859 119.227 52.1797 119.227 50.6445V50.1992C119.227 48.6523 119.602 47.2578 120.363 45.9805C121.125 44.7031 122.133 43.6953 123.41 42.9336C124.676 42.1719 126.082 41.7969 127.629 41.7969H132.516C134.062 41.7969 135.469 42.1719 136.734 42.9336C138.012 43.6953 139.02 44.7031 139.781 45.9805C140.543 47.2578 140.918 48.6523 140.918 50.1992V52.3438H123.434C123.785 53.1875 124.336 53.8672 125.086 54.3945C125.836 54.9102 126.68 55.1797 127.629 55.1797H137.051L140.918 59.0469ZM136.652 48.3945C136.289 47.5508 135.703 46.8945 134.918 46.4023C134.133 45.9102 133.336 45.6641 132.516 45.6641H127.629C126.703 45.6641 125.871 45.9219 125.133 46.4258C124.395 46.9297 123.844 47.5859 123.48 48.3945H136.652Z" fill="#F2F4F7"/>
</svg>
