<svg width="85" height="23" viewBox="0 0 85 23" fill="none" xmlns="http://www.w3.org/2000/svg">
<g clip-path="url(#clip0_269_5121)">
<path fill-rule="evenodd" clip-rule="evenodd" d="M80.1696 0.688545C77.8828 1.10315 76.1351 2.65794 74.2594 4.54959L74.799 1.15462H68.1953L67.63 3.74629C66.3452 1.51776 64.6236 0.610806 61.9513 0.144371C59.9475 -0.0892069 57.8918 -0.0370208 55.9129 0.325402C50.2343 1.33601 45.1466 4.70471 42.9372 10.0428C42.449 11.2348 42.1406 12.3491 42.0375 13.3859V15.4331C42.1157 16.0854 42.2831 16.7237 42.535 17.3298C40.8694 17.8959 39.0504 18.1539 37.053 18.1539C35.5883 18.1539 34.3293 17.8948 33.2501 17.3506C32.1709 16.8065 31.4 16.0294 30.9118 15.0188C30.4493 14.0079 30.3465 12.8421 30.6034 11.5206C30.8604 10.2767 31.4257 9.13656 32.2993 8.10004C33.173 7.03761 34.3036 6.20839 35.6654 5.61239C37.0533 5.01639 38.5693 4.70507 40.1878 4.70507C41.8837 4.70507 43.2969 4.88646 44.4018 5.24924L45.5581 1.36264C43.6628 0.981937 41.7349 0.790981 39.8024 0.792557C36.6418 0.792557 33.8667 1.31082 31.5028 2.32143C29.1385 3.33204 27.2884 4.62733 25.9522 6.23394C24.8823 7.47561 24.1347 8.76622 23.6996 10.1166C23.7913 9.58212 23.8756 9.04803 23.948 8.51429C24.0765 7.99639 24.1536 7.50368 24.1793 7.03725V5.89707C23.8195 1.51776 19.0659 0.0407183 11.5115 0.81811C9.43017 1.02541 7.16898 1.41411 4.72793 1.95829C4.41959 3.15029 4.44528 4.80872 4.16264 6.00072C6.96342 5.14559 9.43017 4.65324 11.5115 4.47185C16.6505 4.08316 19.2715 5.74159 18.1666 9.11029C14.4151 9.39533 13.0789 9.23986 11.5115 9.23986C11.2545 9.23986 10.9719 9.23986 10.6892 9.26577C8.91626 9.31759 6.39813 9.68038 4.77932 10.1986C2.20979 11.0279 0.0513906 13.7746 0 16.5473V16.8324C0 17.2729 0.0770859 17.7134 0.205919 18.1539C0.822606 20.227 2.59522 21.9376 7.14329 21.7559C8.83918 21.6781 10.2524 21.6267 11.5115 21.5748C15.0317 21.4708 17.3186 21.4708 21.4299 21.6004C21.8389 18.5884 22.6011 15.5641 23.2296 12.5445C23.145 13.8311 23.3327 15.1002 23.7938 16.34C24.4105 17.9985 25.6439 19.3719 27.494 20.4602C29.344 21.5486 31.8625 22.0668 35.0484 22.0668C37.4637 22.0668 39.7763 21.8077 42.0118 21.2894L42.5468 17.36C44.364 21.6713 50.2553 23.4136 55.8105 22.0927C55.8355 22.0668 55.8872 22.0668 55.9129 22.0668C58.662 21.3153 60.6152 20.2007 62.3625 17.9466V16.8842C60.4867 18.3875 58.5853 19.8646 55.9129 20.3828C55.8612 20.3828 55.7848 20.3828 55.7331 20.4087C49.8235 21.8595 44.89 16.6769 47.9731 11.2092C50.6197 11.1056 53.292 11.2352 55.9129 11.1574C56.1185 11.1574 56.2984 11.1574 56.5039 11.1319C60.127 10.6913 63.9809 10.6654 66.3195 7.60769L62.6448 21.6522H69.9683L72.46 11.7793C74.1309 8.411 75.3129 4.52404 84.0746 6.10437C84.2027 4.26491 84.8712 2.63238 84.9996 0.766284L80.1696 0.688545ZM11.5115 18.439C10.9719 18.4908 10.3809 18.4649 9.73851 18.439C7.99123 18.1799 6.16687 18.439 5.93561 15.8995C6.44952 14.3962 7.0662 12.9195 11.5115 12.4275C11.7941 12.4016 12.1025 12.3753 12.4365 12.3494C13.9782 12.2717 15.52 12.168 17.0617 12.0644C16.9846 15.459 15.8283 18.1799 11.5115 18.439ZM63.4156 5.74159C62.4656 7.78872 59.2537 8.90299 55.9129 9.44716C52.8299 9.96542 49.618 9.99133 48.0505 9.88768C50.1836 6.33759 52.4705 3.46124 55.9129 2.16559C56.2077 2.05519 56.5079 1.96005 56.8123 1.88055C59.1505 1.07724 65.4712 1.31046 63.4156 5.74159Z" fill="#598376"/>
</g>
<defs>
<clipPath id="clip0_269_5121">
<rect width="85" height="22.5273" fill="white"/>
</clipPath>
</defs>
</svg>
