<svg width="301" height="550" viewBox="0 0 301 550" fill="none" xmlns="http://www.w3.org/2000/svg">
<path d="M166.508 -101.72L167.006 -100.854L166.508 -101.72L90.5076 -58.0204C88.9563 -57.1284 88 -55.4754 88 -53.6859V33.6867C88 35.4757 88.9557 37.1283 90.5063 38.0205L166.449 81.7196C167.991 82.6074 169.89 82.608 171.433 81.7212L247.491 38.0204C249.043 37.1286 250 35.4751 250 33.685V-53.6859C250 -55.4754 249.044 -57.1284 247.492 -58.0204L171.492 -101.72C169.949 -102.608 168.051 -102.608 166.508 -101.72Z" stroke="#854EFF" stroke-width="2"/>
<path d="M171.184 81.2877L247.242 37.5868C248.639 36.7842 249.5 35.2961 249.5 33.685V-53.6859C249.5 -55.2964 248.639 -56.7842 247.243 -57.587L171.243 -101.287C169.854 -102.086 168.146 -102.086 166.757 -101.287L90.7569 -57.587C89.3607 -56.7842 88.5 -55.2964 88.5 -53.6859V33.6867C88.5 35.2968 89.3602 36.7841 90.7556 37.5871L166.698 81.2863C168.086 82.0853 169.795 82.0858 171.184 81.2877Z" stroke="#D9C8FF"/>
<g filter="url(#filter0_f_789_5888)">
<path d="M166.508 -101.72L167.006 -100.854L166.508 -101.72L90.5076 -58.0204C88.9563 -57.1284 88 -55.4754 88 -53.6859V33.6867C88 35.4757 88.9557 37.1283 90.5063 38.0205L166.449 81.7196C167.991 82.6074 169.89 82.608 171.433 81.7212L247.491 38.0204C249.043 37.1286 250 35.4751 250 33.685V-53.6859C250 -55.4754 249.044 -57.1284 247.492 -58.0204L171.492 -101.72C169.949 -102.608 168.051 -102.608 166.508 -101.72Z" stroke="#854EFF" stroke-width="2"/>
</g>
<g filter="url(#filter1_f_789_5888)">
<path d="M166.508 -101.72L167.006 -100.854L166.508 -101.72L90.5076 -58.0204C88.9563 -57.1284 88 -55.4754 88 -53.6859V33.6867C88 35.4757 88.9557 37.1283 90.5063 38.0205L166.449 81.7196C167.991 82.6074 169.89 82.608 171.433 81.7212L247.491 38.0204C249.043 37.1286 250 35.4751 250 33.685V-53.6859C250 -55.4754 249.044 -57.1284 247.492 -58.0204L171.492 -101.72C169.949 -102.608 168.051 -102.608 166.508 -101.72Z" stroke="#854EFF" stroke-width="2"/>
</g>
<g filter="url(#filter2_f_789_5888)">
<path d="M166.508 -101.72L167.006 -100.854L166.508 -101.72L90.5076 -58.0204C88.9563 -57.1284 88 -55.4754 88 -53.6859V33.6867C88 35.4757 88.9557 37.1283 90.5063 38.0205L166.449 81.7196C167.991 82.6074 169.89 82.608 171.433 81.7212L247.491 38.0204C249.043 37.1286 250 35.4751 250 33.685V-53.6859C250 -55.4754 249.044 -57.1284 247.492 -58.0204L171.492 -101.72C169.949 -102.608 168.051 -102.608 166.508 -101.72Z" stroke="#854EFF" stroke-width="2"/>
</g>
<g filter="url(#filter3_f_789_5888)">
<path d="M166.508 -101.72L167.006 -100.854L166.508 -101.72L90.5076 -58.0204C88.9563 -57.1284 88 -55.4754 88 -53.6859V33.6867C88 35.4757 88.9557 37.1283 90.5063 38.0205L166.449 81.7196C167.991 82.6074 169.89 82.608 171.433 81.7212L247.491 38.0204C249.043 37.1286 250 35.4751 250 33.685V-53.6859C250 -55.4754 249.044 -57.1284 247.492 -58.0204L171.492 -101.72C169.949 -102.608 168.051 -102.608 166.508 -101.72Z" stroke="#854EFF" stroke-width="2"/>
</g>
<path d="M82.5076 43.2796L83.0061 44.1465L82.5076 43.2796L6.50764 86.9796C4.95633 87.8716 4 89.5246 4 91.3141V178.687C4 180.476 4.95573 182.128 6.50626 183.02L82.4485 226.72C83.9914 227.607 85.8898 227.608 87.4332 226.721L163.491 183.02C165.043 182.129 166 180.475 166 178.685V91.3141C166 89.5246 165.044 87.8716 163.492 86.9796L87.4924 43.2796C85.9492 42.3923 84.0508 42.3923 82.5076 43.2796Z" stroke="#854EFF" stroke-width="2"/>
<path d="M87.1841 226.288L163.242 182.587C164.639 181.784 165.5 180.296 165.5 178.685V91.3141C165.5 89.7036 164.639 88.2158 163.243 87.413L87.2431 43.713C85.8543 42.9145 84.1457 42.9145 82.7569 43.713L6.75688 87.413C5.3607 88.2158 4.5 89.7036 4.5 91.3141V178.687C4.5 180.297 5.36015 181.784 6.75563 182.587L82.6979 226.286C84.0865 227.085 85.7951 227.086 87.1841 226.288Z" stroke="#D9C8FF"/>
<g filter="url(#filter4_f_789_5888)">
<path d="M82.5076 43.2796L83.0061 44.1465L82.5076 43.2796L6.50764 86.9796C4.95633 87.8716 4 89.5246 4 91.3141V178.687C4 180.476 4.95573 182.128 6.50626 183.02L82.4485 226.72C83.9914 227.607 85.8898 227.608 87.4332 226.721L163.491 183.02C165.043 182.129 166 180.475 166 178.685V91.3141C166 89.5246 165.044 87.8716 163.492 86.9796L87.4924 43.2796C85.9492 42.3923 84.0508 42.3923 82.5076 43.2796Z" stroke="#854EFF" stroke-width="2"/>
</g>
<g filter="url(#filter5_f_789_5888)">
<path d="M82.5076 43.2796L83.0061 44.1465L82.5076 43.2796L6.50764 86.9796C4.95633 87.8716 4 89.5246 4 91.3141V178.687C4 180.476 4.95573 182.128 6.50626 183.02L82.4485 226.72C83.9914 227.607 85.8898 227.608 87.4332 226.721L163.491 183.02C165.043 182.129 166 180.475 166 178.685V91.3141C166 89.5246 165.044 87.8716 163.492 86.9796L87.4924 43.2796C85.9492 42.3923 84.0508 42.3923 82.5076 43.2796Z" stroke="#854EFF" stroke-width="2"/>
</g>
<g filter="url(#filter6_f_789_5888)">
<path d="M82.5076 43.2796L83.0061 44.1465L82.5076 43.2796L6.50764 86.9796C4.95633 87.8716 4 89.5246 4 91.3141V178.687C4 180.476 4.95573 182.128 6.50626 183.02L82.4485 226.72C83.9914 227.607 85.8898 227.608 87.4332 226.721L163.491 183.02C165.043 182.129 166 180.475 166 178.685V91.3141C166 89.5246 165.044 87.8716 163.492 86.9796L87.4924 43.2796C85.9492 42.3923 84.0508 42.3923 82.5076 43.2796Z" stroke="#854EFF" stroke-width="2"/>
</g>
<g filter="url(#filter7_f_789_5888)">
<path d="M82.5076 43.2796L83.0061 44.1465L82.5076 43.2796L6.50764 86.9796C4.95633 87.8716 4 89.5246 4 91.3141V178.687C4 180.476 4.95573 182.128 6.50626 183.02L82.4485 226.72C83.9914 227.607 85.8898 227.608 87.4332 226.721L163.491 183.02C165.043 182.129 166 180.475 166 178.685V91.3141C166 89.5246 165.044 87.8716 163.492 86.9796L87.4924 43.2796C85.9492 42.3923 84.0508 42.3923 82.5076 43.2796Z" stroke="#854EFF" stroke-width="2"/>
</g>
<path d="M-2.49236 187.28L-1.99389 188.146L-2.49236 187.28L-78.4924 230.98C-80.0437 231.872 -81 233.525 -81 235.314V322.687C-81 324.476 -80.0443 326.128 -78.4937 327.02L-2.55147 370.72C-1.00863 371.607 0.889839 371.608 2.43324 370.721L78.491 327.02C80.0431 326.129 81 324.475 81 322.685V235.314C81 233.525 80.0437 231.872 78.4924 230.98L2.49236 187.28C0.949242 186.392 -0.949242 186.392 -2.49236 187.28Z" stroke="#854EFF" stroke-width="2"/>
<path d="M2.18414 370.288L78.2419 326.587C79.6388 325.784 80.5 324.296 80.5 322.685V235.314C80.5 233.704 79.6393 232.216 78.2431 231.413L2.24312 187.713C0.854317 186.914 -0.854317 186.914 -2.24313 187.713L-78.2431 231.413C-79.6393 232.216 -80.5 233.704 -80.5 235.314V322.687C-80.5 324.297 -79.6398 325.784 -78.2444 326.587L-2.30209 370.286C-0.913544 371.085 0.79509 371.086 2.18414 370.288Z" stroke="#D9C8FF"/>
<g filter="url(#filter8_f_789_5888)">
<path d="M-2.49236 187.28L-1.99389 188.146L-2.49236 187.28L-78.4924 230.98C-80.0437 231.872 -81 233.525 -81 235.314V322.687C-81 324.476 -80.0443 326.128 -78.4937 327.02L-2.55147 370.72C-1.00863 371.607 0.889839 371.608 2.43324 370.721L78.491 327.02C80.0431 326.129 81 324.475 81 322.685V235.314C81 233.525 80.0437 231.872 78.4924 230.98L2.49236 187.28C0.949242 186.392 -0.949242 186.392 -2.49236 187.28Z" stroke="#854EFF" stroke-width="2"/>
</g>
<g filter="url(#filter9_f_789_5888)">
<path d="M-2.49236 187.28L-1.99389 188.146L-2.49236 187.28L-78.4924 230.98C-80.0437 231.872 -81 233.525 -81 235.314V322.687C-81 324.476 -80.0443 326.128 -78.4937 327.02L-2.55147 370.72C-1.00863 371.607 0.889839 371.608 2.43324 370.721L78.491 327.02C80.0431 326.129 81 324.475 81 322.685V235.314C81 233.525 80.0437 231.872 78.4924 230.98L2.49236 187.28C0.949242 186.392 -0.949242 186.392 -2.49236 187.28Z" stroke="#854EFF" stroke-width="2"/>
</g>
<g filter="url(#filter10_f_789_5888)">
<path d="M-2.49236 187.28L-1.99389 188.146L-2.49236 187.28L-78.4924 230.98C-80.0437 231.872 -81 233.525 -81 235.314V322.687C-81 324.476 -80.0443 326.128 -78.4937 327.02L-2.55147 370.72C-1.00863 371.607 0.889839 371.608 2.43324 370.721L78.491 327.02C80.0431 326.129 81 324.475 81 322.685V235.314C81 233.525 80.0437 231.872 78.4924 230.98L2.49236 187.28C0.949242 186.392 -0.949242 186.392 -2.49236 187.28Z" stroke="#854EFF" stroke-width="2"/>
</g>
<g filter="url(#filter11_f_789_5888)">
<path d="M-2.49236 187.28L-1.99389 188.146L-2.49236 187.28L-78.4924 230.98C-80.0437 231.872 -81 233.525 -81 235.314V322.687C-81 324.476 -80.0443 326.128 -78.4937 327.02L-2.55147 370.72C-1.00863 371.607 0.889839 371.608 2.43324 370.721L78.491 327.02C80.0431 326.129 81 324.475 81 322.685V235.314C81 233.525 80.0437 231.872 78.4924 230.98L2.49236 187.28C0.949242 186.392 -0.949242 186.392 -2.49236 187.28Z" stroke="#854EFF" stroke-width="2"/>
</g>
<path d="M82.5076 332.28L83.0061 333.146L82.5076 332.28L6.50764 375.98C4.95633 376.872 4 378.525 4 380.314V467.687C4 469.476 4.95573 471.128 6.50626 472.02L82.4485 515.72C83.9914 516.607 85.8898 516.608 87.4332 515.721L163.491 472.02C165.043 471.129 166 469.475 166 467.685V380.314C166 378.525 165.044 376.872 163.492 375.98L87.4924 332.28C85.9492 331.392 84.0508 331.392 82.5076 332.28Z" stroke="#854EFF" stroke-width="2"/>
<path d="M87.1841 515.288L163.242 471.587C164.639 470.784 165.5 469.296 165.5 467.685V380.314C165.5 378.704 164.639 377.216 163.243 376.413L87.2431 332.713C85.8543 331.914 84.1457 331.914 82.7569 332.713L6.75688 376.413C5.3607 377.216 4.5 378.704 4.5 380.314V467.687C4.5 469.297 5.36015 470.784 6.75563 471.587L82.6979 515.286C84.0865 516.085 85.7951 516.086 87.1841 515.288Z" stroke="#D9C8FF"/>
<g filter="url(#filter12_f_789_5888)">
<path d="M82.5076 332.28L83.0061 333.146L82.5076 332.28L6.50764 375.98C4.95633 376.872 4 378.525 4 380.314V467.687C4 469.476 4.95573 471.128 6.50626 472.02L82.4485 515.72C83.9914 516.607 85.8898 516.608 87.4332 515.721L163.491 472.02C165.043 471.129 166 469.475 166 467.685V380.314C166 378.525 165.044 376.872 163.492 375.98L87.4924 332.28C85.9492 331.392 84.0508 331.392 82.5076 332.28Z" stroke="#854EFF" stroke-width="2"/>
</g>
<g filter="url(#filter13_f_789_5888)">
<path d="M82.5076 332.28L83.0061 333.146L82.5076 332.28L6.50764 375.98C4.95633 376.872 4 378.525 4 380.314V467.687C4 469.476 4.95573 471.128 6.50626 472.02L82.4485 515.72C83.9914 516.607 85.8898 516.608 87.4332 515.721L163.491 472.02C165.043 471.129 166 469.475 166 467.685V380.314C166 378.525 165.044 376.872 163.492 375.98L87.4924 332.28C85.9492 331.392 84.0508 331.392 82.5076 332.28Z" stroke="#854EFF" stroke-width="2"/>
</g>
<g filter="url(#filter14_f_789_5888)">
<path d="M82.5076 332.28L83.0061 333.146L82.5076 332.28L6.50764 375.98C4.95633 376.872 4 378.525 4 380.314V467.687C4 469.476 4.95573 471.128 6.50626 472.02L82.4485 515.72C83.9914 516.607 85.8898 516.608 87.4332 515.721L163.491 472.02C165.043 471.129 166 469.475 166 467.685V380.314C166 378.525 165.044 376.872 163.492 375.98L87.4924 332.28C85.9492 331.392 84.0508 331.392 82.5076 332.28Z" stroke="#854EFF" stroke-width="2"/>
</g>
<g filter="url(#filter15_f_789_5888)">
<path d="M82.5076 332.28L83.0061 333.146L82.5076 332.28L6.50764 375.98C4.95633 376.872 4 378.525 4 380.314V467.687C4 469.476 4.95573 471.128 6.50626 472.02L82.4485 515.72C83.9914 516.607 85.8898 516.608 87.4332 515.721L163.491 472.02C165.043 471.129 166 469.475 166 467.685V380.314C166 378.525 165.044 376.872 163.492 375.98L87.4924 332.28C85.9492 331.392 84.0508 331.392 82.5076 332.28Z" stroke="#854EFF" stroke-width="2"/>
</g>
<path d="M-2.49236 476.28L-1.99389 477.146L-2.49236 476.28L-78.4924 519.98C-80.0437 520.872 -81 522.525 -81 524.314V611.687C-81 613.476 -80.0443 615.128 -78.4937 616.02L-2.55147 659.72C-1.00863 660.607 0.889839 660.608 2.43324 659.721L78.491 616.02C80.0431 615.129 81 613.475 81 611.685V524.314C81 522.525 80.0437 520.872 78.4924 519.98L2.49236 476.28C0.949242 475.392 -0.949242 475.392 -2.49236 476.28Z" stroke="#854EFF" stroke-width="2"/>
<path d="M2.18414 659.288L78.2419 615.587C79.6388 614.784 80.5 613.296 80.5 611.685V524.314C80.5 522.704 79.6393 521.216 78.2431 520.413L2.24312 476.713C0.854317 475.914 -0.854317 475.914 -2.24313 476.713L-78.2431 520.413C-79.6393 521.216 -80.5 522.704 -80.5 524.314V611.687C-80.5 613.297 -79.6398 614.784 -78.2444 615.587L-2.30209 659.286C-0.913544 660.085 0.79509 660.086 2.18414 659.288Z" stroke="#D9C8FF"/>
<g filter="url(#filter16_f_789_5888)">
<path d="M-2.49236 476.28L-1.99389 477.146L-2.49236 476.28L-78.4924 519.98C-80.0437 520.872 -81 522.525 -81 524.314V611.687C-81 613.476 -80.0443 615.128 -78.4937 616.02L-2.55147 659.72C-1.00863 660.607 0.889839 660.608 2.43324 659.721L78.491 616.02C80.0431 615.129 81 613.475 81 611.685V524.314C81 522.525 80.0437 520.872 78.4924 519.98L2.49236 476.28C0.949242 475.392 -0.949242 475.392 -2.49236 476.28Z" stroke="#854EFF" stroke-width="2"/>
</g>
<g filter="url(#filter17_f_789_5888)">
<path d="M-2.49236 476.28L-1.99389 477.146L-2.49236 476.28L-78.4924 519.98C-80.0437 520.872 -81 522.525 -81 524.314V611.687C-81 613.476 -80.0443 615.128 -78.4937 616.02L-2.55147 659.72C-1.00863 660.607 0.889839 660.608 2.43324 659.721L78.491 616.02C80.0431 615.129 81 613.475 81 611.685V524.314C81 522.525 80.0437 520.872 78.4924 519.98L2.49236 476.28C0.949242 475.392 -0.949242 475.392 -2.49236 476.28Z" stroke="#854EFF" stroke-width="2"/>
</g>
<g filter="url(#filter18_f_789_5888)">
<path d="M-2.49236 476.28L-1.99389 477.146L-2.49236 476.28L-78.4924 519.98C-80.0437 520.872 -81 522.525 -81 524.314V611.687C-81 613.476 -80.0443 615.128 -78.4937 616.02L-2.55147 659.72C-1.00863 660.607 0.889839 660.608 2.43324 659.721L78.491 616.02C80.0431 615.129 81 613.475 81 611.685V524.314C81 522.525 80.0437 520.872 78.4924 519.98L2.49236 476.28C0.949242 475.392 -0.949242 475.392 -2.49236 476.28Z" stroke="#854EFF" stroke-width="2"/>
</g>
<g filter="url(#filter19_f_789_5888)">
<path d="M-2.49236 476.28L-1.99389 477.146L-2.49236 476.28L-78.4924 519.98C-80.0437 520.872 -81 522.525 -81 524.314V611.687C-81 613.476 -80.0443 615.128 -78.4937 616.02L-2.55147 659.72C-1.00863 660.607 0.889839 660.608 2.43324 659.721L78.491 616.02C80.0431 615.129 81 613.475 81 611.685V524.314C81 522.525 80.0437 520.872 78.4924 519.98L2.49236 476.28C0.949242 475.392 -0.949242 475.392 -2.49236 476.28Z" stroke="#854EFF" stroke-width="2"/>
</g>
<path d="M-1.49236 -101.72L-0.993889 -100.854L-1.49236 -101.72L-77.4924 -58.0204C-79.0437 -57.1284 -80 -55.4754 -80 -53.6859V33.6867C-80 35.4757 -79.0443 37.1283 -77.4937 38.0205L-1.55147 81.7196C-0.00862885 82.6074 1.88984 82.608 3.43324 81.7212L79.491 38.0204C81.0431 37.1286 82 35.4751 82 33.685V-53.6859C82 -55.4754 81.0437 -57.1284 79.4924 -58.0204L3.49236 -101.72C1.94924 -102.608 0.0507584 -102.608 -1.49236 -101.72Z" stroke="#854EFF" stroke-width="2"/>
<path d="M3.18414 81.2877L79.2419 37.5868C80.6388 36.7842 81.5 35.2961 81.5 33.685V-53.6859C81.5 -55.2964 80.6393 -56.7842 79.2431 -57.587L3.24312 -101.287C1.85432 -102.086 0.145683 -102.086 -1.24313 -101.287L-77.2431 -57.587C-78.6393 -56.7842 -79.5 -55.2964 -79.5 -53.6859V33.6867C-79.5 35.2968 -78.6398 36.7841 -77.2444 37.5871L-1.30209 81.2863C0.0864563 82.0853 1.79509 82.0858 3.18414 81.2877Z" stroke="#D9C8FF"/>
<g filter="url(#filter20_f_789_5888)">
<path d="M-1.49236 -101.72L-0.993889 -100.854L-1.49236 -101.72L-77.4924 -58.0204C-79.0437 -57.1284 -80 -55.4754 -80 -53.6859V33.6867C-80 35.4757 -79.0443 37.1283 -77.4937 38.0205L-1.55147 81.7196C-0.00862885 82.6074 1.88984 82.608 3.43324 81.7212L79.491 38.0204C81.0431 37.1286 82 35.4751 82 33.685V-53.6859C82 -55.4754 81.0437 -57.1284 79.4924 -58.0204L3.49236 -101.72C1.94924 -102.608 0.0507584 -102.608 -1.49236 -101.72Z" stroke="#854EFF" stroke-width="2"/>
</g>
<g filter="url(#filter21_f_789_5888)">
<path d="M-1.49236 -101.72L-0.993889 -100.854L-1.49236 -101.72L-77.4924 -58.0204C-79.0437 -57.1284 -80 -55.4754 -80 -53.6859V33.6867C-80 35.4757 -79.0443 37.1283 -77.4937 38.0205L-1.55147 81.7196C-0.00862885 82.6074 1.88984 82.608 3.43324 81.7212L79.491 38.0204C81.0431 37.1286 82 35.4751 82 33.685V-53.6859C82 -55.4754 81.0437 -57.1284 79.4924 -58.0204L3.49236 -101.72C1.94924 -102.608 0.0507584 -102.608 -1.49236 -101.72Z" stroke="#854EFF" stroke-width="2"/>
</g>
<g filter="url(#filter22_f_789_5888)">
<path d="M-1.49236 -101.72L-0.993889 -100.854L-1.49236 -101.72L-77.4924 -58.0204C-79.0437 -57.1284 -80 -55.4754 -80 -53.6859V33.6867C-80 35.4757 -79.0443 37.1283 -77.4937 38.0205L-1.55147 81.7196C-0.00862885 82.6074 1.88984 82.608 3.43324 81.7212L79.491 38.0204C81.0431 37.1286 82 35.4751 82 33.685V-53.6859C82 -55.4754 81.0437 -57.1284 79.4924 -58.0204L3.49236 -101.72C1.94924 -102.608 0.0507584 -102.608 -1.49236 -101.72Z" stroke="#854EFF" stroke-width="2"/>
</g>
<g filter="url(#filter23_f_789_5888)">
<path d="M-1.49236 -101.72L-0.993889 -100.854L-1.49236 -101.72L-77.4924 -58.0204C-79.0437 -57.1284 -80 -55.4754 -80 -53.6859V33.6867C-80 35.4757 -79.0443 37.1283 -77.4937 38.0205L-1.55147 81.7196C-0.00862885 82.6074 1.88984 82.608 3.43324 81.7212L79.491 38.0204C81.0431 37.1286 82 35.4751 82 33.685V-53.6859C82 -55.4754 81.0437 -57.1284 79.4924 -58.0204L3.49236 -101.72C1.94924 -102.608 0.0507584 -102.608 -1.49236 -101.72Z" stroke="#854EFF" stroke-width="2"/>
</g>
<defs>
<filter id="filter0_f_789_5888" x="37" y="-153.386" width="264" height="286.772" filterUnits="userSpaceOnUse" color-interpolation-filters="sRGB">
<feFlood flood-opacity="0" result="BackgroundImageFix"/>
<feBlend mode="normal" in="SourceGraphic" in2="BackgroundImageFix" result="shape"/>
<feGaussianBlur stdDeviation="25" result="effect1_foregroundBlur_789_5888"/>
</filter>
<filter id="filter1_f_789_5888" x="67" y="-123.386" width="204" height="226.772" filterUnits="userSpaceOnUse" color-interpolation-filters="sRGB">
<feFlood flood-opacity="0" result="BackgroundImageFix"/>
<feBlend mode="normal" in="SourceGraphic" in2="BackgroundImageFix" result="shape"/>
<feGaussianBlur stdDeviation="10" result="effect1_foregroundBlur_789_5888"/>
</filter>
<filter id="filter2_f_789_5888" x="72" y="-118.386" width="194" height="216.772" filterUnits="userSpaceOnUse" color-interpolation-filters="sRGB">
<feFlood flood-opacity="0" result="BackgroundImageFix"/>
<feBlend mode="normal" in="SourceGraphic" in2="BackgroundImageFix" result="shape"/>
<feGaussianBlur stdDeviation="7.5" result="effect1_foregroundBlur_789_5888"/>
</filter>
<filter id="filter3_f_789_5888" x="77" y="-113.386" width="184" height="206.772" filterUnits="userSpaceOnUse" color-interpolation-filters="sRGB">
<feFlood flood-opacity="0" result="BackgroundImageFix"/>
<feBlend mode="normal" in="SourceGraphic" in2="BackgroundImageFix" result="shape"/>
<feGaussianBlur stdDeviation="5" result="effect1_foregroundBlur_789_5888"/>
</filter>
<filter id="filter4_f_789_5888" x="-47" y="-8.38586" width="264" height="286.772" filterUnits="userSpaceOnUse" color-interpolation-filters="sRGB">
<feFlood flood-opacity="0" result="BackgroundImageFix"/>
<feBlend mode="normal" in="SourceGraphic" in2="BackgroundImageFix" result="shape"/>
<feGaussianBlur stdDeviation="25" result="effect1_foregroundBlur_789_5888"/>
</filter>
<filter id="filter5_f_789_5888" x="-17" y="21.6141" width="204" height="226.772" filterUnits="userSpaceOnUse" color-interpolation-filters="sRGB">
<feFlood flood-opacity="0" result="BackgroundImageFix"/>
<feBlend mode="normal" in="SourceGraphic" in2="BackgroundImageFix" result="shape"/>
<feGaussianBlur stdDeviation="10" result="effect1_foregroundBlur_789_5888"/>
</filter>
<filter id="filter6_f_789_5888" x="-12" y="26.6141" width="194" height="216.772" filterUnits="userSpaceOnUse" color-interpolation-filters="sRGB">
<feFlood flood-opacity="0" result="BackgroundImageFix"/>
<feBlend mode="normal" in="SourceGraphic" in2="BackgroundImageFix" result="shape"/>
<feGaussianBlur stdDeviation="7.5" result="effect1_foregroundBlur_789_5888"/>
</filter>
<filter id="filter7_f_789_5888" x="-7" y="31.6141" width="184" height="206.772" filterUnits="userSpaceOnUse" color-interpolation-filters="sRGB">
<feFlood flood-opacity="0" result="BackgroundImageFix"/>
<feBlend mode="normal" in="SourceGraphic" in2="BackgroundImageFix" result="shape"/>
<feGaussianBlur stdDeviation="5" result="effect1_foregroundBlur_789_5888"/>
</filter>
<filter id="filter8_f_789_5888" x="-132" y="135.614" width="264" height="286.772" filterUnits="userSpaceOnUse" color-interpolation-filters="sRGB">
<feFlood flood-opacity="0" result="BackgroundImageFix"/>
<feBlend mode="normal" in="SourceGraphic" in2="BackgroundImageFix" result="shape"/>
<feGaussianBlur stdDeviation="25" result="effect1_foregroundBlur_789_5888"/>
</filter>
<filter id="filter9_f_789_5888" x="-102" y="165.614" width="204" height="226.772" filterUnits="userSpaceOnUse" color-interpolation-filters="sRGB">
<feFlood flood-opacity="0" result="BackgroundImageFix"/>
<feBlend mode="normal" in="SourceGraphic" in2="BackgroundImageFix" result="shape"/>
<feGaussianBlur stdDeviation="10" result="effect1_foregroundBlur_789_5888"/>
</filter>
<filter id="filter10_f_789_5888" x="-97" y="170.614" width="194" height="216.772" filterUnits="userSpaceOnUse" color-interpolation-filters="sRGB">
<feFlood flood-opacity="0" result="BackgroundImageFix"/>
<feBlend mode="normal" in="SourceGraphic" in2="BackgroundImageFix" result="shape"/>
<feGaussianBlur stdDeviation="7.5" result="effect1_foregroundBlur_789_5888"/>
</filter>
<filter id="filter11_f_789_5888" x="-92" y="175.614" width="184" height="206.772" filterUnits="userSpaceOnUse" color-interpolation-filters="sRGB">
<feFlood flood-opacity="0" result="BackgroundImageFix"/>
<feBlend mode="normal" in="SourceGraphic" in2="BackgroundImageFix" result="shape"/>
<feGaussianBlur stdDeviation="5" result="effect1_foregroundBlur_789_5888"/>
</filter>
<filter id="filter12_f_789_5888" x="-47" y="280.614" width="264" height="286.772" filterUnits="userSpaceOnUse" color-interpolation-filters="sRGB">
<feFlood flood-opacity="0" result="BackgroundImageFix"/>
<feBlend mode="normal" in="SourceGraphic" in2="BackgroundImageFix" result="shape"/>
<feGaussianBlur stdDeviation="25" result="effect1_foregroundBlur_789_5888"/>
</filter>
<filter id="filter13_f_789_5888" x="-17" y="310.614" width="204" height="226.772" filterUnits="userSpaceOnUse" color-interpolation-filters="sRGB">
<feFlood flood-opacity="0" result="BackgroundImageFix"/>
<feBlend mode="normal" in="SourceGraphic" in2="BackgroundImageFix" result="shape"/>
<feGaussianBlur stdDeviation="10" result="effect1_foregroundBlur_789_5888"/>
</filter>
<filter id="filter14_f_789_5888" x="-12" y="315.614" width="194" height="216.772" filterUnits="userSpaceOnUse" color-interpolation-filters="sRGB">
<feFlood flood-opacity="0" result="BackgroundImageFix"/>
<feBlend mode="normal" in="SourceGraphic" in2="BackgroundImageFix" result="shape"/>
<feGaussianBlur stdDeviation="7.5" result="effect1_foregroundBlur_789_5888"/>
</filter>
<filter id="filter15_f_789_5888" x="-7" y="320.614" width="184" height="206.772" filterUnits="userSpaceOnUse" color-interpolation-filters="sRGB">
<feFlood flood-opacity="0" result="BackgroundImageFix"/>
<feBlend mode="normal" in="SourceGraphic" in2="BackgroundImageFix" result="shape"/>
<feGaussianBlur stdDeviation="5" result="effect1_foregroundBlur_789_5888"/>
</filter>
<filter id="filter16_f_789_5888" x="-132" y="424.614" width="264" height="286.772" filterUnits="userSpaceOnUse" color-interpolation-filters="sRGB">
<feFlood flood-opacity="0" result="BackgroundImageFix"/>
<feBlend mode="normal" in="SourceGraphic" in2="BackgroundImageFix" result="shape"/>
<feGaussianBlur stdDeviation="25" result="effect1_foregroundBlur_789_5888"/>
</filter>
<filter id="filter17_f_789_5888" x="-102" y="454.614" width="204" height="226.772" filterUnits="userSpaceOnUse" color-interpolation-filters="sRGB">
<feFlood flood-opacity="0" result="BackgroundImageFix"/>
<feBlend mode="normal" in="SourceGraphic" in2="BackgroundImageFix" result="shape"/>
<feGaussianBlur stdDeviation="10" result="effect1_foregroundBlur_789_5888"/>
</filter>
<filter id="filter18_f_789_5888" x="-97" y="459.614" width="194" height="216.772" filterUnits="userSpaceOnUse" color-interpolation-filters="sRGB">
<feFlood flood-opacity="0" result="BackgroundImageFix"/>
<feBlend mode="normal" in="SourceGraphic" in2="BackgroundImageFix" result="shape"/>
<feGaussianBlur stdDeviation="7.5" result="effect1_foregroundBlur_789_5888"/>
</filter>
<filter id="filter19_f_789_5888" x="-92" y="464.614" width="184" height="206.772" filterUnits="userSpaceOnUse" color-interpolation-filters="sRGB">
<feFlood flood-opacity="0" result="BackgroundImageFix"/>
<feBlend mode="normal" in="SourceGraphic" in2="BackgroundImageFix" result="shape"/>
<feGaussianBlur stdDeviation="5" result="effect1_foregroundBlur_789_5888"/>
</filter>
<filter id="filter20_f_789_5888" x="-131" y="-153.386" width="264" height="286.772" filterUnits="userSpaceOnUse" color-interpolation-filters="sRGB">
<feFlood flood-opacity="0" result="BackgroundImageFix"/>
<feBlend mode="normal" in="SourceGraphic" in2="BackgroundImageFix" result="shape"/>
<feGaussianBlur stdDeviation="25" result="effect1_foregroundBlur_789_5888"/>
</filter>
<filter id="filter21_f_789_5888" x="-101" y="-123.386" width="204" height="226.772" filterUnits="userSpaceOnUse" color-interpolation-filters="sRGB">
<feFlood flood-opacity="0" result="BackgroundImageFix"/>
<feBlend mode="normal" in="SourceGraphic" in2="BackgroundImageFix" result="shape"/>
<feGaussianBlur stdDeviation="10" result="effect1_foregroundBlur_789_5888"/>
</filter>
<filter id="filter22_f_789_5888" x="-96" y="-118.386" width="194" height="216.772" filterUnits="userSpaceOnUse" color-interpolation-filters="sRGB">
<feFlood flood-opacity="0" result="BackgroundImageFix"/>
<feBlend mode="normal" in="SourceGraphic" in2="BackgroundImageFix" result="shape"/>
<feGaussianBlur stdDeviation="7.5" result="effect1_foregroundBlur_789_5888"/>
</filter>
<filter id="filter23_f_789_5888" x="-91" y="-113.386" width="184" height="206.772" filterUnits="userSpaceOnUse" color-interpolation-filters="sRGB">
<feFlood flood-opacity="0" result="BackgroundImageFix"/>
<feBlend mode="normal" in="SourceGraphic" in2="BackgroundImageFix" result="shape"/>
<feGaussianBlur stdDeviation="5" result="effect1_foregroundBlur_789_5888"/>
</filter>
</defs>
</svg>
