<svg width="573" height="550" viewBox="0 0 573 550" fill="none" xmlns="http://www.w3.org/2000/svg">
<path d="M129.508 4.27958L130.006 5.14648L129.508 4.27958L53.5076 47.9796C51.9563 48.8716 51 50.5246 51 52.3141V139.687C51 141.476 51.9557 143.128 53.5063 144.02L129.449 187.72C130.991 188.607 132.89 188.608 134.433 187.721L210.491 144.02C212.043 143.129 213 141.475 213 139.685V52.3141C213 50.5246 212.044 48.8716 210.492 47.9796L134.492 4.27958C132.949 3.39229 131.051 3.39229 129.508 4.27958Z" stroke="#854EFF" stroke-width="2"/>
<path d="M134.184 187.288L210.242 143.587C211.639 142.784 212.5 141.296 212.5 139.685V52.3141C212.5 50.7036 211.639 49.2158 210.243 48.413L134.243 4.71303C132.854 3.91447 131.146 3.91447 129.757 4.71303L53.7569 48.413C52.3607 49.2158 51.5 50.7036 51.5 52.3141V139.687C51.5 141.297 52.3602 142.784 53.7556 143.587L129.698 187.286C131.086 188.085 132.795 188.086 134.184 187.288Z" stroke="#D9C8FF"/>
<g filter="url(#filter0_f_789_5869)">
<path d="M129.508 4.27958L130.006 5.14648L129.508 4.27958L53.5076 47.9796C51.9563 48.8716 51 50.5246 51 52.3141V139.687C51 141.476 51.9557 143.128 53.5063 144.02L129.449 187.72C130.991 188.607 132.89 188.608 134.433 187.721L210.491 144.02C212.043 143.129 213 141.475 213 139.685V52.3141C213 50.5246 212.044 48.8716 210.492 47.9796L134.492 4.27958C132.949 3.39229 131.051 3.39229 129.508 4.27958Z" stroke="#854EFF" stroke-width="2"/>
</g>
<g filter="url(#filter1_f_789_5869)">
<path d="M129.508 4.27958L130.006 5.14648L129.508 4.27958L53.5076 47.9796C51.9563 48.8716 51 50.5246 51 52.3141V139.687C51 141.476 51.9557 143.128 53.5063 144.02L129.449 187.72C130.991 188.607 132.89 188.608 134.433 187.721L210.491 144.02C212.043 143.129 213 141.475 213 139.685V52.3141C213 50.5246 212.044 48.8716 210.492 47.9796L134.492 4.27958C132.949 3.39229 131.051 3.39229 129.508 4.27958Z" stroke="#854EFF" stroke-width="2"/>
</g>
<g filter="url(#filter2_f_789_5869)">
<path d="M129.508 4.27958L130.006 5.14648L129.508 4.27958L53.5076 47.9796C51.9563 48.8716 51 50.5246 51 52.3141V139.687C51 141.476 51.9557 143.128 53.5063 144.02L129.449 187.72C130.991 188.607 132.89 188.608 134.433 187.721L210.491 144.02C212.043 143.129 213 141.475 213 139.685V52.3141C213 50.5246 212.044 48.8716 210.492 47.9796L134.492 4.27958C132.949 3.39229 131.051 3.39229 129.508 4.27958Z" stroke="#854EFF" stroke-width="2"/>
</g>
<g filter="url(#filter3_f_789_5869)">
<path d="M129.508 4.27958L130.006 5.14648L129.508 4.27958L53.5076 47.9796C51.9563 48.8716 51 50.5246 51 52.3141V139.687C51 141.476 51.9557 143.128 53.5063 144.02L129.449 187.72C130.991 188.607 132.89 188.608 134.433 187.721L210.491 144.02C212.043 143.129 213 141.475 213 139.685V52.3141C213 50.5246 212.044 48.8716 210.492 47.9796L134.492 4.27958C132.949 3.39229 131.051 3.39229 129.508 4.27958Z" stroke="#854EFF" stroke-width="2"/>
</g>
<path d="M550.508 -140.72L551.006 -139.854L550.508 -140.72L474.508 -97.0204C472.956 -96.1284 472 -94.4754 472 -92.6859V-5.31326C472 -3.52434 472.956 -1.87173 474.506 -0.979523L550.449 42.7196C551.991 43.6074 553.89 43.608 555.433 42.7212L631.491 -0.97963C633.043 -1.87143 634 -3.5249 634 -5.31496V-92.6859C634 -94.4754 633.044 -96.1284 631.492 -97.0204L555.492 -140.72C553.949 -141.608 552.051 -141.608 550.508 -140.72Z" stroke="#854EFF" stroke-width="2"/>
<path d="M555.184 42.2877L631.242 -1.41316C632.639 -2.21577 633.5 -3.70392 633.5 -5.31496V-92.6859C633.5 -94.2964 632.639 -95.7842 631.243 -96.587L555.243 -140.287C553.854 -141.086 552.146 -141.086 550.757 -140.287L474.757 -96.587C473.361 -95.7842 472.5 -94.2964 472.5 -92.6859V-5.31326C472.5 -3.70323 473.36 -2.2159 474.756 -1.41289L550.698 42.2863C552.086 43.0853 553.795 43.0858 555.184 42.2877Z" stroke="#D9C8FF"/>
<g filter="url(#filter4_f_789_5869)">
<path d="M550.508 -140.72L551.006 -139.854L550.508 -140.72L474.508 -97.0204C472.956 -96.1284 472 -94.4754 472 -92.6859V-5.31326C472 -3.52434 472.956 -1.87173 474.506 -0.979523L550.449 42.7196C551.991 43.6074 553.89 43.608 555.433 42.7212L631.491 -0.97963C633.043 -1.87143 634 -3.5249 634 -5.31496V-92.6859C634 -94.4754 633.044 -96.1284 631.492 -97.0204L555.492 -140.72C553.949 -141.608 552.051 -141.608 550.508 -140.72Z" stroke="#854EFF" stroke-width="2"/>
</g>
<g filter="url(#filter5_f_789_5869)">
<path d="M550.508 -140.72L551.006 -139.854L550.508 -140.72L474.508 -97.0204C472.956 -96.1284 472 -94.4754 472 -92.6859V-5.31326C472 -3.52434 472.956 -1.87173 474.506 -0.979523L550.449 42.7196C551.991 43.6074 553.89 43.608 555.433 42.7212L631.491 -0.97963C633.043 -1.87143 634 -3.5249 634 -5.31496V-92.6859C634 -94.4754 633.044 -96.1284 631.492 -97.0204L555.492 -140.72C553.949 -141.608 552.051 -141.608 550.508 -140.72Z" stroke="#854EFF" stroke-width="2"/>
</g>
<g filter="url(#filter6_f_789_5869)">
<path d="M550.508 -140.72L551.006 -139.854L550.508 -140.72L474.508 -97.0204C472.956 -96.1284 472 -94.4754 472 -92.6859V-5.31326C472 -3.52434 472.956 -1.87173 474.506 -0.979523L550.449 42.7196C551.991 43.6074 553.89 43.608 555.433 42.7212L631.491 -0.97963C633.043 -1.87143 634 -3.5249 634 -5.31496V-92.6859C634 -94.4754 633.044 -96.1284 631.492 -97.0204L555.492 -140.72C553.949 -141.608 552.051 -141.608 550.508 -140.72Z" stroke="#854EFF" stroke-width="2"/>
</g>
<g filter="url(#filter7_f_789_5869)">
<path d="M550.508 -140.72L551.006 -139.854L550.508 -140.72L474.508 -97.0204C472.956 -96.1284 472 -94.4754 472 -92.6859V-5.31326C472 -3.52434 472.956 -1.87173 474.506 -0.979523L550.449 42.7196C551.991 43.6074 553.89 43.608 555.433 42.7212L631.491 -0.97963C633.043 -1.87143 634 -3.5249 634 -5.31496V-92.6859C634 -94.4754 633.044 -96.1284 631.492 -97.0204L555.492 -140.72C553.949 -141.608 552.051 -141.608 550.508 -140.72Z" stroke="#854EFF" stroke-width="2"/>
</g>
<path d="M465.508 4.27958L466.006 5.14648L465.508 4.27958L389.508 47.9796C387.956 48.8716 387 50.5246 387 52.3141V139.687C387 141.476 387.956 143.128 389.506 144.02L465.449 187.72C466.991 188.607 468.89 188.608 470.433 187.721L546.491 144.02C548.043 143.129 549 141.475 549 139.685V52.3141C549 50.5246 548.044 48.8716 546.492 47.9796L470.492 4.27958C468.949 3.39229 467.051 3.39229 465.508 4.27958Z" stroke="#854EFF" stroke-width="2"/>
<path d="M470.184 187.288L546.242 143.587C547.639 142.784 548.5 141.296 548.5 139.685V52.3141C548.5 50.7036 547.639 49.2158 546.243 48.413L470.243 4.71303C468.854 3.91447 467.146 3.91447 465.757 4.71303L389.757 48.413C388.361 49.2158 387.5 50.7036 387.5 52.3141V139.687C387.5 141.297 388.36 142.784 389.756 143.587L465.698 187.286C467.086 188.085 468.795 188.086 470.184 187.288Z" stroke="#D9C8FF"/>
<g filter="url(#filter8_f_789_5869)">
<path d="M465.508 4.27958L466.006 5.14648L465.508 4.27958L389.508 47.9796C387.956 48.8716 387 50.5246 387 52.3141V139.687C387 141.476 387.956 143.128 389.506 144.02L465.449 187.72C466.991 188.607 468.89 188.608 470.433 187.721L546.491 144.02C548.043 143.129 549 141.475 549 139.685V52.3141C549 50.5246 548.044 48.8716 546.492 47.9796L470.492 4.27958C468.949 3.39229 467.051 3.39229 465.508 4.27958Z" stroke="#854EFF" stroke-width="2"/>
</g>
<g filter="url(#filter9_f_789_5869)">
<path d="M465.508 4.27958L466.006 5.14648L465.508 4.27958L389.508 47.9796C387.956 48.8716 387 50.5246 387 52.3141V139.687C387 141.476 387.956 143.128 389.506 144.02L465.449 187.72C466.991 188.607 468.89 188.608 470.433 187.721L546.491 144.02C548.043 143.129 549 141.475 549 139.685V52.3141C549 50.5246 548.044 48.8716 546.492 47.9796L470.492 4.27958C468.949 3.39229 467.051 3.39229 465.508 4.27958Z" stroke="#854EFF" stroke-width="2"/>
</g>
<g filter="url(#filter10_f_789_5869)">
<path d="M465.508 4.27958L466.006 5.14648L465.508 4.27958L389.508 47.9796C387.956 48.8716 387 50.5246 387 52.3141V139.687C387 141.476 387.956 143.128 389.506 144.02L465.449 187.72C466.991 188.607 468.89 188.608 470.433 187.721L546.491 144.02C548.043 143.129 549 141.475 549 139.685V52.3141C549 50.5246 548.044 48.8716 546.492 47.9796L470.492 4.27958C468.949 3.39229 467.051 3.39229 465.508 4.27958Z" stroke="#854EFF" stroke-width="2"/>
</g>
<g filter="url(#filter11_f_789_5869)">
<path d="M465.508 4.27958L466.006 5.14648L465.508 4.27958L389.508 47.9796C387.956 48.8716 387 50.5246 387 52.3141V139.687C387 141.476 387.956 143.128 389.506 144.02L465.449 187.72C466.991 188.607 468.89 188.608 470.433 187.721L546.491 144.02C548.043 143.129 549 141.475 549 139.685V52.3141C549 50.5246 548.044 48.8716 546.492 47.9796L470.492 4.27958C468.949 3.39229 467.051 3.39229 465.508 4.27958Z" stroke="#854EFF" stroke-width="2"/>
</g>
<path d="M549.508 150.28L550.006 151.146L549.508 150.28L473.508 193.98C471.956 194.872 471 196.525 471 198.314V285.687C471 287.476 471.956 289.128 473.506 290.02L549.449 333.72C550.991 334.607 552.89 334.608 554.433 333.721L630.491 290.02C632.043 289.129 633 287.475 633 285.685V198.314C633 196.525 632.044 194.872 630.492 193.98L554.492 150.28C552.949 149.392 551.051 149.392 549.508 150.28Z" stroke="#854EFF" stroke-width="2"/>
<path d="M554.184 333.288L630.242 289.587C631.639 288.784 632.5 287.296 632.5 285.685V198.314C632.5 196.704 631.639 195.216 630.243 194.413L554.243 150.713C552.854 149.914 551.146 149.914 549.757 150.713L473.757 194.413C472.361 195.216 471.5 196.704 471.5 198.314V285.687C471.5 287.297 472.36 288.784 473.756 289.587L549.698 333.286C551.086 334.085 552.795 334.086 554.184 333.288Z" stroke="#D9C8FF"/>
<g filter="url(#filter12_f_789_5869)">
<path d="M549.508 150.28L550.006 151.146L549.508 150.28L473.508 193.98C471.956 194.872 471 196.525 471 198.314V285.687C471 287.476 471.956 289.128 473.506 290.02L549.449 333.72C550.991 334.607 552.89 334.608 554.433 333.721L630.491 290.02C632.043 289.129 633 287.475 633 285.685V198.314C633 196.525 632.044 194.872 630.492 193.98L554.492 150.28C552.949 149.392 551.051 149.392 549.508 150.28Z" stroke="#854EFF" stroke-width="2"/>
</g>
<g filter="url(#filter13_f_789_5869)">
<path d="M549.508 150.28L550.006 151.146L549.508 150.28L473.508 193.98C471.956 194.872 471 196.525 471 198.314V285.687C471 287.476 471.956 289.128 473.506 290.02L549.449 333.72C550.991 334.607 552.89 334.608 554.433 333.721L630.491 290.02C632.043 289.129 633 287.475 633 285.685V198.314C633 196.525 632.044 194.872 630.492 193.98L554.492 150.28C552.949 149.392 551.051 149.392 549.508 150.28Z" stroke="#854EFF" stroke-width="2"/>
</g>
<g filter="url(#filter14_f_789_5869)">
<path d="M549.508 150.28L550.006 151.146L549.508 150.28L473.508 193.98C471.956 194.872 471 196.525 471 198.314V285.687C471 287.476 471.956 289.128 473.506 290.02L549.449 333.72C550.991 334.607 552.89 334.608 554.433 333.721L630.491 290.02C632.043 289.129 633 287.475 633 285.685V198.314C633 196.525 632.044 194.872 630.492 193.98L554.492 150.28C552.949 149.392 551.051 149.392 549.508 150.28Z" stroke="#854EFF" stroke-width="2"/>
</g>
<g filter="url(#filter15_f_789_5869)">
<path d="M549.508 150.28L550.006 151.146L549.508 150.28L473.508 193.98C471.956 194.872 471 196.525 471 198.314V285.687C471 287.476 471.956 289.128 473.506 290.02L549.449 333.72C550.991 334.607 552.89 334.608 554.433 333.721L630.491 290.02C632.043 289.129 633 287.475 633 285.685V198.314C633 196.525 632.044 194.872 630.492 193.98L554.492 150.28C552.949 149.392 551.051 149.392 549.508 150.28Z" stroke="#854EFF" stroke-width="2"/>
</g>
<path d="M633.508 294.28L634.006 295.146L633.508 294.28L557.508 337.98C555.956 338.872 555 340.525 555 342.314V429.687C555 431.476 555.956 433.128 557.506 434.02L633.449 477.72C634.991 478.607 636.89 478.608 638.433 477.721L714.491 434.02C716.043 433.129 717 431.475 717 429.685V342.314C717 340.525 716.044 338.872 714.492 337.98L638.492 294.28C636.949 293.392 635.051 293.392 633.508 294.28Z" stroke="#854EFF" stroke-width="2"/>
<path d="M638.184 477.288L714.242 433.587C715.639 432.784 716.5 431.296 716.5 429.685V342.314C716.5 340.704 715.639 339.216 714.243 338.413L638.243 294.713C636.854 293.914 635.146 293.914 633.757 294.713L557.757 338.413C556.361 339.216 555.5 340.704 555.5 342.314V429.687C555.5 431.297 556.36 432.784 557.756 433.587L633.698 477.286C635.086 478.085 636.795 478.086 638.184 477.288Z" stroke="#D9C8FF"/>
<g filter="url(#filter16_f_789_5869)">
<path d="M633.508 294.28L634.006 295.146L633.508 294.28L557.508 337.98C555.956 338.872 555 340.525 555 342.314V429.687C555 431.476 555.956 433.128 557.506 434.02L633.449 477.72C634.991 478.607 636.89 478.608 638.433 477.721L714.491 434.02C716.043 433.129 717 431.475 717 429.685V342.314C717 340.525 716.044 338.872 714.492 337.98L638.492 294.28C636.949 293.392 635.051 293.392 633.508 294.28Z" stroke="#854EFF" stroke-width="2"/>
</g>
<g filter="url(#filter17_f_789_5869)">
<path d="M633.508 294.28L634.006 295.146L633.508 294.28L557.508 337.98C555.956 338.872 555 340.525 555 342.314V429.687C555 431.476 555.956 433.128 557.506 434.02L633.449 477.72C634.991 478.607 636.89 478.608 638.433 477.721L714.491 434.02C716.043 433.129 717 431.475 717 429.685V342.314C717 340.525 716.044 338.872 714.492 337.98L638.492 294.28C636.949 293.392 635.051 293.392 633.508 294.28Z" stroke="#854EFF" stroke-width="2"/>
</g>
<g filter="url(#filter18_f_789_5869)">
<path d="M633.508 294.28L634.006 295.146L633.508 294.28L557.508 337.98C555.956 338.872 555 340.525 555 342.314V429.687C555 431.476 555.956 433.128 557.506 434.02L633.449 477.72C634.991 478.607 636.89 478.608 638.433 477.721L714.491 434.02C716.043 433.129 717 431.475 717 429.685V342.314C717 340.525 716.044 338.872 714.492 337.98L638.492 294.28C636.949 293.392 635.051 293.392 633.508 294.28Z" stroke="#854EFF" stroke-width="2"/>
</g>
<g filter="url(#filter19_f_789_5869)">
<path d="M633.508 294.28L634.006 295.146L633.508 294.28L557.508 337.98C555.956 338.872 555 340.525 555 342.314V429.687C555 431.476 555.956 433.128 557.506 434.02L633.449 477.72C634.991 478.607 636.89 478.608 638.433 477.721L714.491 434.02C716.043 433.129 717 431.475 717 429.685V342.314C717 340.525 716.044 338.872 714.492 337.98L638.492 294.28C636.949 293.392 635.051 293.392 633.508 294.28Z" stroke="#854EFF" stroke-width="2"/>
</g>
<path d="M213.508 -140.72L214.006 -139.854L213.508 -140.72L137.508 -97.0204C135.956 -96.1284 135 -94.4754 135 -92.6859V-5.31326C135 -3.52434 135.956 -1.87173 137.506 -0.979523L213.449 42.7196C214.991 43.6074 216.89 43.608 218.433 42.7212L294.491 -0.97963C296.043 -1.87143 297 -3.5249 297 -5.31496V-92.6859C297 -94.4754 296.044 -96.1284 294.492 -97.0204L218.492 -140.72C216.949 -141.608 215.051 -141.608 213.508 -140.72Z" stroke="#854EFF" stroke-width="2"/>
<path d="M218.184 42.2877L294.242 -1.41316C295.639 -2.21577 296.5 -3.70392 296.5 -5.31496V-92.6859C296.5 -94.2964 295.639 -95.7842 294.243 -96.587L218.243 -140.287C216.854 -141.086 215.146 -141.086 213.757 -140.287L137.757 -96.587C136.361 -95.7842 135.5 -94.2964 135.5 -92.6859V-5.31326C135.5 -3.70323 136.36 -2.2159 137.756 -1.41289L213.698 42.2863C215.086 43.0853 216.795 43.0858 218.184 42.2877Z" stroke="#D9C8FF"/>
<g filter="url(#filter20_f_789_5869)">
<path d="M213.508 -140.72L214.006 -139.854L213.508 -140.72L137.508 -97.0204C135.956 -96.1284 135 -94.4754 135 -92.6859V-5.31326C135 -3.52434 135.956 -1.87173 137.506 -0.979523L213.449 42.7196C214.991 43.6074 216.89 43.608 218.433 42.7212L294.491 -0.97963C296.043 -1.87143 297 -3.5249 297 -5.31496V-92.6859C297 -94.4754 296.044 -96.1284 294.492 -97.0204L218.492 -140.72C216.949 -141.608 215.051 -141.608 213.508 -140.72Z" stroke="#854EFF" stroke-width="2"/>
</g>
<g filter="url(#filter21_f_789_5869)">
<path d="M213.508 -140.72L214.006 -139.854L213.508 -140.72L137.508 -97.0204C135.956 -96.1284 135 -94.4754 135 -92.6859V-5.31326C135 -3.52434 135.956 -1.87173 137.506 -0.979523L213.449 42.7196C214.991 43.6074 216.89 43.608 218.433 42.7212L294.491 -0.97963C296.043 -1.87143 297 -3.5249 297 -5.31496V-92.6859C297 -94.4754 296.044 -96.1284 294.492 -97.0204L218.492 -140.72C216.949 -141.608 215.051 -141.608 213.508 -140.72Z" stroke="#854EFF" stroke-width="2"/>
</g>
<g filter="url(#filter22_f_789_5869)">
<path d="M213.508 -140.72L214.006 -139.854L213.508 -140.72L137.508 -97.0204C135.956 -96.1284 135 -94.4754 135 -92.6859V-5.31326C135 -3.52434 135.956 -1.87173 137.506 -0.979523L213.449 42.7196C214.991 43.6074 216.89 43.608 218.433 42.7212L294.491 -0.97963C296.043 -1.87143 297 -3.5249 297 -5.31496V-92.6859C297 -94.4754 296.044 -96.1284 294.492 -97.0204L218.492 -140.72C216.949 -141.608 215.051 -141.608 213.508 -140.72Z" stroke="#854EFF" stroke-width="2"/>
</g>
<g filter="url(#filter23_f_789_5869)">
<path d="M213.508 -140.72L214.006 -139.854L213.508 -140.72L137.508 -97.0204C135.956 -96.1284 135 -94.4754 135 -92.6859V-5.31326C135 -3.52434 135.956 -1.87173 137.506 -0.979523L213.449 42.7196C214.991 43.6074 216.89 43.608 218.433 42.7212L294.491 -0.97963C296.043 -1.87143 297 -3.5249 297 -5.31496V-92.6859C297 -94.4754 296.044 -96.1284 294.492 -97.0204L218.492 -140.72C216.949 -141.608 215.051 -141.608 213.508 -140.72Z" stroke="#854EFF" stroke-width="2"/>
</g>
<path d="M381.508 -140.72L382.006 -139.854L381.508 -140.72L305.508 -97.0204C303.956 -96.1284 303 -94.4754 303 -92.6859V-5.31326C303 -3.52434 303.956 -1.87173 305.506 -0.979523L381.449 42.7196C382.991 43.6074 384.89 43.608 386.433 42.7212L462.491 -0.97963C464.043 -1.87143 465 -3.5249 465 -5.31496V-92.6859C465 -94.4754 464.044 -96.1284 462.492 -97.0204L386.492 -140.72C384.949 -141.608 383.051 -141.608 381.508 -140.72Z" stroke="#854EFF" stroke-width="2"/>
<path d="M386.184 42.2877L462.242 -1.41316C463.639 -2.21577 464.5 -3.70392 464.5 -5.31496V-92.6859C464.5 -94.2964 463.639 -95.7842 462.243 -96.587L386.243 -140.287C384.854 -141.086 383.146 -141.086 381.757 -140.287L305.757 -96.587C304.361 -95.7842 303.5 -94.2964 303.5 -92.6859V-5.31326C303.5 -3.70323 304.36 -2.2159 305.756 -1.41289L381.698 42.2863C383.086 43.0853 384.795 43.0858 386.184 42.2877Z" stroke="#D9C8FF"/>
<g filter="url(#filter24_f_789_5869)">
<path d="M381.508 -140.72L382.006 -139.854L381.508 -140.72L305.508 -97.0204C303.956 -96.1284 303 -94.4754 303 -92.6859V-5.31326C303 -3.52434 303.956 -1.87173 305.506 -0.979523L381.449 42.7196C382.991 43.6074 384.89 43.608 386.433 42.7212L462.491 -0.97963C464.043 -1.87143 465 -3.5249 465 -5.31496V-92.6859C465 -94.4754 464.044 -96.1284 462.492 -97.0204L386.492 -140.72C384.949 -141.608 383.051 -141.608 381.508 -140.72Z" stroke="#854EFF" stroke-width="2"/>
</g>
<g filter="url(#filter25_f_789_5869)">
<path d="M381.508 -140.72L382.006 -139.854L381.508 -140.72L305.508 -97.0204C303.956 -96.1284 303 -94.4754 303 -92.6859V-5.31326C303 -3.52434 303.956 -1.87173 305.506 -0.979523L381.449 42.7196C382.991 43.6074 384.89 43.608 386.433 42.7212L462.491 -0.97963C464.043 -1.87143 465 -3.5249 465 -5.31496V-92.6859C465 -94.4754 464.044 -96.1284 462.492 -97.0204L386.492 -140.72C384.949 -141.608 383.051 -141.608 381.508 -140.72Z" stroke="#854EFF" stroke-width="2"/>
</g>
<g filter="url(#filter26_f_789_5869)">
<path d="M381.508 -140.72L382.006 -139.854L381.508 -140.72L305.508 -97.0204C303.956 -96.1284 303 -94.4754 303 -92.6859V-5.31326C303 -3.52434 303.956 -1.87173 305.506 -0.979523L381.449 42.7196C382.991 43.6074 384.89 43.608 386.433 42.7212L462.491 -0.97963C464.043 -1.87143 465 -3.5249 465 -5.31496V-92.6859C465 -94.4754 464.044 -96.1284 462.492 -97.0204L386.492 -140.72C384.949 -141.608 383.051 -141.608 381.508 -140.72Z" stroke="#854EFF" stroke-width="2"/>
</g>
<g filter="url(#filter27_f_789_5869)">
<path d="M381.508 -140.72L382.006 -139.854L381.508 -140.72L305.508 -97.0204C303.956 -96.1284 303 -94.4754 303 -92.6859V-5.31326C303 -3.52434 303.956 -1.87173 305.506 -0.979523L381.449 42.7196C382.991 43.6074 384.89 43.608 386.433 42.7212L462.491 -0.97963C464.043 -1.87143 465 -3.5249 465 -5.31496V-92.6859C465 -94.4754 464.044 -96.1284 462.492 -97.0204L386.492 -140.72C384.949 -141.608 383.051 -141.608 381.508 -140.72Z" stroke="#854EFF" stroke-width="2"/>
</g>
<path d="M297.508 4.27958L298.006 5.14648L297.508 4.27958L221.508 47.9796C219.956 48.8716 219 50.5246 219 52.3141V139.687C219 141.476 219.956 143.128 221.506 144.02L297.449 187.72C298.991 188.607 300.89 188.608 302.433 187.721L378.491 144.02C380.043 143.129 381 141.475 381 139.685V52.3141C381 50.5246 380.044 48.8716 378.492 47.9796L302.492 4.27958C300.949 3.39229 299.051 3.39229 297.508 4.27958Z" stroke="#854EFF" stroke-width="2"/>
<path d="M302.184 187.288L378.242 143.587C379.639 142.784 380.5 141.296 380.5 139.685V52.3141C380.5 50.7036 379.639 49.2158 378.243 48.413L302.243 4.71303C300.854 3.91447 299.146 3.91447 297.757 4.71303L221.757 48.413C220.361 49.2158 219.5 50.7036 219.5 52.3141V139.687C219.5 141.297 220.36 142.784 221.756 143.587L297.698 187.286C299.086 188.085 300.795 188.086 302.184 187.288Z" stroke="#D9C8FF"/>
<g filter="url(#filter28_f_789_5869)">
<path d="M297.508 4.27958L298.006 5.14648L297.508 4.27958L221.508 47.9796C219.956 48.8716 219 50.5246 219 52.3141V139.687C219 141.476 219.956 143.128 221.506 144.02L297.449 187.72C298.991 188.607 300.89 188.608 302.433 187.721L378.491 144.02C380.043 143.129 381 141.475 381 139.685V52.3141C381 50.5246 380.044 48.8716 378.492 47.9796L302.492 4.27958C300.949 3.39229 299.051 3.39229 297.508 4.27958Z" stroke="#854EFF" stroke-width="2"/>
</g>
<g filter="url(#filter29_f_789_5869)">
<path d="M297.508 4.27958L298.006 5.14648L297.508 4.27958L221.508 47.9796C219.956 48.8716 219 50.5246 219 52.3141V139.687C219 141.476 219.956 143.128 221.506 144.02L297.449 187.72C298.991 188.607 300.89 188.608 302.433 187.721L378.491 144.02C380.043 143.129 381 141.475 381 139.685V52.3141C381 50.5246 380.044 48.8716 378.492 47.9796L302.492 4.27958C300.949 3.39229 299.051 3.39229 297.508 4.27958Z" stroke="#854EFF" stroke-width="2"/>
</g>
<g filter="url(#filter30_f_789_5869)">
<path d="M297.508 4.27958L298.006 5.14648L297.508 4.27958L221.508 47.9796C219.956 48.8716 219 50.5246 219 52.3141V139.687C219 141.476 219.956 143.128 221.506 144.02L297.449 187.72C298.991 188.607 300.89 188.608 302.433 187.721L378.491 144.02C380.043 143.129 381 141.475 381 139.685V52.3141C381 50.5246 380.044 48.8716 378.492 47.9796L302.492 4.27958C300.949 3.39229 299.051 3.39229 297.508 4.27958Z" stroke="#854EFF" stroke-width="2"/>
</g>
<g filter="url(#filter31_f_789_5869)">
<path d="M297.508 4.27958L298.006 5.14648L297.508 4.27958L221.508 47.9796C219.956 48.8716 219 50.5246 219 52.3141V139.687C219 141.476 219.956 143.128 221.506 144.02L297.449 187.72C298.991 188.607 300.89 188.608 302.433 187.721L378.491 144.02C380.043 143.129 381 141.475 381 139.685V52.3141C381 50.5246 380.044 48.8716 378.492 47.9796L302.492 4.27958C300.949 3.39229 299.051 3.39229 297.508 4.27958Z" stroke="#854EFF" stroke-width="2"/>
</g>
<path d="M381.508 150.28L382.006 151.146L381.508 150.28L305.508 193.98C303.956 194.872 303 196.525 303 198.314V285.687C303 287.476 303.956 289.128 305.506 290.02L381.449 333.72C382.991 334.607 384.89 334.608 386.433 333.721L462.491 290.02C464.043 289.129 465 287.475 465 285.685V198.314C465 196.525 464.044 194.872 462.492 193.98L386.492 150.28C384.949 149.392 383.051 149.392 381.508 150.28Z" stroke="#854EFF" stroke-width="2"/>
<path d="M386.184 333.288L462.242 289.587C463.639 288.784 464.5 287.296 464.5 285.685V198.314C464.5 196.704 463.639 195.216 462.243 194.413L386.243 150.713C384.854 149.914 383.146 149.914 381.757 150.713L305.757 194.413C304.361 195.216 303.5 196.704 303.5 198.314V285.687C303.5 287.297 304.36 288.784 305.756 289.587L381.698 333.286C383.086 334.085 384.795 334.086 386.184 333.288Z" stroke="#D9C8FF"/>
<g filter="url(#filter32_f_789_5869)">
<path d="M381.508 150.28L382.006 151.146L381.508 150.28L305.508 193.98C303.956 194.872 303 196.525 303 198.314V285.687C303 287.476 303.956 289.128 305.506 290.02L381.449 333.72C382.991 334.607 384.89 334.608 386.433 333.721L462.491 290.02C464.043 289.129 465 287.475 465 285.685V198.314C465 196.525 464.044 194.872 462.492 193.98L386.492 150.28C384.949 149.392 383.051 149.392 381.508 150.28Z" stroke="#854EFF" stroke-width="2"/>
</g>
<g filter="url(#filter33_f_789_5869)">
<path d="M381.508 150.28L382.006 151.146L381.508 150.28L305.508 193.98C303.956 194.872 303 196.525 303 198.314V285.687C303 287.476 303.956 289.128 305.506 290.02L381.449 333.72C382.991 334.607 384.89 334.608 386.433 333.721L462.491 290.02C464.043 289.129 465 287.475 465 285.685V198.314C465 196.525 464.044 194.872 462.492 193.98L386.492 150.28C384.949 149.392 383.051 149.392 381.508 150.28Z" stroke="#854EFF" stroke-width="2"/>
</g>
<g filter="url(#filter34_f_789_5869)">
<path d="M381.508 150.28L382.006 151.146L381.508 150.28L305.508 193.98C303.956 194.872 303 196.525 303 198.314V285.687C303 287.476 303.956 289.128 305.506 290.02L381.449 333.72C382.991 334.607 384.89 334.608 386.433 333.721L462.491 290.02C464.043 289.129 465 287.475 465 285.685V198.314C465 196.525 464.044 194.872 462.492 193.98L386.492 150.28C384.949 149.392 383.051 149.392 381.508 150.28Z" stroke="#854EFF" stroke-width="2"/>
</g>
<g filter="url(#filter35_f_789_5869)">
<path d="M381.508 150.28L382.006 151.146L381.508 150.28L305.508 193.98C303.956 194.872 303 196.525 303 198.314V285.687C303 287.476 303.956 289.128 305.506 290.02L381.449 333.72C382.991 334.607 384.89 334.608 386.433 333.721L462.491 290.02C464.043 289.129 465 287.475 465 285.685V198.314C465 196.525 464.044 194.872 462.492 193.98L386.492 150.28C384.949 149.392 383.051 149.392 381.508 150.28Z" stroke="#854EFF" stroke-width="2"/>
</g>
<path d="M465.508 294.28L466.006 295.146L465.508 294.28L389.508 337.98C387.956 338.872 387 340.525 387 342.314V429.687C387 431.476 387.956 433.128 389.506 434.02L465.449 477.72C466.991 478.607 468.89 478.608 470.433 477.721L546.491 434.02C548.043 433.129 549 431.475 549 429.685V342.314C549 340.525 548.044 338.872 546.492 337.98L470.492 294.28C468.949 293.392 467.051 293.392 465.508 294.28Z" stroke="#854EFF" stroke-width="2"/>
<path d="M470.184 477.288L546.242 433.587C547.639 432.784 548.5 431.296 548.5 429.685V342.314C548.5 340.704 547.639 339.216 546.243 338.413L470.243 294.713C468.854 293.914 467.146 293.914 465.757 294.713L389.757 338.413C388.361 339.216 387.5 340.704 387.5 342.314V429.687C387.5 431.297 388.36 432.784 389.756 433.587L465.698 477.286C467.086 478.085 468.795 478.086 470.184 477.288Z" stroke="#D9C8FF"/>
<g filter="url(#filter36_f_789_5869)">
<path d="M465.508 294.28L466.006 295.146L465.508 294.28L389.508 337.98C387.956 338.872 387 340.525 387 342.314V429.687C387 431.476 387.956 433.128 389.506 434.02L465.449 477.72C466.991 478.607 468.89 478.608 470.433 477.721L546.491 434.02C548.043 433.129 549 431.475 549 429.685V342.314C549 340.525 548.044 338.872 546.492 337.98L470.492 294.28C468.949 293.392 467.051 293.392 465.508 294.28Z" stroke="#854EFF" stroke-width="2"/>
</g>
<g filter="url(#filter37_f_789_5869)">
<path d="M465.508 294.28L466.006 295.146L465.508 294.28L389.508 337.98C387.956 338.872 387 340.525 387 342.314V429.687C387 431.476 387.956 433.128 389.506 434.02L465.449 477.72C466.991 478.607 468.89 478.608 470.433 477.721L546.491 434.02C548.043 433.129 549 431.475 549 429.685V342.314C549 340.525 548.044 338.872 546.492 337.98L470.492 294.28C468.949 293.392 467.051 293.392 465.508 294.28Z" stroke="#854EFF" stroke-width="2"/>
</g>
<g filter="url(#filter38_f_789_5869)">
<path d="M465.508 294.28L466.006 295.146L465.508 294.28L389.508 337.98C387.956 338.872 387 340.525 387 342.314V429.687C387 431.476 387.956 433.128 389.506 434.02L465.449 477.72C466.991 478.607 468.89 478.608 470.433 477.721L546.491 434.02C548.043 433.129 549 431.475 549 429.685V342.314C549 340.525 548.044 338.872 546.492 337.98L470.492 294.28C468.949 293.392 467.051 293.392 465.508 294.28Z" stroke="#854EFF" stroke-width="2"/>
</g>
<g filter="url(#filter39_f_789_5869)">
<path d="M465.508 294.28L466.006 295.146L465.508 294.28L389.508 337.98C387.956 338.872 387 340.525 387 342.314V429.687C387 431.476 387.956 433.128 389.506 434.02L465.449 477.72C466.991 478.607 468.89 478.608 470.433 477.721L546.491 434.02C548.043 433.129 549 431.475 549 429.685V342.314C549 340.525 548.044 338.872 546.492 337.98L470.492 294.28C468.949 293.392 467.051 293.392 465.508 294.28Z" stroke="#854EFF" stroke-width="2"/>
</g>
<path d="M549.508 439.28L550.006 440.146L549.508 439.28L473.508 482.98C471.956 483.872 471 485.525 471 487.314V574.687C471 576.476 471.956 578.128 473.506 579.02L549.449 622.72C550.991 623.607 552.89 623.608 554.433 622.721L630.491 579.02C632.043 578.129 633 576.475 633 574.685V487.314C633 485.525 632.044 483.872 630.492 482.98L554.492 439.28C552.949 438.392 551.051 438.392 549.508 439.28Z" stroke="#854EFF" stroke-width="2"/>
<path d="M554.184 622.288L630.242 578.587C631.639 577.784 632.5 576.296 632.5 574.685V487.314C632.5 485.704 631.639 484.216 630.243 483.413L554.243 439.713C552.854 438.914 551.146 438.914 549.757 439.713L473.757 483.413C472.361 484.216 471.5 485.704 471.5 487.314V574.687C471.5 576.297 472.36 577.784 473.756 578.587L549.698 622.286C551.086 623.085 552.795 623.086 554.184 622.288Z" stroke="#D9C8FF"/>
<g filter="url(#filter40_f_789_5869)">
<path d="M549.508 439.28L550.006 440.146L549.508 439.28L473.508 482.98C471.956 483.872 471 485.525 471 487.314V574.687C471 576.476 471.956 578.128 473.506 579.02L549.449 622.72C550.991 623.607 552.89 623.608 554.433 622.721L630.491 579.02C632.043 578.129 633 576.475 633 574.685V487.314C633 485.525 632.044 483.872 630.492 482.98L554.492 439.28C552.949 438.392 551.051 438.392 549.508 439.28Z" stroke="#854EFF" stroke-width="2"/>
</g>
<g filter="url(#filter41_f_789_5869)">
<path d="M549.508 439.28L550.006 440.146L549.508 439.28L473.508 482.98C471.956 483.872 471 485.525 471 487.314V574.687C471 576.476 471.956 578.128 473.506 579.02L549.449 622.72C550.991 623.607 552.89 623.608 554.433 622.721L630.491 579.02C632.043 578.129 633 576.475 633 574.685V487.314C633 485.525 632.044 483.872 630.492 482.98L554.492 439.28C552.949 438.392 551.051 438.392 549.508 439.28Z" stroke="#854EFF" stroke-width="2"/>
</g>
<g filter="url(#filter42_f_789_5869)">
<path d="M549.508 439.28L550.006 440.146L549.508 439.28L473.508 482.98C471.956 483.872 471 485.525 471 487.314V574.687C471 576.476 471.956 578.128 473.506 579.02L549.449 622.72C550.991 623.607 552.89 623.608 554.433 622.721L630.491 579.02C632.043 578.129 633 576.475 633 574.685V487.314C633 485.525 632.044 483.872 630.492 482.98L554.492 439.28C552.949 438.392 551.051 438.392 549.508 439.28Z" stroke="#854EFF" stroke-width="2"/>
</g>
<g filter="url(#filter43_f_789_5869)">
<path d="M549.508 439.28L550.006 440.146L549.508 439.28L473.508 482.98C471.956 483.872 471 485.525 471 487.314V574.687C471 576.476 471.956 578.128 473.506 579.02L549.449 622.72C550.991 623.607 552.89 623.608 554.433 622.721L630.491 579.02C632.043 578.129 633 576.475 633 574.685V487.314C633 485.525 632.044 483.872 630.492 482.98L554.492 439.28C552.949 438.392 551.051 438.392 549.508 439.28Z" stroke="#854EFF" stroke-width="2"/>
</g>
<path d="M633.508 4.27958L634.006 5.14648L633.508 4.27958L557.508 47.9796C555.956 48.8716 555 50.5246 555 52.3141V139.687C555 141.476 555.956 143.128 557.506 144.02L633.449 187.72C634.991 188.607 636.89 188.608 638.433 187.721L714.491 144.02C716.043 143.129 717 141.475 717 139.685V52.3141C717 50.5246 716.044 48.8716 714.492 47.9796L638.492 4.27958C636.949 3.39229 635.051 3.39229 633.508 4.27958Z" stroke="#854EFF" stroke-width="2"/>
<path d="M638.184 187.288L714.242 143.587C715.639 142.784 716.5 141.296 716.5 139.685V52.3141C716.5 50.7036 715.639 49.2158 714.243 48.413L638.243 4.71303C636.854 3.91447 635.146 3.91447 633.757 4.71303L557.757 48.413C556.361 49.2158 555.5 50.7036 555.5 52.3141V139.687C555.5 141.297 556.36 142.784 557.756 143.587L633.698 187.286C635.086 188.085 636.795 188.086 638.184 187.288Z" stroke="#D9C8FF"/>
<g filter="url(#filter44_f_789_5869)">
<path d="M633.508 4.27958L634.006 5.14648L633.508 4.27958L557.508 47.9796C555.956 48.8716 555 50.5246 555 52.3141V139.687C555 141.476 555.956 143.128 557.506 144.02L633.449 187.72C634.991 188.607 636.89 188.608 638.433 187.721L714.491 144.02C716.043 143.129 717 141.475 717 139.685V52.3141C717 50.5246 716.044 48.8716 714.492 47.9796L638.492 4.27958C636.949 3.39229 635.051 3.39229 633.508 4.27958Z" stroke="#854EFF" stroke-width="2"/>
</g>
<g filter="url(#filter45_f_789_5869)">
<path d="M633.508 4.27958L634.006 5.14648L633.508 4.27958L557.508 47.9796C555.956 48.8716 555 50.5246 555 52.3141V139.687C555 141.476 555.956 143.128 557.506 144.02L633.449 187.72C634.991 188.607 636.89 188.608 638.433 187.721L714.491 144.02C716.043 143.129 717 141.475 717 139.685V52.3141C717 50.5246 716.044 48.8716 714.492 47.9796L638.492 4.27958C636.949 3.39229 635.051 3.39229 633.508 4.27958Z" stroke="#854EFF" stroke-width="2"/>
</g>
<g filter="url(#filter46_f_789_5869)">
<path d="M633.508 4.27958L634.006 5.14648L633.508 4.27958L557.508 47.9796C555.956 48.8716 555 50.5246 555 52.3141V139.687C555 141.476 555.956 143.128 557.506 144.02L633.449 187.72C634.991 188.607 636.89 188.608 638.433 187.721L714.491 144.02C716.043 143.129 717 141.475 717 139.685V52.3141C717 50.5246 716.044 48.8716 714.492 47.9796L638.492 4.27958C636.949 3.39229 635.051 3.39229 633.508 4.27958Z" stroke="#854EFF" stroke-width="2"/>
</g>
<g filter="url(#filter47_f_789_5869)">
<path d="M633.508 4.27958L634.006 5.14648L633.508 4.27958L557.508 47.9796C555.956 48.8716 555 50.5246 555 52.3141V139.687C555 141.476 555.956 143.128 557.506 144.02L633.449 187.72C634.991 188.607 636.89 188.608 638.433 187.721L714.491 144.02C716.043 143.129 717 141.475 717 139.685V52.3141C717 50.5246 716.044 48.8716 714.492 47.9796L638.492 4.27958C636.949 3.39229 635.051 3.39229 633.508 4.27958Z" stroke="#854EFF" stroke-width="2"/>
</g>
<defs>
<filter id="filter0_f_789_5869" x="0" y="-47.3859" width="264" height="286.772" filterUnits="userSpaceOnUse" color-interpolation-filters="sRGB">
<feFlood flood-opacity="0" result="BackgroundImageFix"/>
<feBlend mode="normal" in="SourceGraphic" in2="BackgroundImageFix" result="shape"/>
<feGaussianBlur stdDeviation="25" result="effect1_foregroundBlur_789_5869"/>
</filter>
<filter id="filter1_f_789_5869" x="30" y="-17.3859" width="204" height="226.772" filterUnits="userSpaceOnUse" color-interpolation-filters="sRGB">
<feFlood flood-opacity="0" result="BackgroundImageFix"/>
<feBlend mode="normal" in="SourceGraphic" in2="BackgroundImageFix" result="shape"/>
<feGaussianBlur stdDeviation="10" result="effect1_foregroundBlur_789_5869"/>
</filter>
<filter id="filter2_f_789_5869" x="35" y="-12.3859" width="194" height="216.772" filterUnits="userSpaceOnUse" color-interpolation-filters="sRGB">
<feFlood flood-opacity="0" result="BackgroundImageFix"/>
<feBlend mode="normal" in="SourceGraphic" in2="BackgroundImageFix" result="shape"/>
<feGaussianBlur stdDeviation="7.5" result="effect1_foregroundBlur_789_5869"/>
</filter>
<filter id="filter3_f_789_5869" x="40" y="-7.38586" width="184" height="206.772" filterUnits="userSpaceOnUse" color-interpolation-filters="sRGB">
<feFlood flood-opacity="0" result="BackgroundImageFix"/>
<feBlend mode="normal" in="SourceGraphic" in2="BackgroundImageFix" result="shape"/>
<feGaussianBlur stdDeviation="5" result="effect1_foregroundBlur_789_5869"/>
</filter>
<filter id="filter4_f_789_5869" x="421" y="-192.386" width="264" height="286.772" filterUnits="userSpaceOnUse" color-interpolation-filters="sRGB">
<feFlood flood-opacity="0" result="BackgroundImageFix"/>
<feBlend mode="normal" in="SourceGraphic" in2="BackgroundImageFix" result="shape"/>
<feGaussianBlur stdDeviation="25" result="effect1_foregroundBlur_789_5869"/>
</filter>
<filter id="filter5_f_789_5869" x="451" y="-162.386" width="204" height="226.772" filterUnits="userSpaceOnUse" color-interpolation-filters="sRGB">
<feFlood flood-opacity="0" result="BackgroundImageFix"/>
<feBlend mode="normal" in="SourceGraphic" in2="BackgroundImageFix" result="shape"/>
<feGaussianBlur stdDeviation="10" result="effect1_foregroundBlur_789_5869"/>
</filter>
<filter id="filter6_f_789_5869" x="456" y="-157.386" width="194" height="216.772" filterUnits="userSpaceOnUse" color-interpolation-filters="sRGB">
<feFlood flood-opacity="0" result="BackgroundImageFix"/>
<feBlend mode="normal" in="SourceGraphic" in2="BackgroundImageFix" result="shape"/>
<feGaussianBlur stdDeviation="7.5" result="effect1_foregroundBlur_789_5869"/>
</filter>
<filter id="filter7_f_789_5869" x="461" y="-152.386" width="184" height="206.772" filterUnits="userSpaceOnUse" color-interpolation-filters="sRGB">
<feFlood flood-opacity="0" result="BackgroundImageFix"/>
<feBlend mode="normal" in="SourceGraphic" in2="BackgroundImageFix" result="shape"/>
<feGaussianBlur stdDeviation="5" result="effect1_foregroundBlur_789_5869"/>
</filter>
<filter id="filter8_f_789_5869" x="336" y="-47.3859" width="264" height="286.772" filterUnits="userSpaceOnUse" color-interpolation-filters="sRGB">
<feFlood flood-opacity="0" result="BackgroundImageFix"/>
<feBlend mode="normal" in="SourceGraphic" in2="BackgroundImageFix" result="shape"/>
<feGaussianBlur stdDeviation="25" result="effect1_foregroundBlur_789_5869"/>
</filter>
<filter id="filter9_f_789_5869" x="366" y="-17.3859" width="204" height="226.772" filterUnits="userSpaceOnUse" color-interpolation-filters="sRGB">
<feFlood flood-opacity="0" result="BackgroundImageFix"/>
<feBlend mode="normal" in="SourceGraphic" in2="BackgroundImageFix" result="shape"/>
<feGaussianBlur stdDeviation="10" result="effect1_foregroundBlur_789_5869"/>
</filter>
<filter id="filter10_f_789_5869" x="371" y="-12.3859" width="194" height="216.772" filterUnits="userSpaceOnUse" color-interpolation-filters="sRGB">
<feFlood flood-opacity="0" result="BackgroundImageFix"/>
<feBlend mode="normal" in="SourceGraphic" in2="BackgroundImageFix" result="shape"/>
<feGaussianBlur stdDeviation="7.5" result="effect1_foregroundBlur_789_5869"/>
</filter>
<filter id="filter11_f_789_5869" x="376" y="-7.38586" width="184" height="206.772" filterUnits="userSpaceOnUse" color-interpolation-filters="sRGB">
<feFlood flood-opacity="0" result="BackgroundImageFix"/>
<feBlend mode="normal" in="SourceGraphic" in2="BackgroundImageFix" result="shape"/>
<feGaussianBlur stdDeviation="5" result="effect1_foregroundBlur_789_5869"/>
</filter>
<filter id="filter12_f_789_5869" x="420" y="98.6141" width="264" height="286.772" filterUnits="userSpaceOnUse" color-interpolation-filters="sRGB">
<feFlood flood-opacity="0" result="BackgroundImageFix"/>
<feBlend mode="normal" in="SourceGraphic" in2="BackgroundImageFix" result="shape"/>
<feGaussianBlur stdDeviation="25" result="effect1_foregroundBlur_789_5869"/>
</filter>
<filter id="filter13_f_789_5869" x="450" y="128.614" width="204" height="226.772" filterUnits="userSpaceOnUse" color-interpolation-filters="sRGB">
<feFlood flood-opacity="0" result="BackgroundImageFix"/>
<feBlend mode="normal" in="SourceGraphic" in2="BackgroundImageFix" result="shape"/>
<feGaussianBlur stdDeviation="10" result="effect1_foregroundBlur_789_5869"/>
</filter>
<filter id="filter14_f_789_5869" x="455" y="133.614" width="194" height="216.772" filterUnits="userSpaceOnUse" color-interpolation-filters="sRGB">
<feFlood flood-opacity="0" result="BackgroundImageFix"/>
<feBlend mode="normal" in="SourceGraphic" in2="BackgroundImageFix" result="shape"/>
<feGaussianBlur stdDeviation="7.5" result="effect1_foregroundBlur_789_5869"/>
</filter>
<filter id="filter15_f_789_5869" x="460" y="138.614" width="184" height="206.772" filterUnits="userSpaceOnUse" color-interpolation-filters="sRGB">
<feFlood flood-opacity="0" result="BackgroundImageFix"/>
<feBlend mode="normal" in="SourceGraphic" in2="BackgroundImageFix" result="shape"/>
<feGaussianBlur stdDeviation="5" result="effect1_foregroundBlur_789_5869"/>
</filter>
<filter id="filter16_f_789_5869" x="504" y="242.614" width="264" height="286.772" filterUnits="userSpaceOnUse" color-interpolation-filters="sRGB">
<feFlood flood-opacity="0" result="BackgroundImageFix"/>
<feBlend mode="normal" in="SourceGraphic" in2="BackgroundImageFix" result="shape"/>
<feGaussianBlur stdDeviation="25" result="effect1_foregroundBlur_789_5869"/>
</filter>
<filter id="filter17_f_789_5869" x="534" y="272.614" width="204" height="226.772" filterUnits="userSpaceOnUse" color-interpolation-filters="sRGB">
<feFlood flood-opacity="0" result="BackgroundImageFix"/>
<feBlend mode="normal" in="SourceGraphic" in2="BackgroundImageFix" result="shape"/>
<feGaussianBlur stdDeviation="10" result="effect1_foregroundBlur_789_5869"/>
</filter>
<filter id="filter18_f_789_5869" x="539" y="277.614" width="194" height="216.772" filterUnits="userSpaceOnUse" color-interpolation-filters="sRGB">
<feFlood flood-opacity="0" result="BackgroundImageFix"/>
<feBlend mode="normal" in="SourceGraphic" in2="BackgroundImageFix" result="shape"/>
<feGaussianBlur stdDeviation="7.5" result="effect1_foregroundBlur_789_5869"/>
</filter>
<filter id="filter19_f_789_5869" x="544" y="282.614" width="184" height="206.772" filterUnits="userSpaceOnUse" color-interpolation-filters="sRGB">
<feFlood flood-opacity="0" result="BackgroundImageFix"/>
<feBlend mode="normal" in="SourceGraphic" in2="BackgroundImageFix" result="shape"/>
<feGaussianBlur stdDeviation="5" result="effect1_foregroundBlur_789_5869"/>
</filter>
<filter id="filter20_f_789_5869" x="84" y="-192.386" width="264" height="286.772" filterUnits="userSpaceOnUse" color-interpolation-filters="sRGB">
<feFlood flood-opacity="0" result="BackgroundImageFix"/>
<feBlend mode="normal" in="SourceGraphic" in2="BackgroundImageFix" result="shape"/>
<feGaussianBlur stdDeviation="25" result="effect1_foregroundBlur_789_5869"/>
</filter>
<filter id="filter21_f_789_5869" x="114" y="-162.386" width="204" height="226.772" filterUnits="userSpaceOnUse" color-interpolation-filters="sRGB">
<feFlood flood-opacity="0" result="BackgroundImageFix"/>
<feBlend mode="normal" in="SourceGraphic" in2="BackgroundImageFix" result="shape"/>
<feGaussianBlur stdDeviation="10" result="effect1_foregroundBlur_789_5869"/>
</filter>
<filter id="filter22_f_789_5869" x="119" y="-157.386" width="194" height="216.772" filterUnits="userSpaceOnUse" color-interpolation-filters="sRGB">
<feFlood flood-opacity="0" result="BackgroundImageFix"/>
<feBlend mode="normal" in="SourceGraphic" in2="BackgroundImageFix" result="shape"/>
<feGaussianBlur stdDeviation="7.5" result="effect1_foregroundBlur_789_5869"/>
</filter>
<filter id="filter23_f_789_5869" x="124" y="-152.386" width="184" height="206.772" filterUnits="userSpaceOnUse" color-interpolation-filters="sRGB">
<feFlood flood-opacity="0" result="BackgroundImageFix"/>
<feBlend mode="normal" in="SourceGraphic" in2="BackgroundImageFix" result="shape"/>
<feGaussianBlur stdDeviation="5" result="effect1_foregroundBlur_789_5869"/>
</filter>
<filter id="filter24_f_789_5869" x="252" y="-192.386" width="264" height="286.772" filterUnits="userSpaceOnUse" color-interpolation-filters="sRGB">
<feFlood flood-opacity="0" result="BackgroundImageFix"/>
<feBlend mode="normal" in="SourceGraphic" in2="BackgroundImageFix" result="shape"/>
<feGaussianBlur stdDeviation="25" result="effect1_foregroundBlur_789_5869"/>
</filter>
<filter id="filter25_f_789_5869" x="282" y="-162.386" width="204" height="226.772" filterUnits="userSpaceOnUse" color-interpolation-filters="sRGB">
<feFlood flood-opacity="0" result="BackgroundImageFix"/>
<feBlend mode="normal" in="SourceGraphic" in2="BackgroundImageFix" result="shape"/>
<feGaussianBlur stdDeviation="10" result="effect1_foregroundBlur_789_5869"/>
</filter>
<filter id="filter26_f_789_5869" x="287" y="-157.386" width="194" height="216.772" filterUnits="userSpaceOnUse" color-interpolation-filters="sRGB">
<feFlood flood-opacity="0" result="BackgroundImageFix"/>
<feBlend mode="normal" in="SourceGraphic" in2="BackgroundImageFix" result="shape"/>
<feGaussianBlur stdDeviation="7.5" result="effect1_foregroundBlur_789_5869"/>
</filter>
<filter id="filter27_f_789_5869" x="292" y="-152.386" width="184" height="206.772" filterUnits="userSpaceOnUse" color-interpolation-filters="sRGB">
<feFlood flood-opacity="0" result="BackgroundImageFix"/>
<feBlend mode="normal" in="SourceGraphic" in2="BackgroundImageFix" result="shape"/>
<feGaussianBlur stdDeviation="5" result="effect1_foregroundBlur_789_5869"/>
</filter>
<filter id="filter28_f_789_5869" x="168" y="-47.3859" width="264" height="286.772" filterUnits="userSpaceOnUse" color-interpolation-filters="sRGB">
<feFlood flood-opacity="0" result="BackgroundImageFix"/>
<feBlend mode="normal" in="SourceGraphic" in2="BackgroundImageFix" result="shape"/>
<feGaussianBlur stdDeviation="25" result="effect1_foregroundBlur_789_5869"/>
</filter>
<filter id="filter29_f_789_5869" x="198" y="-17.3859" width="204" height="226.772" filterUnits="userSpaceOnUse" color-interpolation-filters="sRGB">
<feFlood flood-opacity="0" result="BackgroundImageFix"/>
<feBlend mode="normal" in="SourceGraphic" in2="BackgroundImageFix" result="shape"/>
<feGaussianBlur stdDeviation="10" result="effect1_foregroundBlur_789_5869"/>
</filter>
<filter id="filter30_f_789_5869" x="203" y="-12.3859" width="194" height="216.772" filterUnits="userSpaceOnUse" color-interpolation-filters="sRGB">
<feFlood flood-opacity="0" result="BackgroundImageFix"/>
<feBlend mode="normal" in="SourceGraphic" in2="BackgroundImageFix" result="shape"/>
<feGaussianBlur stdDeviation="7.5" result="effect1_foregroundBlur_789_5869"/>
</filter>
<filter id="filter31_f_789_5869" x="208" y="-7.38586" width="184" height="206.772" filterUnits="userSpaceOnUse" color-interpolation-filters="sRGB">
<feFlood flood-opacity="0" result="BackgroundImageFix"/>
<feBlend mode="normal" in="SourceGraphic" in2="BackgroundImageFix" result="shape"/>
<feGaussianBlur stdDeviation="5" result="effect1_foregroundBlur_789_5869"/>
</filter>
<filter id="filter32_f_789_5869" x="252" y="98.6141" width="264" height="286.772" filterUnits="userSpaceOnUse" color-interpolation-filters="sRGB">
<feFlood flood-opacity="0" result="BackgroundImageFix"/>
<feBlend mode="normal" in="SourceGraphic" in2="BackgroundImageFix" result="shape"/>
<feGaussianBlur stdDeviation="25" result="effect1_foregroundBlur_789_5869"/>
</filter>
<filter id="filter33_f_789_5869" x="282" y="128.614" width="204" height="226.772" filterUnits="userSpaceOnUse" color-interpolation-filters="sRGB">
<feFlood flood-opacity="0" result="BackgroundImageFix"/>
<feBlend mode="normal" in="SourceGraphic" in2="BackgroundImageFix" result="shape"/>
<feGaussianBlur stdDeviation="10" result="effect1_foregroundBlur_789_5869"/>
</filter>
<filter id="filter34_f_789_5869" x="287" y="133.614" width="194" height="216.772" filterUnits="userSpaceOnUse" color-interpolation-filters="sRGB">
<feFlood flood-opacity="0" result="BackgroundImageFix"/>
<feBlend mode="normal" in="SourceGraphic" in2="BackgroundImageFix" result="shape"/>
<feGaussianBlur stdDeviation="7.5" result="effect1_foregroundBlur_789_5869"/>
</filter>
<filter id="filter35_f_789_5869" x="292" y="138.614" width="184" height="206.772" filterUnits="userSpaceOnUse" color-interpolation-filters="sRGB">
<feFlood flood-opacity="0" result="BackgroundImageFix"/>
<feBlend mode="normal" in="SourceGraphic" in2="BackgroundImageFix" result="shape"/>
<feGaussianBlur stdDeviation="5" result="effect1_foregroundBlur_789_5869"/>
</filter>
<filter id="filter36_f_789_5869" x="336" y="242.614" width="264" height="286.772" filterUnits="userSpaceOnUse" color-interpolation-filters="sRGB">
<feFlood flood-opacity="0" result="BackgroundImageFix"/>
<feBlend mode="normal" in="SourceGraphic" in2="BackgroundImageFix" result="shape"/>
<feGaussianBlur stdDeviation="25" result="effect1_foregroundBlur_789_5869"/>
</filter>
<filter id="filter37_f_789_5869" x="366" y="272.614" width="204" height="226.772" filterUnits="userSpaceOnUse" color-interpolation-filters="sRGB">
<feFlood flood-opacity="0" result="BackgroundImageFix"/>
<feBlend mode="normal" in="SourceGraphic" in2="BackgroundImageFix" result="shape"/>
<feGaussianBlur stdDeviation="10" result="effect1_foregroundBlur_789_5869"/>
</filter>
<filter id="filter38_f_789_5869" x="371" y="277.614" width="194" height="216.772" filterUnits="userSpaceOnUse" color-interpolation-filters="sRGB">
<feFlood flood-opacity="0" result="BackgroundImageFix"/>
<feBlend mode="normal" in="SourceGraphic" in2="BackgroundImageFix" result="shape"/>
<feGaussianBlur stdDeviation="7.5" result="effect1_foregroundBlur_789_5869"/>
</filter>
<filter id="filter39_f_789_5869" x="376" y="282.614" width="184" height="206.772" filterUnits="userSpaceOnUse" color-interpolation-filters="sRGB">
<feFlood flood-opacity="0" result="BackgroundImageFix"/>
<feBlend mode="normal" in="SourceGraphic" in2="BackgroundImageFix" result="shape"/>
<feGaussianBlur stdDeviation="5" result="effect1_foregroundBlur_789_5869"/>
</filter>
<filter id="filter40_f_789_5869" x="420" y="387.614" width="264" height="286.772" filterUnits="userSpaceOnUse" color-interpolation-filters="sRGB">
<feFlood flood-opacity="0" result="BackgroundImageFix"/>
<feBlend mode="normal" in="SourceGraphic" in2="BackgroundImageFix" result="shape"/>
<feGaussianBlur stdDeviation="25" result="effect1_foregroundBlur_789_5869"/>
</filter>
<filter id="filter41_f_789_5869" x="450" y="417.614" width="204" height="226.772" filterUnits="userSpaceOnUse" color-interpolation-filters="sRGB">
<feFlood flood-opacity="0" result="BackgroundImageFix"/>
<feBlend mode="normal" in="SourceGraphic" in2="BackgroundImageFix" result="shape"/>
<feGaussianBlur stdDeviation="10" result="effect1_foregroundBlur_789_5869"/>
</filter>
<filter id="filter42_f_789_5869" x="455" y="422.614" width="194" height="216.772" filterUnits="userSpaceOnUse" color-interpolation-filters="sRGB">
<feFlood flood-opacity="0" result="BackgroundImageFix"/>
<feBlend mode="normal" in="SourceGraphic" in2="BackgroundImageFix" result="shape"/>
<feGaussianBlur stdDeviation="7.5" result="effect1_foregroundBlur_789_5869"/>
</filter>
<filter id="filter43_f_789_5869" x="460" y="427.614" width="184" height="206.772" filterUnits="userSpaceOnUse" color-interpolation-filters="sRGB">
<feFlood flood-opacity="0" result="BackgroundImageFix"/>
<feBlend mode="normal" in="SourceGraphic" in2="BackgroundImageFix" result="shape"/>
<feGaussianBlur stdDeviation="5" result="effect1_foregroundBlur_789_5869"/>
</filter>
<filter id="filter44_f_789_5869" x="504" y="-47.3859" width="264" height="286.772" filterUnits="userSpaceOnUse" color-interpolation-filters="sRGB">
<feFlood flood-opacity="0" result="BackgroundImageFix"/>
<feBlend mode="normal" in="SourceGraphic" in2="BackgroundImageFix" result="shape"/>
<feGaussianBlur stdDeviation="25" result="effect1_foregroundBlur_789_5869"/>
</filter>
<filter id="filter45_f_789_5869" x="534" y="-17.3859" width="204" height="226.772" filterUnits="userSpaceOnUse" color-interpolation-filters="sRGB">
<feFlood flood-opacity="0" result="BackgroundImageFix"/>
<feBlend mode="normal" in="SourceGraphic" in2="BackgroundImageFix" result="shape"/>
<feGaussianBlur stdDeviation="10" result="effect1_foregroundBlur_789_5869"/>
</filter>
<filter id="filter46_f_789_5869" x="539" y="-12.3859" width="194" height="216.772" filterUnits="userSpaceOnUse" color-interpolation-filters="sRGB">
<feFlood flood-opacity="0" result="BackgroundImageFix"/>
<feBlend mode="normal" in="SourceGraphic" in2="BackgroundImageFix" result="shape"/>
<feGaussianBlur stdDeviation="7.5" result="effect1_foregroundBlur_789_5869"/>
</filter>
<filter id="filter47_f_789_5869" x="544" y="-7.38586" width="184" height="206.772" filterUnits="userSpaceOnUse" color-interpolation-filters="sRGB">
<feFlood flood-opacity="0" result="BackgroundImageFix"/>
<feBlend mode="normal" in="SourceGraphic" in2="BackgroundImageFix" result="shape"/>
<feGaussianBlur stdDeviation="5" result="effect1_foregroundBlur_789_5869"/>
</filter>
</defs>
</svg>
