<svg width="101" height="21" viewBox="0 0 101 21" fill="none" xmlns="http://www.w3.org/2000/svg">
<g clip-path="url(#clip0_269_5111)">
<path d="M96.5586 2.62968C96.5586 1.44145 97.4784 0.467498 98.6047 0.467498C99.149 0.467498 99.6559 0.701247 100.05 1.09083C100.444 1.49989 100.651 2.0453 100.651 2.6102C100.651 3.17509 100.444 3.72051 100.05 4.12957C99.6559 4.53863 99.149 4.77238 98.6047 4.77238C97.4784 4.77238 96.5586 3.8179 96.5586 2.62968ZM96.3897 2.62968C96.3897 3.9153 97.3846 4.96717 98.6234 4.96717C99.2241 4.96717 99.7685 4.73342 100.181 4.2854C100.594 3.83738 100.838 3.25301 100.838 2.62968C100.838 2.00635 100.613 1.42197 100.181 0.973954C99.7497 0.525935 99.2054 0.292186 98.6234 0.292186C97.3846 0.292186 96.3897 1.34406 96.3897 2.62968ZM97.7787 4.01269H98.0979V2.92186H98.8112C98.9238 2.92186 99.0176 2.92186 99.0927 2.96082C99.1866 3.01926 99.2429 3.13613 99.2617 3.29197L99.2992 3.72051V3.9153C99.318 3.95425 99.318 3.97373 99.3367 3.99321H99.7309V3.93478C99.6746 3.9153 99.6559 3.85686 99.6371 3.77894C99.6183 3.73998 99.6183 3.66207 99.6183 3.56467L99.5995 3.23353C99.5995 3.0777 99.562 2.9803 99.5245 2.92186C99.4681 2.86343 99.3931 2.80499 99.2992 2.76603C99.4118 2.70759 99.4869 2.62968 99.5432 2.53228C99.5995 2.43489 99.6183 2.31801 99.6183 2.16218C99.6183 1.86999 99.5057 1.6752 99.2992 1.55833C99.1866 1.49989 99.0364 1.48041 98.8675 1.48041H97.7975L97.7787 4.01269ZM98.0791 2.62968V1.75312H98.8299C98.9426 1.75312 99.0364 1.7726 99.0927 1.81155C99.2054 1.86999 99.2617 2.00635 99.2617 2.18166C99.2617 2.35697 99.2241 2.47384 99.1303 2.53228C99.0552 2.59072 98.9426 2.62968 98.7924 2.62968H98.0791ZM9.14134 5.84373L0.0185547 20.7257H6.25058L15.0355 6.50601L9.14134 5.84373ZM46.7024 5.51258V0H28.9637C26.5422 0.155833 25.491 1.36354 24.7026 2.22062C23.8579 3.13613 23.3886 5.06456 23.3886 5.06456V0.0389582H13.9468C13.2334 0.0389582 12.5577 0.350623 12.0509 1.09083C11.5253 1.81155 9.36659 5.51258 9.36659 5.51258H46.7024ZM94.9443 5.51258V0H75.9667C73.564 0.155833 72.494 1.36354 71.7056 2.22062C70.8609 3.13613 70.3916 5.06456 70.3916 5.06456V5.51258H94.9443ZM52.9344 0.0194791H47.6222V5.51258H52.9344V0.0194791ZM70.3353 0.0194791H65.0418V5.51258H70.3353V0.0194791ZM70.3353 7.49945L65.1169 7.1683V13.538C65.1169 13.538 65.0982 15.369 63.39 15.369H54.4549C54.4549 15.369 52.9344 15.2326 52.9344 13.5574V6.31122L47.6785 5.92164V15.6807C48.5232 20.3556 52.5966 20.7257 52.5966 20.7257C52.5966 20.7257 53.0095 20.7452 53.0846 20.7647H65.192C65.192 20.7647 70.3729 20.3362 70.3729 15.1547L70.3353 7.49945ZM17.9826 20.7257H42.798C47.1154 19.8297 47.5659 15.7391 47.5659 15.7391C47.7724 14.5314 47.6598 13.538 47.6598 13.538C47.5284 12.7198 46.0267 9.09673 42.798 8.78507C40.8646 8.59028 23.6514 7.1683 23.6514 7.1683C23.9893 8.96038 24.7589 9.8759 25.2845 10.3824C26.4859 11.5706 28.3818 11.9212 28.3818 11.9212L41.653 13.0705C42.0659 13.0899 42.8356 13.2068 42.8168 14.2587C42.8168 14.395 42.7042 15.3106 41.7281 15.3106H23.1634V7.12934L18.0013 6.73976C17.9826 6.73976 17.9826 20.7257 17.9826 20.7257ZM70.3729 20.7647H89.3693C94.1371 20.4725 94.8129 15.7781 94.8129 15.7781C94.9818 14.5509 94.8504 13.538 94.8504 13.538C94.719 12.4277 93.1986 9.07725 89.9512 8.74611C88.0365 8.55132 70.7107 7.49945 70.7107 7.49945C71.2176 9.34996 71.9121 9.91485 72.4377 10.4213C73.639 11.629 75.4223 11.9017 75.4223 11.9017C75.8728 11.9407 88.8249 13.0705 88.8249 13.0705C89.2379 13.0899 90.0826 13.1289 90.0826 14.1808C90.0826 14.4924 89.9324 14.8236 89.7447 14.9989C89.7447 14.9989 89.2942 15.2521 88.8624 15.2521H70.4292L70.3729 20.7647Z" fill="#00539B"/>
</g>
<defs>
<clipPath id="clip0_269_5111">
<rect width="100.857" height="20.7647" fill="white"/>
</clipPath>
</defs>
</svg>
