<svg width="16" height="16" viewBox="0 0 16 16" fill="none" xmlns="http://www.w3.org/2000/svg">
<path d="M8.66634 5.22C9.23301 5.01999 9.68634 4.56666 9.88634 3.99999H11.9997L9.99967 8.66666C9.99967 9.77333 11.0463 10.6667 12.333 10.6667C13.6197 10.6667 14.6663 9.77333 14.6663 8.66666L12.6663 3.99999H13.9997V2.66666H9.88634C9.61301 1.88666 8.87301 1.33333 7.99967 1.33333C7.12634 1.33333 6.38634 1.88666 6.11301 2.66666H1.99967V3.99999H3.33301L1.33301 8.66666C1.33301 9.77333 2.37967 10.6667 3.66634 10.6667C4.95301 10.6667 5.99967 9.77333 5.99967 8.66666L3.99967 3.99999H6.11301C6.31301 4.56666 6.76634 5.01999 7.33301 5.22V12.6667H1.33301V14H14.6663V12.6667H8.66634V5.22ZM13.5797 8.66666H11.0863L12.333 5.76L13.5797 8.66666ZM4.91301 8.66666H2.41967L3.66634 5.76L4.91301 8.66666ZM7.99967 3.99999C7.63301 3.99999 7.33301 3.7 7.33301 3.33333C7.33301 2.96666 7.63301 2.66666 7.99967 2.66666C8.36634 2.66666 8.66634 2.96666 8.66634 3.33333C8.66634 3.7 8.36634 3.99999 7.99967 3.99999Z" fill="#98A2B3"/>
</svg>
