<svg width="94" height="42" viewBox="0 0 94 42" fill="none" xmlns="http://www.w3.org/2000/svg">
<path d="M15.1172 21.9766H10.2305C8.68359 21.9766 7.27734 21.6016 6.01172 20.8398C4.73438 20.0781 3.71484 19.0703 2.96484 17.793C2.20312 16.5156 1.82812 15.1094 1.82812 13.5742V13.1289C1.82812 11.582 2.20312 10.1875 2.96484 8.91016C3.71484 7.63281 4.73438 6.625 6.01172 5.86328C7.27734 5.10156 8.68359 4.72656 10.2305 4.72656H23.5195L19.6523 8.59375H10.2305C9.39844 8.59375 8.63672 8.80469 7.95703 9.21484C7.26562 9.625 6.71484 10.1758 6.30469 10.8555C5.89453 11.5469 5.69531 12.2969 5.69531 13.1289V13.5742C5.69531 14.4062 5.89453 15.1562 6.30469 15.8477C6.71484 16.5273 7.26562 17.0781 7.95703 17.4883C8.63672 17.8984 9.39844 18.1094 10.2305 18.1094H15.1172C16.0664 18.1094 16.9102 17.8398 17.6602 17.3125C18.4102 16.7852 18.9727 16.1055 19.3242 15.2617H9.29297L12.7852 11.3477H23.5195V13.4453C23.5195 15.0742 23.1445 16.5156 22.3828 17.793C21.6211 19.0703 20.6016 20.0781 19.3359 20.8398C18.0586 21.6016 16.6523 21.9766 15.1172 21.9766ZM46.9219 21.9414H43.0547V15.2266H29.0977V21.9414H25.2305V13.0938C25.2305 11.5469 25.6055 10.1523 26.3672 8.875C27.1289 7.59766 28.1367 6.58984 29.4141 5.82812C30.6797 5.06641 32.0859 4.69141 33.6328 4.69141H38.5195C40.0664 4.69141 41.4727 5.06641 42.7383 5.82812C44.0156 6.58984 45.0352 7.59766 45.7852 8.875C46.5469 10.1523 46.9219 11.5469 46.9219 13.0938V21.9414ZM42.6797 11.3125C42.3164 10.4922 41.7656 9.82422 41.0273 9.32031C40.2891 8.81641 39.4453 8.55859 38.5195 8.55859H33.6328C32.707 8.55859 31.875 8.81641 31.125 9.32031C30.3867 9.82422 29.8359 10.4922 29.4727 11.3125H42.6797ZM70.3359 21.9297H66.457V13.082C66.457 12.25 66.2578 11.5 65.8477 10.8086C65.4375 10.1289 64.8867 9.57812 64.1953 9.16797C63.5156 8.75781 62.7539 8.54688 61.9336 8.54688H61.4531V15.2148H57.5039V8.54688H52.5117V21.9297H48.6328V4.67969H61.9336C63.4688 4.67969 64.875 5.05469 66.1523 5.81641C67.418 6.57812 68.4375 7.58594 69.1875 8.86328C69.9492 10.1406 70.3359 11.5352 70.3359 13.082V21.9297ZM93.9492 22.0469H80.6602C79.1133 22.0469 77.707 21.6719 76.4414 20.9102C75.1641 20.1484 74.1562 19.1406 73.3945 17.8633C72.6328 16.5859 72.2578 15.1797 72.2578 13.6445V13.1992C72.2578 11.6523 72.6328 10.2578 73.3945 8.98047C74.1562 7.70312 75.1641 6.69531 76.4414 5.93359C77.707 5.17188 79.1133 4.79688 80.6602 4.79688H85.5469C87.0938 4.79688 88.5 5.17188 89.7656 5.93359C91.043 6.69531 92.0508 7.70312 92.8125 8.98047C93.5742 10.2578 93.9492 11.6523 93.9492 13.1992V15.3438H76.4648C76.8164 16.1875 77.3672 16.8672 78.1172 17.3945C78.8672 17.9102 79.7109 18.1797 80.6602 18.1797H90.082L93.9492 22.0469ZM89.6836 11.3945C89.3203 10.5508 88.7344 9.89453 87.9492 9.40234C87.1641 8.91016 86.3672 8.66406 85.5469 8.66406H80.6602C79.7344 8.66406 78.9023 8.92188 78.1641 9.42578C77.4258 9.92969 76.875 10.5859 76.5117 11.3945H89.6836Z" fill="#835AE0"/>
<path d="M9.88281 38.9688H1.17188L3.75 36.3828V36.3906H10.0312C10.6562 36.3906 11.2188 36.2109 11.7188 35.8672C12.2188 35.5234 12.5859 35.0703 12.8203 34.5078H1.3125C1.21875 34.0938 1.17188 33.6641 1.17188 33.2188C1.17969 32.1562 1.44531 31.1875 1.95312 30.3203C2.46875 29.4609 3.15625 28.7734 4.02344 28.2578C4.88281 27.7422 5.85156 27.4844 6.91406 27.4688H15.6328L13.0469 30.0547V30.0469H6.76562C6.14844 30.0469 5.58594 30.2188 5.09375 30.5625C4.59375 30.9062 4.22656 31.3516 3.98438 31.8984H15.5156C15.5703 32.1328 15.6094 32.375 15.6328 32.625L15.6094 32.7344C15.625 32.8906 15.6328 33.0547 15.6328 33.2188C15.6172 34.2891 15.3594 35.25 14.8438 36.1172C14.3281 36.9766 13.6406 37.6641 12.7812 38.1797C11.9141 38.6953 10.9531 38.9531 9.88281 38.9688ZM27.7422 27.4688C28.3906 27.4688 28.9766 27.6328 29.5156 27.9453C30.0469 28.2656 30.4766 28.6953 30.7891 29.2266C31.1094 29.7578 31.2656 30.3516 31.2656 31C31.2656 31.6406 31.1094 32.2344 30.7891 32.7656C30.4766 33.3047 30.0469 33.7266 29.5156 34.0469C28.9766 34.3672 28.3906 34.5234 27.7422 34.5234H22.0391H19.4297V38.9844H16.7969V30.0781V27.4844V27.4688C16.7969 27.4688 16.8203 27.4688 16.8516 27.4688H27.7422ZM27.7422 31.9062C27.9922 31.9062 28.2031 31.8203 28.3828 31.6406C28.5625 31.4609 28.6484 31.2422 28.6484 31C28.6484 30.75 28.5625 30.5391 28.3828 30.3594C28.2031 30.1797 27.9922 30.0859 27.7422 30.0859H19.4219V31.9062V34.5234L22.0391 31.9062H27.7422ZM46.9531 38.9688H44.3203V32.3906L42.2656 34.5H35.0703V38.9688H32.4375V27.4688H35.0703V31.8672H44.3203V27.4688H46.9531V38.9688ZM62.6641 39.0312H53.8047C52.7734 39.0312 51.8359 38.7812 50.9922 38.2734C50.1406 37.7656 49.4688 37.0938 48.9609 36.2422C48.4531 35.3906 48.2031 34.4531 48.2031 33.4297V33.1328C48.2031 32.1016 48.4531 31.1719 48.9609 30.3203C49.4688 29.4688 50.1406 28.7969 50.9922 28.2891C51.8359 27.7812 52.7734 27.5312 53.8047 27.5312H57.0625C58.0938 27.5312 59.0312 27.7812 59.875 28.2891C60.7266 28.7969 61.3984 29.4688 61.9062 30.3203C62.4141 31.1719 62.6641 32.1016 62.6641 33.1328V34.5625H51.0078C51.2422 35.125 51.6094 35.5781 52.1094 35.9297C52.6094 36.2734 53.1719 36.4531 53.8047 36.4531H60.0859L62.6641 39.0312ZM59.8203 31.9297C59.5781 31.3672 59.1875 30.9297 58.6641 30.6016C58.1406 30.2734 57.6094 30.1094 57.0625 30.1094H53.8047C53.1875 30.1094 52.6328 30.2812 52.1406 30.6172C51.6484 30.9531 51.2812 31.3906 51.0391 31.9297H59.8203ZM73.8359 34.4844V34.4922H73.2188L77.0938 38.9453H73.4922L67.4922 31.8672C68.8203 31.8672 70.1406 31.8672 71.4609 31.8672H73.3438H73.8359H74.7109C74.9609 31.8672 75.1719 31.7812 75.3516 31.6016C75.5312 31.4219 75.625 31.2031 75.625 30.9609C75.625 30.7109 75.5312 30.5 75.3516 30.3203C75.1719 30.1406 74.9609 30.0469 74.7109 30.0469H66.3906V31.8672V34.4844L66.4062 34.4688V34.4844H66.3984V38.9453H63.7656V30.0391V27.4453V27.4297C63.7656 27.4297 63.7891 27.4297 63.8203 27.4297H74.7109C75.3594 27.4297 75.9453 27.5938 76.4844 27.9062C77.0156 28.2266 77.4453 28.6562 77.7578 29.1875C78.0781 29.7188 78.2344 30.3125 78.2344 30.9609C78.2344 31.6016 78.0781 32.1953 77.7578 32.7266C77.4453 33.2656 77.0156 33.6875 76.4844 34.0078C75.9453 34.3281 75.3594 34.4844 74.7109 34.4844H73.8359ZM93.9453 39.0312H85.0859C84.0547 39.0312 83.1172 38.7812 82.2734 38.2734C81.4219 37.7656 80.75 37.0938 80.2422 36.2422C79.7344 35.3906 79.4844 34.4531 79.4844 33.4297V33.1328C79.4844 32.1016 79.7344 31.1719 80.2422 30.3203C80.75 29.4688 81.4219 28.7969 82.2734 28.2891C83.1172 27.7812 84.0547 27.5312 85.0859 27.5312H88.3438C89.375 27.5312 90.3125 27.7812 91.1562 28.2891C92.0078 28.7969 92.6797 29.4688 93.1875 30.3203C93.6953 31.1719 93.9453 32.1016 93.9453 33.1328V34.5625H82.2891C82.5234 35.125 82.8906 35.5781 83.3906 35.9297C83.8906 36.2734 84.4531 36.4531 85.0859 36.4531H91.3672L93.9453 39.0312ZM91.1016 31.9297C90.8594 31.3672 90.4688 30.9297 89.9453 30.6016C89.4219 30.2734 88.8906 30.1094 88.3438 30.1094H85.0859C84.4688 30.1094 83.9141 30.2812 83.4219 30.6172C82.9297 30.9531 82.5625 31.3906 82.3203 31.9297H91.1016Z" fill="#F2F4F7"/>
</svg>
