<svg width="152" height="34" viewBox="0 0 152 34" fill="none" xmlns="http://www.w3.org/2000/svg">
<path d="M18.5053 0.708252C18.5053 0.708252 21.2005 6.17204 20.7177 8.44519C20.7177 8.44519 27.7976 10.7184 28.5621 14.4675C28.5621 14.4275 32.4237 9.40229 18.5053 0.708252ZM15.7697 8.8839C16.4538 10.3199 16.7754 11.8752 17.1778 13.4705L13.1552 11.9548C13.5172 9.52213 11.1438 5.85298 11.1438 5.85298L15.7697 8.8839ZM8.60935 12.6329C9.05178 13.7894 9.57475 15.265 9.81612 16.5412L6.19544 15.664C6.5575 13.2312 4.26465 10.3199 4.26465 10.3199L8.60935 12.6329Z" fill="#F9FAFB"/>
<path d="M16.5335 6.81006C16.5335 6.81006 32.7452 18.0967 33.8313 22.4838C34.6357 25.794 32.3025 28.825 32.3025 28.825C32.3025 28.825 31.0556 20.2103 0 33.2917C3.13765 29.8217 4.8674 25.3552 4.38475 20.5692C4.1836 18.6151 3.70095 16.7408 2.85596 15.0657L10.1373 18.8543C10.1373 18.9738 10.1373 19.0936 10.1777 19.213C10.4591 22.1248 10.2581 24.9961 9.57435 27.6283C11.0628 24.5177 11.7868 20.968 11.4248 17.2988C11.2235 15.0656 10.6604 12.9518 9.7754 11.0376L17.5395 16.1821C17.5795 16.4214 17.5795 16.7007 17.6198 16.94C17.9416 20.1707 17.6198 23.3213 16.775 26.1926C18.5852 22.8428 19.5106 18.9341 19.1082 14.906C18.8263 11.9548 17.9412 9.24274 16.5335 6.81006Z" fill="#F9FAFB"/>
<path d="M38 16.2408C38 22.1196 42.6808 26.224 48.6295 25.9706C52.1889 25.8187 54.2856 24.4501 55.0169 24.0956V19.028H54.2856C53.6031 22.1194 51.7989 24.7037 48.6783 24.7037C44.8263 24.7037 41.8521 20.8018 41.8521 16.2407C41.8521 11.6801 44.8749 7.77791 48.6783 7.77791C51.7989 7.77791 53.6031 10.3118 54.2856 13.4534H55.0169V8.38615C54.2856 8.03165 52.1889 6.71394 48.6295 6.51111C42.6808 6.25773 38 10.3624 38 16.2408ZM66.0367 6.51099C60.8194 6.51099 56.7721 10.8692 56.7721 16.2915C56.7721 21.6632 60.8193 26.0719 66.0367 26.0719C71.2542 26.0719 75.3009 21.7137 75.3009 16.2915C75.3008 10.8692 71.254 6.51099 66.0367 6.51099ZM66.0367 24.8557C62.7698 24.8557 60.5757 20.8524 60.5757 16.2408C60.5757 11.6803 62.7698 7.626 66.0367 7.626C69.3036 7.626 71.4976 11.6293 71.4976 16.2408C71.4976 20.8017 69.3035 24.8557 66.0367 24.8557ZM96.5601 10.5145C96.5601 8.94372 98.1204 7.6768 99.7295 7.626C101.485 7.626 103.24 8.43695 104.167 11.9841H104.654V7.72771C103.923 7.47409 102.168 6.51099 99.6806 6.51099C96.6579 6.51099 93.6347 8.43683 93.6347 12.0349C93.6347 18.4706 102.119 17.2546 102.119 21.5619C102.119 23.7407 100.851 24.7547 98.9008 24.7547C96.9993 24.7547 94.805 23.1328 94.0734 19.8897H93.4394V24.5519C94.2197 24.8051 96.2188 26.0214 98.803 26.0214C103.289 26.0214 105.483 22.9301 105.483 20.1428C105.532 13.2511 96.5601 15.3285 96.5601 10.5145ZM130.302 8.84212C130.302 8.43683 130.546 8.08209 130.838 7.8795L132.008 7.22071V6.91665H125.036V7.22071L126.206 7.8795C126.548 8.08197 126.742 8.43683 126.742 8.84212V23.6901C126.742 24.0958 126.499 24.4501 126.206 24.653L125.036 25.3121V25.6161H132.008V25.3121L130.838 24.653C130.497 24.4503 130.302 24.0958 130.302 23.6901V8.84212ZM75.447 6.91677V7.22083L76.6176 7.87962C76.9587 8.08209 77.1539 8.43695 77.1539 8.84224V23.6902C77.1539 24.0959 76.9101 24.4502 76.6176 24.6532L75.447 25.3122V25.6163H82.4201V25.3122L81.2496 24.6532C80.9083 24.4504 80.7132 24.0959 80.7132 23.6902V8.84212C80.7132 8.58898 80.8107 8.38627 80.9083 8.18357C81.0058 8.03165 81.152 7.98074 81.3471 7.98074H83.59C84.955 7.98074 86.4182 9.65307 86.4182 11.7308V12.7949C86.4182 14.8724 85.1017 16.2915 83.59 16.2915H82.2247C82.2247 16.2915 86.6129 24.1461 87.2959 25.0078C88.271 26.2748 91.4892 27.947 93.9759 27.3897C91.5378 26.0214 89.2462 21.6635 87.3444 18.0146C86.3205 17.8627 85.638 17.508 85.1992 17.2039C89.0511 17.2039 90.0264 13.9098 90.0264 12.2884C90.0264 7.87974 87.0521 6.96732 83.6879 6.96732H75.4471L75.447 6.91677ZM133.471 6.91677V7.22083L134.641 7.87962C134.983 8.08209 135.178 8.43695 135.178 8.84224V23.6902C135.178 24.0959 134.934 24.4502 134.641 24.6532L133.471 25.3122V25.6163H140.444V25.3122L139.273 24.6532C138.932 24.4504 138.737 24.0959 138.737 23.6902V8.84212C138.737 8.58898 138.835 8.38627 138.932 8.18357C139.03 8.03165 139.176 7.98074 139.371 7.98074H141.614C142.979 7.98074 144.442 9.65307 144.442 11.7308V12.7949C144.442 14.8724 143.125 16.2915 141.614 16.2915H140.249C140.249 16.2915 144.637 24.1461 145.32 25.0078C146.295 26.2748 149.513 27.947 152 27.3897C149.562 26.0214 147.27 21.6635 145.368 18.0146C144.345 17.8627 143.662 17.508 143.223 17.2039C147.075 17.2039 148.05 13.9098 148.05 12.2884C148.05 7.87974 145.076 6.96732 141.712 6.96732H133.471L133.471 6.91677ZM122.939 24.6529C122.695 24.501 122.549 24.2979 122.451 24.0957L115.82 6.91677H113.675L107.044 24.0957C106.946 24.3489 106.8 24.5517 106.556 24.6529L105.386 25.3119V25.616H110.749V25.3119L109.726 24.7547C109.384 24.5519 109.14 24.1969 109.14 23.741C109.14 23.5891 109.189 23.4369 109.238 23.3357L110.701 19.5856H116.942L118.405 23.3357C118.454 23.4369 118.454 23.5888 118.454 23.6902C118.454 24.0452 118.308 24.3491 118.064 24.5519C118.015 24.6022 117.966 24.6022 117.917 24.6532L116.747 25.3122V25.6163H124.11V25.3122L122.939 24.6529ZM111.139 18.2173L113.724 11.5281L116.308 18.2173H111.139Z" fill="#F9FAFB"/>
</svg>
