<svg width="76" height="75" viewBox="0 0 76 75" fill="none" xmlns="http://www.w3.org/2000/svg">
<g clip-path="url(#clip0_945_8504)">
<path d="M6.75 62.5H69.25V68.75H6.75V62.5ZM13 37.5H19.25V59.375H13V37.5ZM28.625 37.5H34.875V59.375H28.625V37.5ZM41.125 37.5H47.375V59.375H41.125V37.5ZM56.75 37.5H63V59.375H56.75V37.5ZM6.75 21.875L38 6.25L69.25 21.875V34.375H6.75V21.875ZM13 25.7375V28.125H63V25.7375L38 13.2375L13 25.7375ZM38 25C37.1712 25 36.3763 24.6708 35.7903 24.0847C35.2042 23.4987 34.875 22.7038 34.875 21.875C34.875 21.0462 35.2042 20.2513 35.7903 19.6653C36.3763 19.0792 37.1712 18.75 38 18.75C38.8288 18.75 39.6237 19.0792 40.2097 19.6653C40.7958 20.2513 41.125 21.0462 41.125 21.875C41.125 22.7038 40.7958 23.4987 40.2097 24.0847C39.6237 24.6708 38.8288 25 38 25Z" fill="#F2F4F7"/>
</g>
<defs>
<clipPath id="clip0_945_8504">
<rect width="75" height="75" fill="white" transform="translate(0.5)"/>
</clipPath>
</defs>
</svg>
