<svg width="44" height="44" viewBox="0 0 44 44" fill="none" xmlns="http://www.w3.org/2000/svg">
<g clip-path="url(#clip0_398_4837)">
<path d="M3.66602 36.6667H40.3327V40.3333H3.66602V36.6667ZM7.33268 22H10.9993V34.8333H7.33268V22ZM16.4993 22H20.166V34.8333H16.4993V22ZM23.8327 22H27.4993V34.8333H23.8327V22ZM32.9993 22H36.666V34.8333H32.9993V22ZM3.66602 12.8333L21.9993 3.66667L40.3327 12.8333V20.1667H3.66602V12.8333ZM7.33268 15.0993V16.5H36.666V15.0993L21.9993 7.76601L7.33268 15.0993ZM21.9993 14.6667C21.5131 14.6667 21.0468 14.4735 20.703 14.1297C20.3592 13.7859 20.166 13.3196 20.166 12.8333C20.166 12.3471 20.3592 11.8808 20.703 11.537C21.0468 11.1932 21.5131 11 21.9993 11C22.4856 11 22.9519 11.1932 23.2957 11.537C23.6395 11.8808 23.8327 12.3471 23.8327 12.8333C23.8327 13.3196 23.6395 13.7859 23.2957 14.1297C22.9519 14.4735 22.4856 14.6667 21.9993 14.6667Z" fill="#F2F4F7"/>
</g>
<defs>
<clipPath id="clip0_398_4837">
<rect width="44" height="44" fill="white"/>
</clipPath>
</defs>
</svg>
