<svg width="44" height="44" viewBox="0 0 44 44" fill="none" xmlns="http://www.w3.org/2000/svg">
<path d="M40.3346 31.1703C40.3338 33.6775 39.4768 36.1092 37.9055 38.0629C36.3342 40.0166 34.1428 41.3752 31.6941 41.9136L30.5245 38.4046C31.5956 38.2282 32.6142 37.8164 33.5069 37.1988C34.3997 36.5812 35.1443 35.7733 35.6871 34.8333H31.168C30.1955 34.8333 29.2629 34.447 28.5752 33.7593C27.8876 33.0717 27.5013 32.1391 27.5013 31.1666V23.8333C27.5013 22.8608 27.8876 21.9282 28.5752 21.2406C29.2629 20.5529 30.1955 20.1666 31.168 20.1666H36.5543C36.1069 16.6226 34.3817 13.3636 31.7022 11.0012C29.0228 8.63876 25.5735 7.33525 22.0013 7.33525C18.4291 7.33525 14.9798 8.63876 12.3004 11.0012C9.62095 13.3636 7.89569 16.6226 7.4483 20.1666H12.8346C13.8071 20.1666 14.7397 20.5529 15.4274 21.2406C16.115 21.9282 16.5013 22.8608 16.5013 23.8333V31.1666C16.5013 32.1391 16.115 33.0717 15.4274 33.7593C14.7397 34.447 13.8071 34.8333 12.8346 34.8333H7.33464C6.36217 34.8333 5.42954 34.447 4.74191 33.7593C4.05428 33.0717 3.66797 32.1391 3.66797 31.1666V21.9999C3.66797 11.8744 11.8758 3.66661 22.0013 3.66661C32.1268 3.66661 40.3346 11.8744 40.3346 21.9999V31.1703ZM36.668 31.1666V23.8333H31.168V31.1666H36.668ZM7.33464 23.8333V31.1666H12.8346V23.8333H7.33464Z" fill="#F2F4F7"/>
</svg>
