<svg width="76" height="75" viewBox="0 0 76 75" fill="none" xmlns="http://www.w3.org/2000/svg">
<g clip-path="url(#clip0_945_6742)">
<path d="M55.1875 65.625C52.2867 65.625 49.5047 64.4727 47.4535 62.4215C45.4023 60.3703 44.25 57.5883 44.25 54.6875C44.25 51.7867 45.4023 49.0047 47.4535 46.9535C49.5047 44.9023 52.2867 43.75 55.1875 43.75C58.0883 43.75 60.8703 44.9023 62.9215 46.9535C64.9727 49.0047 66.125 51.7867 66.125 54.6875C66.125 57.5883 64.9727 60.3703 62.9215 62.4215C60.8703 64.4727 58.0883 65.625 55.1875 65.625V65.625ZM55.1875 59.375C56.4307 59.375 57.623 58.8811 58.5021 58.0021C59.3811 57.123 59.875 55.9307 59.875 54.6875C59.875 53.4443 59.3811 52.252 58.5021 51.3729C57.623 50.4939 56.4307 50 55.1875 50C53.9443 50 52.752 50.4939 51.8729 51.3729C50.9939 52.252 50.5 53.4443 50.5 54.6875C50.5 55.9307 50.9939 57.123 51.8729 58.0021C52.752 58.8811 53.9443 59.375 55.1875 59.375ZM20.8125 31.25C19.3762 31.25 17.9539 30.9671 16.6269 30.4174C15.2999 29.8678 14.0942 29.0621 13.0785 28.0465C12.0629 27.0308 11.2572 25.8251 10.7076 24.4981C10.1579 23.1711 9.875 21.7488 9.875 20.3125C9.875 18.8762 10.1579 17.4539 10.7076 16.1269C11.2572 14.7999 12.0629 13.5942 13.0785 12.5785C14.0942 11.5629 15.2999 10.7572 16.6269 10.2076C17.9539 9.65791 19.3762 9.375 20.8125 9.375C23.7133 9.375 26.4953 10.5273 28.5465 12.5785C30.5977 14.6297 31.75 17.4117 31.75 20.3125C31.75 23.2133 30.5977 25.9953 28.5465 28.0465C26.4953 30.0977 23.7133 31.25 20.8125 31.25V31.25ZM20.8125 25C22.0557 25 23.248 24.5061 24.1271 23.6271C25.0061 22.748 25.5 21.5557 25.5 20.3125C25.5 19.0693 25.0061 17.877 24.1271 16.9979C23.248 16.1189 22.0557 15.625 20.8125 15.625C19.5693 15.625 18.377 16.1189 17.4979 16.9979C16.6189 17.877 16.125 19.0693 16.125 20.3125C16.125 21.5557 16.6189 22.748 17.4979 23.6271C18.377 24.5061 19.5693 25 20.8125 25V25ZM60.0969 10.9844L64.5156 15.4031L15.9062 64.0156L11.4875 59.5969L60.0937 10.9844H60.0969Z" fill="#F2F4F7"/>
</g>
<defs>
<clipPath id="clip0_945_6742">
<rect width="75" height="75" fill="white" transform="translate(0.5)"/>
</clipPath>
</defs>
</svg>
