<svg width="14" height="14" viewBox="0 0 14 14" fill="none" xmlns="http://www.w3.org/2000/svg">
<g clip-path="url(#clip0_2351_15569)">
<path d="M3.59852 10.5C3.71903 10.1584 3.94253 9.86265 4.2382 9.65345C4.53387 9.44424 4.88715 9.33189 5.24935 9.33189C5.61155 9.33189 5.96483 9.44424 6.2605 9.65345C6.55617 9.86265 6.77966 10.1584 6.90018 10.5H12.8327V11.6667H6.90018C6.77966 12.0082 6.55617 12.304 6.2605 12.5132C5.96483 12.7224 5.61155 12.8347 5.24935 12.8347C4.88715 12.8347 4.53387 12.7224 4.2382 12.5132C3.94253 12.304 3.71903 12.0082 3.59852 11.6667H1.16602V10.5H3.59852ZM7.09852 6.41665C7.21903 6.07509 7.44253 5.77932 7.7382 5.57011C8.03387 5.3609 8.38715 5.24856 8.74935 5.24856C9.11155 5.24856 9.46483 5.3609 9.7605 5.57011C10.0562 5.77932 10.2797 6.07509 10.4002 6.41665H12.8327V7.58332H10.4002C10.2797 7.92488 10.0562 8.22065 9.7605 8.42986C9.46483 8.63907 9.11155 8.75141 8.74935 8.75141C8.38715 8.75141 8.03387 8.63907 7.7382 8.42986C7.44253 8.22065 7.21903 7.92488 7.09852 7.58332H1.16602V6.41665H7.09852ZM3.59852 2.33332C3.71903 1.99176 3.94253 1.69599 4.2382 1.48678C4.53387 1.27757 4.88715 1.16522 5.24935 1.16522C5.61155 1.16522 5.96483 1.27757 6.2605 1.48678C6.55617 1.69599 6.77966 1.99176 6.90018 2.33332H12.8327V3.49998H6.90018C6.77966 3.84155 6.55617 4.13732 6.2605 4.34652C5.96483 4.55573 5.61155 4.66808 5.24935 4.66808C4.88715 4.66808 4.53387 4.55573 4.2382 4.34652C3.94253 4.13732 3.71903 3.84155 3.59852 3.49998H1.16602V2.33332H3.59852ZM5.24935 3.49998C5.40406 3.49998 5.55243 3.43853 5.66183 3.32913C5.77122 3.21973 5.83268 3.07136 5.83268 2.91665C5.83268 2.76194 5.77122 2.61357 5.66183 2.50417C5.55243 2.39478 5.40406 2.33332 5.24935 2.33332C5.09464 2.33332 4.94627 2.39478 4.83687 2.50417C4.72747 2.61357 4.66602 2.76194 4.66602 2.91665C4.66602 3.07136 4.72747 3.21973 4.83687 3.32913C4.94627 3.43853 5.09464 3.49998 5.24935 3.49998V3.49998ZM8.74935 7.58332C8.90406 7.58332 9.05243 7.52186 9.16183 7.41246C9.27122 7.30307 9.33268 7.15469 9.33268 6.99999C9.33268 6.84528 9.27122 6.6969 9.16183 6.58751C9.05243 6.47811 8.90406 6.41665 8.74935 6.41665C8.59464 6.41665 8.44627 6.47811 8.33687 6.58751C8.22747 6.6969 8.16602 6.84528 8.16602 6.99999C8.16602 7.15469 8.22747 7.30307 8.33687 7.41246C8.44627 7.52186 8.59464 7.58332 8.74935 7.58332V7.58332ZM5.24935 11.6667C5.40406 11.6667 5.55243 11.6052 5.66183 11.4958C5.77122 11.3864 5.83268 11.238 5.83268 11.0833C5.83268 10.9286 5.77122 10.7802 5.66183 10.6708C5.55243 10.5614 5.40406 10.5 5.24935 10.5C5.09464 10.5 4.94627 10.5614 4.83687 10.6708C4.72747 10.7802 4.66602 10.9286 4.66602 11.0833C4.66602 11.238 4.72747 11.3864 4.83687 11.4958C4.94627 11.6052 5.09464 11.6667 5.24935 11.6667V11.6667Z" fill="#F9FAFB"/>
</g>
<defs>
<clipPath id="clip0_2351_15569">
<rect width="14" height="14" fill="white"/>
</clipPath>
</defs>
</svg>
