<svg width="296" height="344" viewBox="0 0 296 344" fill="none" xmlns="http://www.w3.org/2000/svg">
<path d="M301.433 81.7212L377.491 38.0204C379.043 37.1286 380 35.4751 380 33.685V-53.6859C380 -55.4754 379.044 -57.1284 377.492 -58.0204L301.492 -101.72C299.949 -102.608 298.051 -102.608 296.508 -101.72L297.006 -100.854L296.508 -101.72L220.508 -58.0204C218.956 -57.1284 218 -55.4754 218 -53.6859V33.6867C218 35.4757 218.956 37.1283 220.506 38.0205L296.449 81.7196C297.991 82.6074 299.89 82.608 301.433 81.7212Z" stroke="#854EFF" stroke-width="2"/>
<path d="M301.184 81.2877L377.242 37.5868C378.639 36.7842 379.5 35.2961 379.5 33.685V-53.6859C379.5 -55.2964 378.639 -56.7842 377.243 -57.587L301.243 -101.287C299.854 -102.086 298.146 -102.086 296.757 -101.287L220.757 -57.587C219.361 -56.7842 218.5 -55.2964 218.5 -53.6859V33.6867C218.5 35.2968 219.36 36.7841 220.756 37.5871L296.698 81.2863C298.086 82.0853 299.795 82.0858 301.184 81.2877Z" stroke="#D9C8FF"/>
<g filter="url(#filter0_f_1565_17731)">
<path d="M301.433 81.7212L377.491 38.0204C379.043 37.1286 380 35.4751 380 33.685V-53.6859C380 -55.4754 379.044 -57.1284 377.492 -58.0204L301.492 -101.72C299.949 -102.608 298.051 -102.608 296.508 -101.72L297.006 -100.854L296.508 -101.72L220.508 -58.0204C218.956 -57.1284 218 -55.4754 218 -53.6859V33.6867C218 35.4757 218.956 37.1283 220.506 38.0205L296.449 81.7196C297.991 82.6074 299.89 82.608 301.433 81.7212Z" stroke="#854EFF" stroke-width="2"/>
</g>
<g filter="url(#filter1_f_1565_17731)">
<path d="M301.433 81.7212L377.491 38.0204C379.043 37.1286 380 35.4751 380 33.685V-53.6859C380 -55.4754 379.044 -57.1284 377.492 -58.0204L301.492 -101.72C299.949 -102.608 298.051 -102.608 296.508 -101.72L297.006 -100.854L296.508 -101.72L220.508 -58.0204C218.956 -57.1284 218 -55.4754 218 -53.6859V33.6867C218 35.4757 218.956 37.1283 220.506 38.0205L296.449 81.7196C297.991 82.6074 299.89 82.608 301.433 81.7212Z" stroke="#854EFF" stroke-width="2"/>
</g>
<g filter="url(#filter2_f_1565_17731)">
<path d="M301.433 81.7212L377.491 38.0204C379.043 37.1286 380 35.4751 380 33.685V-53.6859C380 -55.4754 379.044 -57.1284 377.492 -58.0204L301.492 -101.72C299.949 -102.608 298.051 -102.608 296.508 -101.72L297.006 -100.854L296.508 -101.72L220.508 -58.0204C218.956 -57.1284 218 -55.4754 218 -53.6859V33.6867C218 35.4757 218.956 37.1283 220.506 38.0205L296.449 81.7196C297.991 82.6074 299.89 82.608 301.433 81.7212Z" stroke="#854EFF" stroke-width="2"/>
</g>
<g filter="url(#filter3_f_1565_17731)">
<path d="M301.433 81.7212L377.491 38.0204C379.043 37.1286 380 35.4751 380 33.685V-53.6859C380 -55.4754 379.044 -57.1284 377.492 -58.0204L301.492 -101.72C299.949 -102.608 298.051 -102.608 296.508 -101.72L297.006 -100.854L296.508 -101.72L220.508 -58.0204C218.956 -57.1284 218 -55.4754 218 -53.6859V33.6867C218 35.4757 218.956 37.1283 220.506 38.0205L296.449 81.7196C297.991 82.6074 299.89 82.608 301.433 81.7212Z" stroke="#854EFF" stroke-width="2"/>
</g>
<path d="M217.433 226.721L293.491 183.02C295.043 182.129 296 180.475 296 178.685V91.3141C296 89.5246 295.044 87.8716 293.492 86.9796L217.492 43.2796C215.949 42.3923 214.051 42.3923 212.508 43.2796L213.006 44.1465L212.508 43.2796L136.508 86.9796C134.956 87.8716 134 89.5246 134 91.3141V178.687C134 180.476 134.956 182.128 136.506 183.02L212.449 226.72C213.991 227.607 215.89 227.608 217.433 226.721Z" stroke="#854EFF" stroke-width="2"/>
<path d="M217.184 226.288L293.242 182.587C294.639 181.784 295.5 180.296 295.5 178.685V91.3141C295.5 89.7036 294.639 88.2158 293.243 87.413L217.243 43.713C215.854 42.9145 214.146 42.9145 212.757 43.713L136.757 87.413C135.361 88.2158 134.5 89.7036 134.5 91.3141V178.687C134.5 180.297 135.36 181.784 136.756 182.587L212.698 226.286C214.086 227.085 215.795 227.086 217.184 226.288Z" stroke="#D9C8FF"/>
<g filter="url(#filter4_f_1565_17731)">
<path d="M217.433 226.721L293.491 183.02C295.043 182.129 296 180.475 296 178.685V91.3141C296 89.5246 295.044 87.8716 293.492 86.9796L217.492 43.2796C215.949 42.3923 214.051 42.3923 212.508 43.2796L213.006 44.1465L212.508 43.2796L136.508 86.9796C134.956 87.8716 134 89.5246 134 91.3141V178.687C134 180.476 134.956 182.128 136.506 183.02L212.449 226.72C213.991 227.607 215.89 227.608 217.433 226.721Z" stroke="#854EFF" stroke-width="2"/>
</g>
<g filter="url(#filter5_f_1565_17731)">
<path d="M217.433 226.721L293.491 183.02C295.043 182.129 296 180.475 296 178.685V91.3141C296 89.5246 295.044 87.8716 293.492 86.9796L217.492 43.2796C215.949 42.3923 214.051 42.3923 212.508 43.2796L213.006 44.1465L212.508 43.2796L136.508 86.9796C134.956 87.8716 134 89.5246 134 91.3141V178.687C134 180.476 134.956 182.128 136.506 183.02L212.449 226.72C213.991 227.607 215.89 227.608 217.433 226.721Z" stroke="#854EFF" stroke-width="2"/>
</g>
<g filter="url(#filter6_f_1565_17731)">
<path d="M217.433 226.721L293.491 183.02C295.043 182.129 296 180.475 296 178.685V91.3141C296 89.5246 295.044 87.8716 293.492 86.9796L217.492 43.2796C215.949 42.3923 214.051 42.3923 212.508 43.2796L213.006 44.1465L212.508 43.2796L136.508 86.9796C134.956 87.8716 134 89.5246 134 91.3141V178.687C134 180.476 134.956 182.128 136.506 183.02L212.449 226.72C213.991 227.607 215.89 227.608 217.433 226.721Z" stroke="#854EFF" stroke-width="2"/>
</g>
<g filter="url(#filter7_f_1565_17731)">
<path d="M217.433 226.721L293.491 183.02C295.043 182.129 296 180.475 296 178.685V91.3141C296 89.5246 295.044 87.8716 293.492 86.9796L217.492 43.2796C215.949 42.3923 214.051 42.3923 212.508 43.2796L213.006 44.1465L212.508 43.2796L136.508 86.9796C134.956 87.8716 134 89.5246 134 91.3141V178.687C134 180.476 134.956 182.128 136.506 183.02L212.449 226.72C213.991 227.607 215.89 227.608 217.433 226.721Z" stroke="#854EFF" stroke-width="2"/>
</g>
<path d="M302.433 373.721L378.491 330.02C380.043 329.129 381 327.475 381 325.685V238.314C381 236.525 380.044 234.872 378.492 233.98L302.492 190.28C300.949 189.392 299.051 189.392 297.508 190.28L298.006 191.146L297.508 190.28L221.508 233.98C219.956 234.872 219 236.525 219 238.314V325.687C219 327.476 219.956 329.128 221.506 330.02L297.449 373.72C298.991 374.607 300.89 374.608 302.433 373.721Z" stroke="#854EFF" stroke-width="2"/>
<path d="M302.184 373.288L378.242 329.587C379.639 328.784 380.5 327.296 380.5 325.685V238.314C380.5 236.704 379.639 235.216 378.243 234.413L302.243 190.713C300.854 189.914 299.146 189.914 297.757 190.713L221.757 234.413C220.361 235.216 219.5 236.704 219.5 238.314V325.687C219.5 327.297 220.36 328.784 221.756 329.587L297.698 373.286C299.086 374.085 300.795 374.086 302.184 373.288Z" stroke="#D9C8FF"/>
<g filter="url(#filter8_f_1565_17731)">
<path d="M302.433 373.721L378.491 330.02C380.043 329.129 381 327.475 381 325.685V238.314C381 236.525 380.044 234.872 378.492 233.98L302.492 190.28C300.949 189.392 299.051 189.392 297.508 190.28L298.006 191.146L297.508 190.28L221.508 233.98C219.956 234.872 219 236.525 219 238.314V325.687C219 327.476 219.956 329.128 221.506 330.02L297.449 373.72C298.991 374.607 300.89 374.608 302.433 373.721Z" stroke="#854EFF" stroke-width="2"/>
</g>
<g filter="url(#filter9_f_1565_17731)">
<path d="M302.433 373.721L378.491 330.02C380.043 329.129 381 327.475 381 325.685V238.314C381 236.525 380.044 234.872 378.492 233.98L302.492 190.28C300.949 189.392 299.051 189.392 297.508 190.28L298.006 191.146L297.508 190.28L221.508 233.98C219.956 234.872 219 236.525 219 238.314V325.687C219 327.476 219.956 329.128 221.506 330.02L297.449 373.72C298.991 374.607 300.89 374.608 302.433 373.721Z" stroke="#854EFF" stroke-width="2"/>
</g>
<g filter="url(#filter10_f_1565_17731)">
<path d="M302.433 373.721L378.491 330.02C380.043 329.129 381 327.475 381 325.685V238.314C381 236.525 380.044 234.872 378.492 233.98L302.492 190.28C300.949 189.392 299.051 189.392 297.508 190.28L298.006 191.146L297.508 190.28L221.508 233.98C219.956 234.872 219 236.525 219 238.314V325.687C219 327.476 219.956 329.128 221.506 330.02L297.449 373.72C298.991 374.607 300.89 374.608 302.433 373.721Z" stroke="#854EFF" stroke-width="2"/>
</g>
<g filter="url(#filter11_f_1565_17731)">
<path d="M302.433 373.721L378.491 330.02C380.043 329.129 381 327.475 381 325.685V238.314C381 236.525 380.044 234.872 378.492 233.98L302.492 190.28C300.949 189.392 299.051 189.392 297.508 190.28L298.006 191.146L297.508 190.28L221.508 233.98C219.956 234.872 219 236.525 219 238.314V325.687C219 327.476 219.956 329.128 221.506 330.02L297.449 373.72C298.991 374.607 300.89 374.608 302.433 373.721Z" stroke="#854EFF" stroke-width="2"/>
</g>
<path d="M134.433 373.721L210.491 330.02C212.043 329.129 213 327.475 213 325.685V238.314C213 236.525 212.044 234.872 210.492 233.98L134.492 190.28C132.949 189.392 131.051 189.392 129.508 190.28L130.006 191.146L129.508 190.28L53.5076 233.98C51.9563 234.872 51 236.525 51 238.314V325.687C51 327.476 51.9557 329.128 53.5063 330.02L129.449 373.72C130.991 374.607 132.89 374.608 134.433 373.721Z" stroke="#854EFF" stroke-width="2"/>
<path d="M134.184 373.288L210.242 329.587C211.639 328.784 212.5 327.296 212.5 325.685V238.314C212.5 236.704 211.639 235.216 210.243 234.413L134.243 190.713C132.854 189.914 131.146 189.914 129.757 190.713L53.7569 234.413C52.3607 235.216 51.5 236.704 51.5 238.314V325.687C51.5 327.297 52.3602 328.784 53.7556 329.587L129.698 373.286C131.086 374.085 132.795 374.086 134.184 373.288Z" stroke="#D9C8FF"/>
<g filter="url(#filter12_f_1565_17731)">
<path d="M134.433 373.721L210.491 330.02C212.043 329.129 213 327.475 213 325.685V238.314C213 236.525 212.044 234.872 210.492 233.98L134.492 190.28C132.949 189.392 131.051 189.392 129.508 190.28L130.006 191.146L129.508 190.28L53.5076 233.98C51.9563 234.872 51 236.525 51 238.314V325.687C51 327.476 51.9557 329.128 53.5063 330.02L129.449 373.72C130.991 374.607 132.89 374.608 134.433 373.721Z" stroke="#854EFF" stroke-width="2"/>
</g>
<g filter="url(#filter13_f_1565_17731)">
<path d="M134.433 373.721L210.491 330.02C212.043 329.129 213 327.475 213 325.685V238.314C213 236.525 212.044 234.872 210.492 233.98L134.492 190.28C132.949 189.392 131.051 189.392 129.508 190.28L130.006 191.146L129.508 190.28L53.5076 233.98C51.9563 234.872 51 236.525 51 238.314V325.687C51 327.476 51.9557 329.128 53.5063 330.02L129.449 373.72C130.991 374.607 132.89 374.608 134.433 373.721Z" stroke="#854EFF" stroke-width="2"/>
</g>
<g filter="url(#filter14_f_1565_17731)">
<path d="M134.433 373.721L210.491 330.02C212.043 329.129 213 327.475 213 325.685V238.314C213 236.525 212.044 234.872 210.492 233.98L134.492 190.28C132.949 189.392 131.051 189.392 129.508 190.28L130.006 191.146L129.508 190.28L53.5076 233.98C51.9563 234.872 51 236.525 51 238.314V325.687C51 327.476 51.9557 329.128 53.5063 330.02L129.449 373.72C130.991 374.607 132.89 374.608 134.433 373.721Z" stroke="#854EFF" stroke-width="2"/>
</g>
<g filter="url(#filter15_f_1565_17731)">
<path d="M134.433 373.721L210.491 330.02C212.043 329.129 213 327.475 213 325.685V238.314C213 236.525 212.044 234.872 210.492 233.98L134.492 190.28C132.949 189.392 131.051 189.392 129.508 190.28L130.006 191.146L129.508 190.28L53.5076 233.98C51.9563 234.872 51 236.525 51 238.314V325.687C51 327.476 51.9557 329.128 53.5063 330.02L129.449 373.72C130.991 374.607 132.89 374.608 134.433 373.721Z" stroke="#854EFF" stroke-width="2"/>
</g>
<defs>
<filter id="filter0_f_1565_17731" x="167" y="-153.386" width="264" height="286.772" filterUnits="userSpaceOnUse" color-interpolation-filters="sRGB">
<feFlood flood-opacity="0" result="BackgroundImageFix"/>
<feBlend mode="normal" in="SourceGraphic" in2="BackgroundImageFix" result="shape"/>
<feGaussianBlur stdDeviation="25" result="effect1_foregroundBlur_1565_17731"/>
</filter>
<filter id="filter1_f_1565_17731" x="197" y="-123.386" width="204" height="226.772" filterUnits="userSpaceOnUse" color-interpolation-filters="sRGB">
<feFlood flood-opacity="0" result="BackgroundImageFix"/>
<feBlend mode="normal" in="SourceGraphic" in2="BackgroundImageFix" result="shape"/>
<feGaussianBlur stdDeviation="10" result="effect1_foregroundBlur_1565_17731"/>
</filter>
<filter id="filter2_f_1565_17731" x="202" y="-118.386" width="194" height="216.772" filterUnits="userSpaceOnUse" color-interpolation-filters="sRGB">
<feFlood flood-opacity="0" result="BackgroundImageFix"/>
<feBlend mode="normal" in="SourceGraphic" in2="BackgroundImageFix" result="shape"/>
<feGaussianBlur stdDeviation="7.5" result="effect1_foregroundBlur_1565_17731"/>
</filter>
<filter id="filter3_f_1565_17731" x="207" y="-113.386" width="184" height="206.772" filterUnits="userSpaceOnUse" color-interpolation-filters="sRGB">
<feFlood flood-opacity="0" result="BackgroundImageFix"/>
<feBlend mode="normal" in="SourceGraphic" in2="BackgroundImageFix" result="shape"/>
<feGaussianBlur stdDeviation="5" result="effect1_foregroundBlur_1565_17731"/>
</filter>
<filter id="filter4_f_1565_17731" x="83" y="-8.38586" width="264" height="286.772" filterUnits="userSpaceOnUse" color-interpolation-filters="sRGB">
<feFlood flood-opacity="0" result="BackgroundImageFix"/>
<feBlend mode="normal" in="SourceGraphic" in2="BackgroundImageFix" result="shape"/>
<feGaussianBlur stdDeviation="25" result="effect1_foregroundBlur_1565_17731"/>
</filter>
<filter id="filter5_f_1565_17731" x="113" y="21.6141" width="204" height="226.772" filterUnits="userSpaceOnUse" color-interpolation-filters="sRGB">
<feFlood flood-opacity="0" result="BackgroundImageFix"/>
<feBlend mode="normal" in="SourceGraphic" in2="BackgroundImageFix" result="shape"/>
<feGaussianBlur stdDeviation="10" result="effect1_foregroundBlur_1565_17731"/>
</filter>
<filter id="filter6_f_1565_17731" x="118" y="26.6141" width="194" height="216.772" filterUnits="userSpaceOnUse" color-interpolation-filters="sRGB">
<feFlood flood-opacity="0" result="BackgroundImageFix"/>
<feBlend mode="normal" in="SourceGraphic" in2="BackgroundImageFix" result="shape"/>
<feGaussianBlur stdDeviation="7.5" result="effect1_foregroundBlur_1565_17731"/>
</filter>
<filter id="filter7_f_1565_17731" x="123" y="31.6141" width="184" height="206.772" filterUnits="userSpaceOnUse" color-interpolation-filters="sRGB">
<feFlood flood-opacity="0" result="BackgroundImageFix"/>
<feBlend mode="normal" in="SourceGraphic" in2="BackgroundImageFix" result="shape"/>
<feGaussianBlur stdDeviation="5" result="effect1_foregroundBlur_1565_17731"/>
</filter>
<filter id="filter8_f_1565_17731" x="168" y="138.614" width="264" height="286.772" filterUnits="userSpaceOnUse" color-interpolation-filters="sRGB">
<feFlood flood-opacity="0" result="BackgroundImageFix"/>
<feBlend mode="normal" in="SourceGraphic" in2="BackgroundImageFix" result="shape"/>
<feGaussianBlur stdDeviation="25" result="effect1_foregroundBlur_1565_17731"/>
</filter>
<filter id="filter9_f_1565_17731" x="198" y="168.614" width="204" height="226.772" filterUnits="userSpaceOnUse" color-interpolation-filters="sRGB">
<feFlood flood-opacity="0" result="BackgroundImageFix"/>
<feBlend mode="normal" in="SourceGraphic" in2="BackgroundImageFix" result="shape"/>
<feGaussianBlur stdDeviation="10" result="effect1_foregroundBlur_1565_17731"/>
</filter>
<filter id="filter10_f_1565_17731" x="203" y="173.614" width="194" height="216.772" filterUnits="userSpaceOnUse" color-interpolation-filters="sRGB">
<feFlood flood-opacity="0" result="BackgroundImageFix"/>
<feBlend mode="normal" in="SourceGraphic" in2="BackgroundImageFix" result="shape"/>
<feGaussianBlur stdDeviation="7.5" result="effect1_foregroundBlur_1565_17731"/>
</filter>
<filter id="filter11_f_1565_17731" x="208" y="178.614" width="184" height="206.772" filterUnits="userSpaceOnUse" color-interpolation-filters="sRGB">
<feFlood flood-opacity="0" result="BackgroundImageFix"/>
<feBlend mode="normal" in="SourceGraphic" in2="BackgroundImageFix" result="shape"/>
<feGaussianBlur stdDeviation="5" result="effect1_foregroundBlur_1565_17731"/>
</filter>
<filter id="filter12_f_1565_17731" x="0" y="138.614" width="264" height="286.772" filterUnits="userSpaceOnUse" color-interpolation-filters="sRGB">
<feFlood flood-opacity="0" result="BackgroundImageFix"/>
<feBlend mode="normal" in="SourceGraphic" in2="BackgroundImageFix" result="shape"/>
<feGaussianBlur stdDeviation="25" result="effect1_foregroundBlur_1565_17731"/>
</filter>
<filter id="filter13_f_1565_17731" x="30" y="168.614" width="204" height="226.772" filterUnits="userSpaceOnUse" color-interpolation-filters="sRGB">
<feFlood flood-opacity="0" result="BackgroundImageFix"/>
<feBlend mode="normal" in="SourceGraphic" in2="BackgroundImageFix" result="shape"/>
<feGaussianBlur stdDeviation="10" result="effect1_foregroundBlur_1565_17731"/>
</filter>
<filter id="filter14_f_1565_17731" x="35" y="173.614" width="194" height="216.772" filterUnits="userSpaceOnUse" color-interpolation-filters="sRGB">
<feFlood flood-opacity="0" result="BackgroundImageFix"/>
<feBlend mode="normal" in="SourceGraphic" in2="BackgroundImageFix" result="shape"/>
<feGaussianBlur stdDeviation="7.5" result="effect1_foregroundBlur_1565_17731"/>
</filter>
<filter id="filter15_f_1565_17731" x="40" y="178.614" width="184" height="206.772" filterUnits="userSpaceOnUse" color-interpolation-filters="sRGB">
<feFlood flood-opacity="0" result="BackgroundImageFix"/>
<feBlend mode="normal" in="SourceGraphic" in2="BackgroundImageFix" result="shape"/>
<feGaussianBlur stdDeviation="5" result="effect1_foregroundBlur_1565_17731"/>
</filter>
</defs>
</svg>
