<svg width="358" height="344" viewBox="0 0 358 344" fill="none" xmlns="http://www.w3.org/2000/svg">
<path d="M63.4332 42.7212L139.491 -0.97963C141.043 -1.87143 142 -3.5249 142 -5.31496V-92.6859C142 -94.4754 141.044 -96.1284 139.492 -97.0204L63.4924 -140.72C61.9492 -141.608 60.0508 -141.608 58.5076 -140.72L59.0061 -139.854L58.5076 -140.72L-17.4924 -97.0204C-19.0437 -96.1284 -20 -94.4754 -20 -92.6859V-5.31326C-20 -3.52434 -19.0443 -1.87173 -17.4937 -0.979523L58.4485 42.7196C59.9914 43.6074 61.8898 43.608 63.4332 42.7212Z" stroke="#854EFF" stroke-width="2"/>
<path d="M63.1841 42.2877L139.242 -1.41316C140.639 -2.21577 141.5 -3.70392 141.5 -5.31496V-92.6859C141.5 -94.2964 140.639 -95.7842 139.243 -96.587L63.2431 -140.287C61.8543 -141.086 60.1457 -141.086 58.7569 -140.287L-17.2431 -96.587C-18.6393 -95.7842 -19.5 -94.2964 -19.5 -92.6859V-5.31326C-19.5 -3.70323 -18.6398 -2.2159 -17.2444 -1.41289L58.6979 42.2863C60.0865 43.0853 61.7951 43.0858 63.1841 42.2877Z" stroke="#D9C8FF"/>
<g filter="url(#filter0_f_1565_17695)">
<path d="M63.4332 42.7212L139.491 -0.97963C141.043 -1.87143 142 -3.5249 142 -5.31496V-92.6859C142 -94.4754 141.044 -96.1284 139.492 -97.0204L63.4924 -140.72C61.9492 -141.608 60.0508 -141.608 58.5076 -140.72L59.0061 -139.854L58.5076 -140.72L-17.4924 -97.0204C-19.0437 -96.1284 -20 -94.4754 -20 -92.6859V-5.31326C-20 -3.52434 -19.0443 -1.87173 -17.4937 -0.979523L58.4485 42.7196C59.9914 43.6074 61.8898 43.608 63.4332 42.7212Z" stroke="#854EFF" stroke-width="2"/>
</g>
<g filter="url(#filter1_f_1565_17695)">
<path d="M63.4332 42.7212L139.491 -0.97963C141.043 -1.87143 142 -3.5249 142 -5.31496V-92.6859C142 -94.4754 141.044 -96.1284 139.492 -97.0204L63.4924 -140.72C61.9492 -141.608 60.0508 -141.608 58.5076 -140.72L59.0061 -139.854L58.5076 -140.72L-17.4924 -97.0204C-19.0437 -96.1284 -20 -94.4754 -20 -92.6859V-5.31326C-20 -3.52434 -19.0443 -1.87173 -17.4937 -0.979523L58.4485 42.7196C59.9914 43.6074 61.8898 43.608 63.4332 42.7212Z" stroke="#854EFF" stroke-width="2"/>
</g>
<g filter="url(#filter2_f_1565_17695)">
<path d="M63.4332 42.7212L139.491 -0.97963C141.043 -1.87143 142 -3.5249 142 -5.31496V-92.6859C142 -94.4754 141.044 -96.1284 139.492 -97.0204L63.4924 -140.72C61.9492 -141.608 60.0508 -141.608 58.5076 -140.72L59.0061 -139.854L58.5076 -140.72L-17.4924 -97.0204C-19.0437 -96.1284 -20 -94.4754 -20 -92.6859V-5.31326C-20 -3.52434 -19.0443 -1.87173 -17.4937 -0.979523L58.4485 42.7196C59.9914 43.6074 61.8898 43.608 63.4332 42.7212Z" stroke="#854EFF" stroke-width="2"/>
</g>
<g filter="url(#filter3_f_1565_17695)">
<path d="M63.4332 42.7212L139.491 -0.97963C141.043 -1.87143 142 -3.5249 142 -5.31496V-92.6859C142 -94.4754 141.044 -96.1284 139.492 -97.0204L63.4924 -140.72C61.9492 -141.608 60.0508 -141.608 58.5076 -140.72L59.0061 -139.854L58.5076 -140.72L-17.4924 -97.0204C-19.0437 -96.1284 -20 -94.4754 -20 -92.6859V-5.31326C-20 -3.52434 -19.0443 -1.87173 -17.4937 -0.979523L58.4485 42.7196C59.9914 43.6074 61.8898 43.608 63.4332 42.7212Z" stroke="#854EFF" stroke-width="2"/>
</g>
<path d="M-19.5668 186.721L56.491 143.02C58.0431 142.129 59 140.475 59 138.685V51.3141C59 49.5246 58.0437 47.8716 56.4924 46.9796L-19.5076 3.27958C-21.0508 2.39229 -22.9492 2.39229 -24.4924 3.27958L-23.9939 4.14648L-24.4924 3.27958L-100.492 46.9796C-102.044 47.8716 -103 49.5246 -103 51.3141V138.687C-103 140.476 -102.044 142.128 -100.494 143.02L-24.5515 186.72C-23.0086 187.607 -21.1102 187.608 -19.5668 186.721Z" stroke="#854EFF" stroke-width="2"/>
<path d="M-19.8159 186.288L56.2419 142.587C57.6388 141.784 58.5 140.296 58.5 138.685V51.3141C58.5 49.7036 57.6393 48.2158 56.2431 47.413L-19.7569 3.71303C-21.1457 2.91447 -22.8543 2.91447 -24.2431 3.71303L-100.243 47.413C-101.639 48.2158 -102.5 49.7036 -102.5 51.3141V138.687C-102.5 140.297 -101.64 141.784 -100.244 142.587L-24.3021 186.286C-22.9135 187.085 -21.2049 187.086 -19.8159 186.288Z" stroke="#D9C8FF"/>
<g filter="url(#filter4_f_1565_17695)">
<path d="M-19.5668 186.721L56.491 143.02C58.0431 142.129 59 140.475 59 138.685V51.3141C59 49.5246 58.0437 47.8716 56.4924 46.9796L-19.5076 3.27958C-21.0508 2.39229 -22.9492 2.39229 -24.4924 3.27958L-23.9939 4.14648L-24.4924 3.27958L-100.492 46.9796C-102.044 47.8716 -103 49.5246 -103 51.3141V138.687C-103 140.476 -102.044 142.128 -100.494 143.02L-24.5515 186.72C-23.0086 187.607 -21.1102 187.608 -19.5668 186.721Z" stroke="#854EFF" stroke-width="2"/>
</g>
<g filter="url(#filter5_f_1565_17695)">
<path d="M-19.5668 186.721L56.491 143.02C58.0431 142.129 59 140.475 59 138.685V51.3141C59 49.5246 58.0437 47.8716 56.4924 46.9796L-19.5076 3.27958C-21.0508 2.39229 -22.9492 2.39229 -24.4924 3.27958L-23.9939 4.14648L-24.4924 3.27958L-100.492 46.9796C-102.044 47.8716 -103 49.5246 -103 51.3141V138.687C-103 140.476 -102.044 142.128 -100.494 143.02L-24.5515 186.72C-23.0086 187.607 -21.1102 187.608 -19.5668 186.721Z" stroke="#854EFF" stroke-width="2"/>
</g>
<g filter="url(#filter6_f_1565_17695)">
<path d="M-19.5668 186.721L56.491 143.02C58.0431 142.129 59 140.475 59 138.685V51.3141C59 49.5246 58.0437 47.8716 56.4924 46.9796L-19.5076 3.27958C-21.0508 2.39229 -22.9492 2.39229 -24.4924 3.27958L-23.9939 4.14648L-24.4924 3.27958L-100.492 46.9796C-102.044 47.8716 -103 49.5246 -103 51.3141V138.687C-103 140.476 -102.044 142.128 -100.494 143.02L-24.5515 186.72C-23.0086 187.607 -21.1102 187.608 -19.5668 186.721Z" stroke="#854EFF" stroke-width="2"/>
</g>
<g filter="url(#filter7_f_1565_17695)">
<path d="M-19.5668 186.721L56.491 143.02C58.0431 142.129 59 140.475 59 138.685V51.3141C59 49.5246 58.0437 47.8716 56.4924 46.9796L-19.5076 3.27958C-21.0508 2.39229 -22.9492 2.39229 -24.4924 3.27958L-23.9939 4.14648L-24.4924 3.27958L-100.492 46.9796C-102.044 47.8716 -103 49.5246 -103 51.3141V138.687C-103 140.476 -102.044 142.128 -100.494 143.02L-24.5515 186.72C-23.0086 187.607 -21.1102 187.608 -19.5668 186.721Z" stroke="#854EFF" stroke-width="2"/>
</g>
<path d="M148.433 186.721L224.491 143.02C226.043 142.129 227 140.475 227 138.685V51.3141C227 49.5246 226.044 47.8716 224.492 46.9796L148.492 3.27958C146.949 2.39229 145.051 2.39229 143.508 3.27958L144.006 4.14648L143.508 3.27958L67.5076 46.9796C65.9563 47.8716 65 49.5246 65 51.3141V138.687C65 140.476 65.9557 142.128 67.5063 143.02L143.449 186.72C144.991 187.607 146.89 187.608 148.433 186.721Z" stroke="#854EFF" stroke-width="2"/>
<path d="M148.184 186.288L224.242 142.587C225.639 141.784 226.5 140.296 226.5 138.685V51.3141C226.5 49.7036 225.639 48.2158 224.243 47.413L148.243 3.71303C146.854 2.91447 145.146 2.91447 143.757 3.71303L67.7569 47.413C66.3607 48.2158 65.5 49.7036 65.5 51.3141V138.687C65.5 140.297 66.3602 141.784 67.7556 142.587L143.698 186.286C145.086 187.085 146.795 187.086 148.184 186.288Z" stroke="#D9C8FF"/>
<g filter="url(#filter8_f_1565_17695)">
<path d="M148.433 186.721L224.491 143.02C226.043 142.129 227 140.475 227 138.685V51.3141C227 49.5246 226.044 47.8716 224.492 46.9796L148.492 3.27958C146.949 2.39229 145.051 2.39229 143.508 3.27958L144.006 4.14648L143.508 3.27958L67.5076 46.9796C65.9563 47.8716 65 49.5246 65 51.3141V138.687C65 140.476 65.9557 142.128 67.5063 143.02L143.449 186.72C144.991 187.607 146.89 187.608 148.433 186.721Z" stroke="#854EFF" stroke-width="2"/>
</g>
<g filter="url(#filter9_f_1565_17695)">
<path d="M148.433 186.721L224.491 143.02C226.043 142.129 227 140.475 227 138.685V51.3141C227 49.5246 226.044 47.8716 224.492 46.9796L148.492 3.27958C146.949 2.39229 145.051 2.39229 143.508 3.27958L144.006 4.14648L143.508 3.27958L67.5076 46.9796C65.9563 47.8716 65 49.5246 65 51.3141V138.687C65 140.476 65.9557 142.128 67.5063 143.02L143.449 186.72C144.991 187.607 146.89 187.608 148.433 186.721Z" stroke="#854EFF" stroke-width="2"/>
</g>
<g filter="url(#filter10_f_1565_17695)">
<path d="M148.433 186.721L224.491 143.02C226.043 142.129 227 140.475 227 138.685V51.3141C227 49.5246 226.044 47.8716 224.492 46.9796L148.492 3.27958C146.949 2.39229 145.051 2.39229 143.508 3.27958L144.006 4.14648L143.508 3.27958L67.5076 46.9796C65.9563 47.8716 65 49.5246 65 51.3141V138.687C65 140.476 65.9557 142.128 67.5063 143.02L143.449 186.72C144.991 187.607 146.89 187.608 148.433 186.721Z" stroke="#854EFF" stroke-width="2"/>
</g>
<g filter="url(#filter11_f_1565_17695)">
<path d="M148.433 186.721L224.491 143.02C226.043 142.129 227 140.475 227 138.685V51.3141C227 49.5246 226.044 47.8716 224.492 46.9796L148.492 3.27958C146.949 2.39229 145.051 2.39229 143.508 3.27958L144.006 4.14648L143.508 3.27958L67.5076 46.9796C65.9563 47.8716 65 49.5246 65 51.3141V138.687C65 140.476 65.9557 142.128 67.5063 143.02L143.449 186.72C144.991 187.607 146.89 187.608 148.433 186.721Z" stroke="#854EFF" stroke-width="2"/>
</g>
<path d="M228.433 39.7212L304.491 -3.97963C306.043 -4.87143 307 -6.5249 307 -8.31496V-95.6859C307 -97.4754 306.044 -99.1284 304.492 -100.02L228.492 -143.72C226.949 -144.608 225.051 -144.608 223.508 -143.72L224.006 -142.854L223.508 -143.72L147.508 -100.02C145.956 -99.1284 145 -97.4754 145 -95.6859V-8.31326C145 -6.52434 145.956 -4.87173 147.506 -3.97952L223.449 39.7196C224.991 40.6074 226.89 40.608 228.433 39.7212Z" stroke="#854EFF" stroke-width="2"/>
<path d="M228.184 39.2877L304.242 -4.41316C305.639 -5.21577 306.5 -6.70392 306.5 -8.31496V-95.6859C306.5 -97.2964 305.639 -98.7842 304.243 -99.587L228.243 -143.287C226.854 -144.086 225.146 -144.086 223.757 -143.287L147.757 -99.587C146.361 -98.7842 145.5 -97.2964 145.5 -95.6859V-8.31326C145.5 -6.70323 146.36 -5.2159 147.756 -4.41289L223.698 39.2863C225.086 40.0853 226.795 40.0858 228.184 39.2877Z" stroke="#D9C8FF"/>
<g filter="url(#filter12_f_1565_17695)">
<path d="M228.433 39.7212L304.491 -3.97963C306.043 -4.87143 307 -6.5249 307 -8.31496V-95.6859C307 -97.4754 306.044 -99.1284 304.492 -100.02L228.492 -143.72C226.949 -144.608 225.051 -144.608 223.508 -143.72L224.006 -142.854L223.508 -143.72L147.508 -100.02C145.956 -99.1284 145 -97.4754 145 -95.6859V-8.31326C145 -6.52434 145.956 -4.87173 147.506 -3.97952L223.449 39.7196C224.991 40.6074 226.89 40.608 228.433 39.7212Z" stroke="#854EFF" stroke-width="2"/>
</g>
<g filter="url(#filter13_f_1565_17695)">
<path d="M228.433 39.7212L304.491 -3.97963C306.043 -4.87143 307 -6.5249 307 -8.31496V-95.6859C307 -97.4754 306.044 -99.1284 304.492 -100.02L228.492 -143.72C226.949 -144.608 225.051 -144.608 223.508 -143.72L224.006 -142.854L223.508 -143.72L147.508 -100.02C145.956 -99.1284 145 -97.4754 145 -95.6859V-8.31326C145 -6.52434 145.956 -4.87173 147.506 -3.97952L223.449 39.7196C224.991 40.6074 226.89 40.608 228.433 39.7212Z" stroke="#854EFF" stroke-width="2"/>
</g>
<g filter="url(#filter14_f_1565_17695)">
<path d="M228.433 39.7212L304.491 -3.97963C306.043 -4.87143 307 -6.5249 307 -8.31496V-95.6859C307 -97.4754 306.044 -99.1284 304.492 -100.02L228.492 -143.72C226.949 -144.608 225.051 -144.608 223.508 -143.72L224.006 -142.854L223.508 -143.72L147.508 -100.02C145.956 -99.1284 145 -97.4754 145 -95.6859V-8.31326C145 -6.52434 145.956 -4.87173 147.506 -3.97952L223.449 39.7196C224.991 40.6074 226.89 40.608 228.433 39.7212Z" stroke="#854EFF" stroke-width="2"/>
</g>
<g filter="url(#filter15_f_1565_17695)">
<path d="M228.433 39.7212L304.491 -3.97963C306.043 -4.87143 307 -6.5249 307 -8.31496V-95.6859C307 -97.4754 306.044 -99.1284 304.492 -100.02L228.492 -143.72C226.949 -144.608 225.051 -144.608 223.508 -143.72L224.006 -142.854L223.508 -143.72L147.508 -100.02C145.956 -99.1284 145 -97.4754 145 -95.6859V-8.31326C145 -6.52434 145.956 -4.87173 147.506 -3.97952L223.449 39.7196C224.991 40.6074 226.89 40.608 228.433 39.7212Z" stroke="#854EFF" stroke-width="2"/>
</g>
<path d="M65.4332 331.721L141.491 288.02C143.043 287.129 144 285.475 144 283.685V196.314C144 194.525 143.044 192.872 141.492 191.98L65.4924 148.28C63.9492 147.392 62.0508 147.392 60.5076 148.28L61.0061 149.146L60.5076 148.28L-15.4924 191.98C-17.0437 192.872 -18 194.525 -18 196.314V283.687C-18 285.476 -17.0443 287.128 -15.4937 288.02L60.4485 331.72C61.9914 332.607 63.8898 332.608 65.4332 331.721Z" stroke="#854EFF" stroke-width="2"/>
<path d="M65.1841 331.288L141.242 287.587C142.639 286.784 143.5 285.296 143.5 283.685V196.314C143.5 194.704 142.639 193.216 141.243 192.413L65.2431 148.713C63.8543 147.914 62.1457 147.914 60.7569 148.713L-15.2431 192.413C-16.6393 193.216 -17.5 194.704 -17.5 196.314V283.687C-17.5 285.297 -16.6398 286.784 -15.2444 287.587L60.6979 331.286C62.0865 332.085 63.7951 332.086 65.1841 331.288Z" stroke="#D9C8FF"/>
<g filter="url(#filter16_f_1565_17695)">
<path d="M65.4332 331.721L141.491 288.02C143.043 287.129 144 285.475 144 283.685V196.314C144 194.525 143.044 192.872 141.492 191.98L65.4924 148.28C63.9492 147.392 62.0508 147.392 60.5076 148.28L61.0061 149.146L60.5076 148.28L-15.4924 191.98C-17.0437 192.872 -18 194.525 -18 196.314V283.687C-18 285.476 -17.0443 287.128 -15.4937 288.02L60.4485 331.72C61.9914 332.607 63.8898 332.608 65.4332 331.721Z" stroke="#854EFF" stroke-width="2"/>
</g>
<g filter="url(#filter17_f_1565_17695)">
<path d="M65.4332 331.721L141.491 288.02C143.043 287.129 144 285.475 144 283.685V196.314C144 194.525 143.044 192.872 141.492 191.98L65.4924 148.28C63.9492 147.392 62.0508 147.392 60.5076 148.28L61.0061 149.146L60.5076 148.28L-15.4924 191.98C-17.0437 192.872 -18 194.525 -18 196.314V283.687C-18 285.476 -17.0443 287.128 -15.4937 288.02L60.4485 331.72C61.9914 332.607 63.8898 332.608 65.4332 331.721Z" stroke="#854EFF" stroke-width="2"/>
</g>
<g filter="url(#filter18_f_1565_17695)">
<path d="M65.4332 331.721L141.491 288.02C143.043 287.129 144 285.475 144 283.685V196.314C144 194.525 143.044 192.872 141.492 191.98L65.4924 148.28C63.9492 147.392 62.0508 147.392 60.5076 148.28L61.0061 149.146L60.5076 148.28L-15.4924 191.98C-17.0437 192.872 -18 194.525 -18 196.314V283.687C-18 285.476 -17.0443 287.128 -15.4937 288.02L60.4485 331.72C61.9914 332.607 63.8898 332.608 65.4332 331.721Z" stroke="#854EFF" stroke-width="2"/>
</g>
<g filter="url(#filter19_f_1565_17695)">
<path d="M65.4332 331.721L141.491 288.02C143.043 287.129 144 285.475 144 283.685V196.314C144 194.525 143.044 192.872 141.492 191.98L65.4924 148.28C63.9492 147.392 62.0508 147.392 60.5076 148.28L61.0061 149.146L60.5076 148.28L-15.4924 191.98C-17.0437 192.872 -18 194.525 -18 196.314V283.687C-18 285.476 -17.0443 287.128 -15.4937 288.02L60.4485 331.72C61.9914 332.607 63.8898 332.608 65.4332 331.721Z" stroke="#854EFF" stroke-width="2"/>
</g>
<defs>
<filter id="filter0_f_1565_17695" x="-71" y="-192.386" width="264" height="286.772" filterUnits="userSpaceOnUse" color-interpolation-filters="sRGB">
<feFlood flood-opacity="0" result="BackgroundImageFix"/>
<feBlend mode="normal" in="SourceGraphic" in2="BackgroundImageFix" result="shape"/>
<feGaussianBlur stdDeviation="25" result="effect1_foregroundBlur_1565_17695"/>
</filter>
<filter id="filter1_f_1565_17695" x="-41" y="-162.386" width="204" height="226.772" filterUnits="userSpaceOnUse" color-interpolation-filters="sRGB">
<feFlood flood-opacity="0" result="BackgroundImageFix"/>
<feBlend mode="normal" in="SourceGraphic" in2="BackgroundImageFix" result="shape"/>
<feGaussianBlur stdDeviation="10" result="effect1_foregroundBlur_1565_17695"/>
</filter>
<filter id="filter2_f_1565_17695" x="-36" y="-157.386" width="194" height="216.772" filterUnits="userSpaceOnUse" color-interpolation-filters="sRGB">
<feFlood flood-opacity="0" result="BackgroundImageFix"/>
<feBlend mode="normal" in="SourceGraphic" in2="BackgroundImageFix" result="shape"/>
<feGaussianBlur stdDeviation="7.5" result="effect1_foregroundBlur_1565_17695"/>
</filter>
<filter id="filter3_f_1565_17695" x="-31" y="-152.386" width="184" height="206.772" filterUnits="userSpaceOnUse" color-interpolation-filters="sRGB">
<feFlood flood-opacity="0" result="BackgroundImageFix"/>
<feBlend mode="normal" in="SourceGraphic" in2="BackgroundImageFix" result="shape"/>
<feGaussianBlur stdDeviation="5" result="effect1_foregroundBlur_1565_17695"/>
</filter>
<filter id="filter4_f_1565_17695" x="-154" y="-48.3859" width="264" height="286.772" filterUnits="userSpaceOnUse" color-interpolation-filters="sRGB">
<feFlood flood-opacity="0" result="BackgroundImageFix"/>
<feBlend mode="normal" in="SourceGraphic" in2="BackgroundImageFix" result="shape"/>
<feGaussianBlur stdDeviation="25" result="effect1_foregroundBlur_1565_17695"/>
</filter>
<filter id="filter5_f_1565_17695" x="-124" y="-18.3859" width="204" height="226.772" filterUnits="userSpaceOnUse" color-interpolation-filters="sRGB">
<feFlood flood-opacity="0" result="BackgroundImageFix"/>
<feBlend mode="normal" in="SourceGraphic" in2="BackgroundImageFix" result="shape"/>
<feGaussianBlur stdDeviation="10" result="effect1_foregroundBlur_1565_17695"/>
</filter>
<filter id="filter6_f_1565_17695" x="-119" y="-13.3859" width="194" height="216.772" filterUnits="userSpaceOnUse" color-interpolation-filters="sRGB">
<feFlood flood-opacity="0" result="BackgroundImageFix"/>
<feBlend mode="normal" in="SourceGraphic" in2="BackgroundImageFix" result="shape"/>
<feGaussianBlur stdDeviation="7.5" result="effect1_foregroundBlur_1565_17695"/>
</filter>
<filter id="filter7_f_1565_17695" x="-114" y="-8.38586" width="184" height="206.772" filterUnits="userSpaceOnUse" color-interpolation-filters="sRGB">
<feFlood flood-opacity="0" result="BackgroundImageFix"/>
<feBlend mode="normal" in="SourceGraphic" in2="BackgroundImageFix" result="shape"/>
<feGaussianBlur stdDeviation="5" result="effect1_foregroundBlur_1565_17695"/>
</filter>
<filter id="filter8_f_1565_17695" x="14" y="-48.3859" width="264" height="286.772" filterUnits="userSpaceOnUse" color-interpolation-filters="sRGB">
<feFlood flood-opacity="0" result="BackgroundImageFix"/>
<feBlend mode="normal" in="SourceGraphic" in2="BackgroundImageFix" result="shape"/>
<feGaussianBlur stdDeviation="25" result="effect1_foregroundBlur_1565_17695"/>
</filter>
<filter id="filter9_f_1565_17695" x="44" y="-18.3859" width="204" height="226.772" filterUnits="userSpaceOnUse" color-interpolation-filters="sRGB">
<feFlood flood-opacity="0" result="BackgroundImageFix"/>
<feBlend mode="normal" in="SourceGraphic" in2="BackgroundImageFix" result="shape"/>
<feGaussianBlur stdDeviation="10" result="effect1_foregroundBlur_1565_17695"/>
</filter>
<filter id="filter10_f_1565_17695" x="49" y="-13.3859" width="194" height="216.772" filterUnits="userSpaceOnUse" color-interpolation-filters="sRGB">
<feFlood flood-opacity="0" result="BackgroundImageFix"/>
<feBlend mode="normal" in="SourceGraphic" in2="BackgroundImageFix" result="shape"/>
<feGaussianBlur stdDeviation="7.5" result="effect1_foregroundBlur_1565_17695"/>
</filter>
<filter id="filter11_f_1565_17695" x="54" y="-8.38586" width="184" height="206.772" filterUnits="userSpaceOnUse" color-interpolation-filters="sRGB">
<feFlood flood-opacity="0" result="BackgroundImageFix"/>
<feBlend mode="normal" in="SourceGraphic" in2="BackgroundImageFix" result="shape"/>
<feGaussianBlur stdDeviation="5" result="effect1_foregroundBlur_1565_17695"/>
</filter>
<filter id="filter12_f_1565_17695" x="94" y="-195.386" width="264" height="286.772" filterUnits="userSpaceOnUse" color-interpolation-filters="sRGB">
<feFlood flood-opacity="0" result="BackgroundImageFix"/>
<feBlend mode="normal" in="SourceGraphic" in2="BackgroundImageFix" result="shape"/>
<feGaussianBlur stdDeviation="25" result="effect1_foregroundBlur_1565_17695"/>
</filter>
<filter id="filter13_f_1565_17695" x="124" y="-165.386" width="204" height="226.772" filterUnits="userSpaceOnUse" color-interpolation-filters="sRGB">
<feFlood flood-opacity="0" result="BackgroundImageFix"/>
<feBlend mode="normal" in="SourceGraphic" in2="BackgroundImageFix" result="shape"/>
<feGaussianBlur stdDeviation="10" result="effect1_foregroundBlur_1565_17695"/>
</filter>
<filter id="filter14_f_1565_17695" x="129" y="-160.386" width="194" height="216.772" filterUnits="userSpaceOnUse" color-interpolation-filters="sRGB">
<feFlood flood-opacity="0" result="BackgroundImageFix"/>
<feBlend mode="normal" in="SourceGraphic" in2="BackgroundImageFix" result="shape"/>
<feGaussianBlur stdDeviation="7.5" result="effect1_foregroundBlur_1565_17695"/>
</filter>
<filter id="filter15_f_1565_17695" x="134" y="-155.386" width="184" height="206.772" filterUnits="userSpaceOnUse" color-interpolation-filters="sRGB">
<feFlood flood-opacity="0" result="BackgroundImageFix"/>
<feBlend mode="normal" in="SourceGraphic" in2="BackgroundImageFix" result="shape"/>
<feGaussianBlur stdDeviation="5" result="effect1_foregroundBlur_1565_17695"/>
</filter>
<filter id="filter16_f_1565_17695" x="-69" y="96.6141" width="264" height="286.772" filterUnits="userSpaceOnUse" color-interpolation-filters="sRGB">
<feFlood flood-opacity="0" result="BackgroundImageFix"/>
<feBlend mode="normal" in="SourceGraphic" in2="BackgroundImageFix" result="shape"/>
<feGaussianBlur stdDeviation="25" result="effect1_foregroundBlur_1565_17695"/>
</filter>
<filter id="filter17_f_1565_17695" x="-39" y="126.614" width="204" height="226.772" filterUnits="userSpaceOnUse" color-interpolation-filters="sRGB">
<feFlood flood-opacity="0" result="BackgroundImageFix"/>
<feBlend mode="normal" in="SourceGraphic" in2="BackgroundImageFix" result="shape"/>
<feGaussianBlur stdDeviation="10" result="effect1_foregroundBlur_1565_17695"/>
</filter>
<filter id="filter18_f_1565_17695" x="-34" y="131.614" width="194" height="216.772" filterUnits="userSpaceOnUse" color-interpolation-filters="sRGB">
<feFlood flood-opacity="0" result="BackgroundImageFix"/>
<feBlend mode="normal" in="SourceGraphic" in2="BackgroundImageFix" result="shape"/>
<feGaussianBlur stdDeviation="7.5" result="effect1_foregroundBlur_1565_17695"/>
</filter>
<filter id="filter19_f_1565_17695" x="-29" y="136.614" width="184" height="206.772" filterUnits="userSpaceOnUse" color-interpolation-filters="sRGB">
<feFlood flood-opacity="0" result="BackgroundImageFix"/>
<feBlend mode="normal" in="SourceGraphic" in2="BackgroundImageFix" result="shape"/>
<feGaussianBlur stdDeviation="5" result="effect1_foregroundBlur_1565_17695"/>
</filter>
</defs>
</svg>
