<svg width="76" height="75" viewBox="0 0 76 75" fill="none" xmlns="http://www.w3.org/2000/svg">
<path d="M16.125 14.3875V43.0906C16.125 45.1483 16.633 47.1742 17.6039 48.9884C18.5748 50.8026 19.9786 52.3491 21.6906 53.4906L38 64.3656L54.3094 53.4906C56.021 52.3494 57.4244 50.8034 58.3953 48.9898C59.3662 47.1761 59.8745 45.1509 59.875 43.0938V14.3875L38 9.53125L16.125 14.3875ZM12.3219 8.83125L38 3.125L63.6781 8.83125C64.3721 8.98551 64.9927 9.37177 65.4375 9.92627C65.8824 10.4808 66.1249 11.1704 66.125 11.8813V43.0906C66.1248 46.1773 65.3625 49.2162 63.9059 51.9375C62.4493 54.6589 60.3433 56.9785 57.775 58.6906L38 71.875L18.225 58.6906C15.6571 56.9788 13.5514 54.6597 12.0948 51.9389C10.6382 49.2181 9.87574 46.1799 9.875 43.0938V11.8813C9.87512 11.1704 10.1176 10.4808 10.5625 9.92627C11.0073 9.37177 11.6279 8.98551 12.3219 8.83125ZM38 42.1875L28.8156 47.0156L30.5687 36.7906L23.1406 29.5469L33.4094 28.0531L38 18.75L42.5938 28.0531L52.8594 29.5469L45.4313 36.7906L47.1812 47.0156L38 42.1875Z" fill="#F2F4F7"/>
</svg>
