<svg width="44" height="44" viewBox="0 0 44 44" fill="none" xmlns="http://www.w3.org/2000/svg">
<g clip-path="url(#clip0_398_4835)">
<path d="M9.16667 8.44066V25.2798C9.16669 26.487 9.46472 27.6755 10.0343 28.7399C10.6039 29.8042 11.4274 30.7115 12.4318 31.3812L22 37.7612L31.5682 31.3812C32.5723 30.7117 33.3957 29.8047 33.9653 28.7407C34.5348 27.6767 34.833 26.4885 34.8333 25.2817V8.44066L22 5.59166L9.16667 8.44066ZM6.9355 5.181L22 1.83333L37.0645 5.181C37.4716 5.2715 37.8357 5.4981 38.0967 5.8234C38.3577 6.14871 38.4999 6.55328 38.5 6.97033V25.2798C38.4999 27.0907 38.0527 28.8735 37.1981 30.47C36.3436 32.0665 35.1081 33.4274 33.6013 34.4318L22 42.1667L10.3987 34.4318C8.89217 33.4276 7.65684 32.067 6.8023 30.4708C5.94777 28.8746 5.50043 27.0922 5.5 25.2817V6.97033C5.50007 6.55328 5.64234 6.14871 5.90331 5.8234C6.16429 5.4981 6.52838 5.2715 6.9355 5.181ZM22 24.75L16.6118 27.5825L17.6403 21.5838L13.2825 17.3342L19.3068 16.4578L22 11L24.695 16.4578L30.7175 17.3342L26.3597 21.5838L27.3863 27.5825L22 24.75Z" fill="#F2F4F7"/>
</g>
<defs>
<clipPath id="clip0_398_4835">
<rect width="44" height="44" fill="white"/>
</clipPath>
</defs>
</svg>
