<svg width="16" height="16" viewBox="0 0 16 16" fill="none" xmlns="http://www.w3.org/2000/svg">
<g clip-path="url(#clip0_945_507)">
<path d="M8.00035 3.01934C9.56635 1.61334 11.9863 1.66 13.495 3.17134C15.003 4.68334 15.055 7.09134 13.6523 8.662L7.99901 14.3233L2.34701 8.662C0.944345 7.09134 0.997012 4.67934 2.50435 3.17134C4.01435 1.662 6.42968 1.61134 8.00035 3.01934ZM12.551 4.11334C11.551 3.112 9.93768 3.07134 8.89101 4.01134L8.00101 4.81L7.11035 4.012C6.06035 3.07067 4.45035 3.112 3.44768 4.11467C2.45435 5.108 2.40435 6.698 3.31968 7.74867L7.99968 12.436L12.6797 7.74934C13.5957 6.698 13.5457 5.11 12.551 4.11334Z" fill="#98A2B3"/>
</g>
<defs>
<clipPath id="clip0_945_507">
<rect width="16" height="16" fill="white"/>
</clipPath>
</defs>
</svg>
