<svg width="139" height="36" viewBox="0 0 139 36" fill="none" xmlns="http://www.w3.org/2000/svg">
<g clip-path="url(#clip0_269_5113)">
<path d="M58.7093 9.849C56.2027 9.849 53.3699 10.9883 51.6638 13.2326V10.2059H45.7072V31.433H51.6638V19.3576C51.6638 17.1847 53.3699 14.869 56.5666 14.869C59.0355 14.869 61.5772 16.5423 61.5772 19.3576V31.433H67.5338V18.2896C67.4961 13.4098 63.9382 9.849 58.7093 9.849Z" fill="#E60012"/>
<path d="M109.732 10.2058L104.357 24.6656L98.9827 10.2058H92.1906L101.088 31.433H107.627L116.524 10.2058H109.732Z" fill="#E60012"/>
<path d="M27.9477 16.6163C28.9639 15.2972 30.5622 14.5147 32.5244 14.5147C34.6672 14.5147 36.3005 15.7255 37.1361 17.4701L26.751 21.7076C26.4599 19.5003 27.0421 17.827 27.9477 16.6163ZM39.3894 24.9142C36.8827 26.7303 35.4677 27.1585 33.1793 27.1585C31.1094 27.1585 29.511 26.5161 28.3844 25.4482L43.5644 19.2519C43.2383 16.9362 42.3299 14.906 40.985 13.3384C38.9878 11.0597 36.0472 9.849 32.4516 9.849C25.9155 9.849 20.975 14.5861 20.975 20.8194C20.975 27.2299 25.9128 31.7899 33.1039 31.7899C37.1361 31.7899 41.2383 29.9368 43.1628 27.7295L39.3894 24.9142Z" fill="#E60012"/>
<path d="M20.3955 26.0905H6.88659V3.86414H0.857178V31.433H20.3955V26.0905Z" fill="#E60012"/>
<path d="M127.2 14.8346C123.896 14.8346 121.462 17.293 121.462 20.8194C121.462 24.1687 124.003 26.8043 127.273 26.8043C130.577 26.8043 133.011 24.2745 133.011 20.8194C133.011 17.4701 130.432 14.8346 127.2 14.8346ZM127.2 31.7899C120.699 31.7899 115.616 27.0528 115.616 20.8194C115.616 14.6575 120.737 9.849 127.273 9.849C133.774 9.849 138.857 14.5861 138.857 20.8194C138.857 26.9814 133.736 31.7899 127.2 31.7899Z" fill="#E60012"/>
<path d="M81.4416 14.8346C78.1372 14.8346 75.7033 17.293 75.7033 20.8194C75.7033 24.1687 78.245 26.8043 81.5144 26.8043C84.8189 26.8043 87.2527 24.2745 87.2527 20.8194C87.2527 17.4701 84.6733 14.8346 81.4416 14.8346ZM81.4416 31.7899C74.9405 31.7899 69.8572 27.0528 69.8572 20.8194C69.8572 14.6575 74.9783 9.849 81.5144 9.849C88.0155 9.849 93.0989 14.5861 93.0989 20.8194C93.0989 26.9814 87.9778 31.7899 81.4416 31.7899Z" fill="#E60012"/>
</g>
<defs>
<clipPath id="clip0_269_5113">
<rect width="138" height="36" fill="white" transform="translate(0.857178)"/>
</clipPath>
</defs>
</svg>
