<svg width="24" height="24" viewBox="0 0 24 24" fill="none" xmlns="http://www.w3.org/2000/svg">
<path d="M14.015 1.5574C14.015 5.1024 15.884 6.8844 17.494 8.5784C19.034 10.1984 20.5 11.7414 20.5 14.6804C20.5 19.4924 16.747 22.9304 11.935 22.9304C7.122 22.9304 3 19.5094 3 14.6804C3 12.6414 3.962 10.6694 5.509 9.7814C5.814 9.6064 6.181 9.7884 6.312 10.1154C7.313 12.6144 8.547 12.5704 9.187 11.9304C9.575 11.5434 9.657 10.8144 9.183 9.8684C6.778 5.0564 11.046 1.5894 13.383 1.0144C13.719 0.932396 13.998 1.2124 14.015 1.5574ZM11.935 21.4304C15.994 21.4304 19 18.5904 19 14.6804C19 12.3434 17.907 11.1914 16.322 9.5224L16.301 9.4994C14.861 7.9824 13.162 6.1484 12.652 2.9424C11.8969 3.38624 11.2454 3.9863 10.741 4.7024C9.954 5.8464 9.594 7.3354 10.525 9.1974C11.128 10.4024 11.302 11.9374 10.248 12.9914C9.591 13.6484 8.486 14.0914 7.292 13.5774C6.54 13.2534 5.939 12.6224 5.454 11.7874C4.887 12.4934 4.5 13.5274 4.5 14.6804C4.5 18.5274 7.788 21.4304 11.935 21.4304Z" fill="#F2F4F7"/>
</svg>
