<svg width="156" height="29" viewBox="0 0 156 29" fill="none" xmlns="http://www.w3.org/2000/svg">
<g clip-path="url(#clip0_269_5129)">
<path d="M33.3963 2.99536H23.948L20.2034 24.1224H25.9985L28.3599 7.67536H28.9418L31.3488 24.1224H37.1409L33.3963 2.99536Z" fill="#074CA1"/>
<path d="M60.7634 24.1224L60.4983 8.21161H59.962L57.2442 24.1224H51.5831L48.8653 8.21161H48.3291L48.0609 24.1224H42.668L43.515 2.99536H52.5642L54.1669 14.674H54.6574L56.2174 2.99536H65.2666L66.1563 24.1224H60.7634Z" fill="#074CA1"/>
<path d="M93.9712 19.4881L93.9255 2.99536H99.8548V19.1743V19.2657V19.354L99.8974 19.4424V19.5308V19.6222V19.7105L99.9431 19.7562L99.9888 19.8446V19.9329L100.031 20.0213L100.077 20.067L100.12 20.1554L100.166 20.2011L100.211 20.2894L100.254 20.3351L100.3 20.3778L100.345 20.4692L100.434 20.5118L100.476 20.5575L100.568 20.6033L100.61 20.6459L100.702 20.6916L100.744 20.7343L100.833 20.78L100.924 20.8257H100.967L101.058 20.8683H101.147H101.235L101.323 20.914H101.415H101.503H101.591H101.637L101.726 20.8683H101.814H101.905L101.994 20.8257H102.082L102.128 20.78L102.216 20.7343L102.304 20.6916L102.35 20.6459L102.439 20.6033L102.484 20.5575L102.527 20.5118L102.618 20.4692L102.661 20.3778L102.707 20.3351L102.749 20.2894L102.795 20.2011L102.841 20.1554L102.883 20.067L102.929 20.0213L102.975 19.9329L103.017 19.8446V19.7562L103.063 19.7105V19.6222V19.5308L103.109 19.4424V19.354V19.2657V19.1743V2.99536H109.035V19.5765V19.9329L108.989 20.2468L108.947 20.6033L108.858 20.914L108.767 21.2248L108.679 21.5386L108.544 21.8068L108.368 22.0718L108.234 22.34L108.054 22.6081L107.831 22.8305L107.655 23.0529L107.429 23.2754L107.164 23.4978L106.942 23.6775L106.674 23.8543L106.406 24.034L106.137 24.2107L105.827 24.3448L105.513 24.5246L105.202 24.6129L104.891 24.747L104.577 24.8354L104.267 24.9694L103.91 25.0151L103.596 25.1035L102.883 25.2376L102.17 25.2833H101.503H100.79L100.077 25.1918L99.4069 25.1035L99.0504 25.0151L98.6939 24.9268L98.3831 24.8354L98.0693 24.747L97.7585 24.6129L97.4477 24.4789L97.1339 24.3448L96.8688 24.1681L96.555 24.034L96.2869 23.8543L96.0218 23.6318L95.7963 23.4551L95.5739 23.2327L95.3515 23.0072L95.1291 22.7848L94.9493 22.5197L94.7726 22.2943L94.5928 22.0292L94.4618 21.7154L94.3277 21.4472L94.1937 21.1365L94.1053 20.8257L94.0596 20.5118L93.9712 20.1554V19.8446V19.4881Z" fill="#074CA1"/>
<path d="M134.218 2.99536H129.093V16.234H128.959L122.987 2.99536H116.659V24.1224H121.784V11.7765H121.918L127.533 24.1224H134.218V2.99536Z" fill="#074CA1"/>
<path d="M72.4426 19.9786V17.1694H78.3718L78.3261 18.4186V18.7294V18.9975V19.1316L78.3718 19.2657V19.3997L78.4145 19.5307L78.4602 19.6221V19.6648L78.5059 19.7562L78.5486 19.7989V19.8446L78.5943 19.8872V19.9329L78.6369 19.9786L78.6826 20.0213L78.7283 20.067L78.771 20.1127L78.8167 20.1553L78.8624 20.2011L78.9051 20.2468L78.9508 20.2894L78.9934 20.3351H79.0391L79.0848 20.3778L79.1732 20.4235H79.2189L79.2615 20.4692L79.3499 20.5118H79.4413L79.5754 20.5575L79.7521 20.6032H79.9318H80.1086H80.1543H80.1969H80.2426H80.2883H80.331H80.3767H80.4224H80.465L80.5108 20.5575L80.5991 20.5118L80.6875 20.4692L80.7789 20.4235L80.8672 20.3778L80.9556 20.3351L81.044 20.2468L81.1354 20.2011L81.178 20.1127L81.2694 20.0213L81.3121 19.9329L81.4004 19.8446L81.4461 19.7562L81.4918 19.6221L81.5345 19.5307L81.5802 19.3997L81.6259 19.3083V19.1743V19.0432V18.9092V18.7751V18.641V18.4613L81.5802 18.3272L81.5345 18.1962L81.4918 18.0164L81.4004 17.8397L81.3121 17.7057L81.2694 17.6143L81.2237 17.5259L81.178 17.4375L81.1354 17.3918L81.0897 17.3035L81.044 17.2578L80.9099 17.1268L80.7789 16.9927L80.6448 16.8586L80.465 16.7672L80.331 16.6362L79.9745 16.4564L79.618 16.234L78.771 15.8318L77.8356 15.387L76.8118 14.8507L76.2299 14.54L75.6967 14.1835L75.1604 13.7813L74.5815 13.2907L74.4932 13.2481L74.4048 13.2024L74.3591 13.114L74.2708 13.0257L74.1824 12.98L74.1367 12.8916L73.9569 12.7118L73.8686 12.5778L73.7345 12.3553L73.6004 12.1786L73.5121 11.9989L73.4237 11.7764L73.3354 11.554L73.244 11.3316L73.2013 11.1092L73.0672 10.6186L72.9789 10.1281L72.8875 9.59183L72.8448 9.10129L72.7991 8.61074V8.12324V7.63269L72.8448 7.1848L72.8875 6.73996L72.9332 6.38347L73.0215 6.07269L73.0672 5.80457L73.1556 5.53644L73.2897 5.26832L73.4237 5.04589L73.5578 4.77777L73.6918 4.55535L73.8686 4.33292L74.0483 4.15621L74.2251 3.97644L74.4475 3.75402L74.6699 3.61996L74.8954 3.44324L75.1178 3.30917L75.3402 3.12941L75.6083 2.99535L75.8734 2.90699L76.1415 2.77293L76.4097 2.68456L76.7204 2.59621L77.3024 2.41644L77.8813 2.28238L78.5059 2.19402L79.1275 2.14832H79.7978H80.4224L81.044 2.19402L81.6686 2.28238L82.2932 2.41644L82.9178 2.55051L83.451 2.72722L84.0299 2.90699L84.5204 3.12941L84.7886 3.26347L85.011 3.39754L85.2334 3.5316L85.4589 3.70831L85.6813 3.84238L85.858 4.02215L86.0378 4.15621L86.2145 4.33292L86.3943 4.51269L86.5283 4.68941L86.6624 4.91183L86.7051 5.00324L86.7508 5.0916L86.8391 5.17996L86.8848 5.31402L86.9275 5.40238V5.49074L86.9732 5.6248L87.0189 5.71621V5.80457L87.0615 5.93863V6.02699L87.1072 6.16105V6.29511V6.38347V9.32675H81.7143L81.7569 8.07754V7.80941L81.7143 7.54128V7.40722V7.31886L81.6686 7.1848L81.6259 7.09644V7.05074V7.00808L81.5802 6.96238V6.87402L81.5345 6.82832L81.4918 6.78566V6.73996H81.4461L81.4004 6.69425V6.6516L81.3578 6.6059L81.3121 6.56324L81.2694 6.51753H81.2237L81.178 6.47183L81.1354 6.42918H81.044L81.0013 6.38347L80.9556 6.33777H80.9099L80.8215 6.29511H80.7789L80.5991 6.24941L80.465 6.20676H80.2883H80.1086H79.9318H79.8404H79.7521H79.7094L79.618 6.24941H79.5297L79.4413 6.29511L79.3499 6.33777L79.3072 6.38347H79.2189L79.1275 6.47183L79.0391 6.51753L78.9934 6.56324L78.9051 6.6059L78.8624 6.69425L78.771 6.78566L78.7283 6.82832L78.6826 6.87402L78.6369 6.91972V6.96238L78.5943 7.00808V7.05074L78.5486 7.09644V7.14214L78.5059 7.1848V7.27621V7.31886L78.4602 7.36456V7.40722V7.45293V7.54128V7.58699L78.4145 7.63269V7.72105V7.76675L78.4602 7.85511V7.89777V8.03183L78.5059 8.16589L78.5486 8.34566L78.5943 8.47972L78.6369 8.61074L78.7283 8.7905L78.8624 8.96722L79.0391 9.14699L79.2189 9.32675L79.3499 9.50347L79.7094 9.81425L80.0659 10.0824L80.4224 10.3505L80.8215 10.5729L81.2237 10.7953L81.5802 10.9751L83.1402 11.6881L83.9415 12.0446L84.298 12.2213L84.6545 12.4468L85.011 12.6235L85.3248 12.8459L85.5015 12.98L85.6813 13.114L85.8154 13.2481L85.9494 13.3821L86.0804 13.5162L86.2602 13.6929L86.3486 13.8727L86.4826 14.0068L86.6167 14.1835L86.7508 14.4059L86.8391 14.5857L86.9275 14.8081L87.0189 15.0305L87.1072 15.2529L87.1956 15.4753L87.284 15.7435L87.3297 16.0116L87.3754 16.2797L87.4637 16.5448V16.8586L87.5521 17.4832V18.1962L87.5094 18.9518L87.4637 19.7989L87.418 20.1127L87.3754 20.3778L87.284 20.6916L87.1956 20.9597L87.0615 21.2248L86.9275 21.4929L86.7934 21.7611L86.6167 21.9835L86.4369 22.2059L86.2602 22.4283L86.0378 22.6507L85.8154 22.8762L85.5899 23.0529L85.3675 23.2327L85.1024 23.4094L84.8343 23.5435L84.5661 23.6775L84.298 23.8543L83.9872 23.9457L83.7191 24.0797L83.4083 24.2107L83.0945 24.3021L82.4272 24.4789L81.7569 24.5672L81.0897 24.6586L80.4224 24.747H79.7521L79.0391 24.7013L78.3718 24.6586L77.7015 24.5672L77.0769 24.4362L76.4554 24.2564L75.8308 24.034L75.5626 23.9L75.2518 23.7659L74.9837 23.6318L74.7613 23.4978L74.4932 23.3668L74.2708 23.187L74.0483 23.0072L73.8259 22.8305L73.6004 22.6507L73.4237 22.4283L73.244 22.2516L73.1099 22.0292L72.9332 21.8068L72.8875 21.6727L72.7991 21.5386L72.7534 21.4472L72.7108 21.3162L72.665 21.1821L72.6224 21.0481L72.5767 20.914L72.531 20.78V20.6459L72.4883 20.5118V20.3778L72.4426 20.2468V20.1127V19.9786Z" fill="#074CA1"/>
<path d="M7.23311 2.10559L6.34342 2.19395L5.49639 2.28231L5.0942 2.37067L4.73772 2.46207L4.38124 2.55044L4.02475 2.63879L3.71397 2.77286L3.40014 2.90692L3.08936 3.04098L2.82124 3.17504L2.55311 3.30911L2.33069 3.48582L2.10827 3.66559L1.88584 3.84231L1.70913 4.02208L1.48366 4.19879L1.34959 4.42122L1.17288 4.60098L1.03881 4.8234L0.904751 5.04582L0.770689 5.26825L0.682329 5.49067L0.548267 5.71614L0.459907 5.93856L0.414204 6.16098L0.325845 6.42911L0.280142 6.65153L0.237485 6.87395L0.191782 7.14207V7.3645L0.149126 7.85504V8.34559L0.191782 8.83614L0.237485 9.32668L0.325845 9.77153L0.459907 10.2164L0.59397 10.6612L0.728032 11.0634L0.862095 11.4656L1.03881 11.8221L1.21858 12.1786L1.3953 12.4893L1.57506 12.7575L1.66342 12.8915L1.75178 12.9799L1.84014 13.0682L1.93155 13.1597L2.01991 13.248L2.06561 13.2907H2.10827L2.68717 13.7812L3.22342 14.1834L3.80233 14.5399L4.33858 14.8507L5.36233 15.3869L6.29772 15.8318L7.14475 16.2339L7.50124 16.4564L7.85772 16.6361L8.03749 16.7672L8.17155 16.8586L8.30561 16.9926L8.43663 17.1267L8.57069 17.2577L8.61639 17.3034L8.6621 17.3918L8.70475 17.4375L8.75045 17.5258L8.79311 17.6142L8.83881 17.7056L8.92717 17.8397L9.01858 18.0164L9.06124 18.1961L9.10694 18.3272L9.14959 18.4612V18.641L9.1953 18.775V18.9091V19.0432L9.14959 19.1742V19.3082L9.10694 19.3997L9.06124 19.5307L9.01858 19.6221L8.97288 19.7561L8.92717 19.8445L8.88452 19.9329L8.79311 20.0212L8.70475 20.1126L8.6621 20.201L8.57069 20.2467L8.48233 20.335L8.39397 20.3777L8.34827 20.4234L8.25991 20.4691L8.17155 20.5118L8.08014 20.5575L7.99178 20.6032H7.94913H7.90342H7.85772H7.81506H7.76936H7.72366H7.681H7.6353H7.45858H7.27881L7.10209 20.5575L6.96803 20.5118H6.87663L6.83397 20.4691L6.74561 20.4234H6.69991L6.61155 20.3777L6.56584 20.335H6.52014L6.47749 20.2893L6.43178 20.2467L6.38913 20.201L6.34342 20.1553L6.29772 20.1126L6.25506 20.0669L6.20936 20.0212L6.16366 19.9786V19.9329L6.121 19.8872L6.0753 19.8445V19.7988L6.02959 19.7561V19.6647L5.98694 19.6221L5.94124 19.5307V19.3997L5.89858 19.2656V19.1315L5.85288 18.9975V18.7293V18.4186L5.89858 17.1693H-0.0306396V19.9786V20.1126V20.2467L0.0150635 20.3777V20.5118L0.0577197 20.6458V20.7799L0.103423 20.914L0.149126 21.048L0.191782 21.1821L0.237485 21.3161L0.280142 21.4472L0.371548 21.5386L0.414204 21.6726L0.459907 21.8067L0.636626 22.0291L0.770689 22.2515L0.950454 22.4283L1.12717 22.6507L1.34959 22.8304L1.57506 23.0072L1.79749 23.1869L2.01991 23.3667L2.28803 23.4977L2.55311 23.6318L2.82124 23.7658L3.08936 23.8999L3.35749 24.034L3.98209 24.2564L4.60366 24.4361L5.22827 24.5672L5.89858 24.6586L6.61155 24.7012L7.27881 24.7469H7.94913L8.6621 24.6586L9.32936 24.5672L9.95397 24.4788L10.6212 24.3021L10.9351 24.2107L11.2458 24.0797L11.514 23.9456L11.8248 23.8542L12.0929 23.6775L12.361 23.5434L12.6291 23.4093L12.8942 23.2326L13.1166 23.0529L13.3848 22.8761L13.5645 22.6507L13.7869 22.4283L13.9637 22.2058L14.1434 21.9834L14.3201 21.761L14.4542 21.4929L14.5883 21.2247L14.7223 20.9597L14.8107 20.6915L14.9021 20.3777L14.9448 20.1126L14.9905 19.7988L15.0331 18.9518L15.0788 18.1961V17.4832L15.0331 16.8586L14.9905 16.5447L14.9448 16.2796L14.8564 16.0115L14.8107 15.7434L14.7223 15.4753L14.6766 15.2529L14.5883 15.0304L14.4542 14.808L14.3658 14.5856L14.2775 14.4058L14.1434 14.1834L14.0094 14.0067L13.921 13.8726L13.7869 13.6929L13.6529 13.5161L13.4731 13.3821L13.3421 13.248L13.208 13.114L13.0283 12.9799L12.8942 12.8458L12.5377 12.6234L12.1812 12.4467L11.8248 12.2212L11.4683 12.0445L10.7096 11.688L9.10694 10.975L8.75045 10.7953L8.34827 10.5729L7.99178 10.3504L7.58959 10.0823L7.23311 9.81419L6.92233 9.5034L6.74561 9.32668L6.56584 9.14692L6.43178 8.96715L6.25506 8.79044L6.16366 8.61067L6.121 8.47965L6.0753 8.34559L6.02959 8.16582L5.98694 8.03176V7.8977V7.85504V7.76669V7.72098V7.63262V7.58692V7.54121V7.45286V7.40715V7.3645L6.02959 7.31879V7.27614L6.0753 7.18473V7.14207V7.09637L6.121 7.05067V7.00801L6.16366 6.96231L6.20936 6.91965V6.87395L6.25506 6.82825L6.29772 6.78559L6.38913 6.69418L6.43178 6.60583L6.52014 6.56317L6.61155 6.51746L6.6542 6.47176L6.74561 6.38341H6.83397L6.92233 6.3377L6.96803 6.29504L7.05639 6.24934H7.14475L7.23311 6.20669H7.32452H7.36717H7.45858H7.6353H7.81506H7.99178L8.17155 6.24934L8.30561 6.29504H8.34827L8.43663 6.3377H8.48233L8.52803 6.38341L8.61639 6.42911H8.6621L8.70475 6.47176L8.75045 6.51746H8.79311L8.83881 6.56317L8.88452 6.60583L8.92717 6.65153V6.69418L8.97288 6.73989H9.01858L9.06124 6.78559V6.82825L9.10694 6.87395V6.96231L9.14959 7.00801V7.05067L9.1953 7.09637V7.18473L9.241 7.31879V7.40715L9.28366 7.54121V7.80934V8.07747L9.241 9.32668H14.634V6.38341V6.24934V6.07262L14.5883 5.93856V5.7588L14.5456 5.62473L14.4999 5.49067L14.4542 5.35966V5.22559L14.3658 5.09153L14.3201 4.95747L14.2775 4.86911L14.1891 4.73505L14.1434 4.60098L14.0551 4.51262L13.9637 4.37856L13.921 4.28715L13.8296 4.19879L13.7412 4.11044L13.6072 3.97637L13.5188 3.88801L13.3421 3.70825L13.1166 3.53153L12.8515 3.39747L12.6291 3.2634L12.361 3.12934L12.0929 2.99528L11.8248 2.86121L11.514 2.77286L10.9351 2.59614L10.3105 2.46207L9.73155 2.32801L9.06124 2.23965L8.43663 2.19395L7.23311 2.10559Z" fill="#074CA1"/>
<path d="M149.239 25.5056L149.909 25.5482L150.576 25.5056L151.155 25.4599L151.692 25.4142L152.182 25.3258L152.627 25.1917L152.849 25.1491L153.072 25.0577L153.252 25.015L153.428 24.9267L153.608 24.8353L153.785 24.7469L153.965 24.6585L154.099 24.5671L154.275 24.4788L154.409 24.3447L154.543 24.2564L154.632 24.1223L154.766 24.0339L154.854 23.8999L154.988 23.7658L155.077 23.6317L155.168 23.5434L155.256 23.4093L155.345 23.2753L155.39 23.1412L155.479 23.0071L155.525 22.8761L155.613 22.5623L155.701 22.2942L155.79 22.0291L155.835 21.7153L155.881 21.4471L155.924 21.1363L155.969 20.8682V20.2893V19.7561V18.8177V13.0682H148.971V16.1456H150.397V19.7561V19.8445V19.9328V19.9785L150.354 20.0669V20.1553V20.201L150.308 20.2893L150.266 20.335V20.4234L150.22 20.4691L150.174 20.5574L150.132 20.6031L150.086 20.6915L150.04 20.7342L149.998 20.7799L149.952 20.8256L149.909 20.8682L149.863 20.9139L149.775 20.9596L149.729 21.0023L149.684 21.048L149.595 21.0906L149.55 21.1363L149.461 21.1821H149.419L149.327 21.2247H149.285L149.193 21.2704H149.105H149.016H148.971H148.882H148.794H148.706H148.66H148.572L148.48 21.2247H148.438L148.349 21.1821H148.303L148.215 21.1363L148.169 21.0906L148.081 21.048L148.035 21.0023L147.99 20.9596L147.901 20.9139L147.859 20.8682L147.813 20.8256L147.767 20.7799L147.725 20.7342L147.679 20.6915L147.633 20.6031L147.59 20.5574L147.545 20.4691L147.502 20.4234V20.335L147.456 20.2893L147.411 20.201V20.1553V20.0669L147.368 19.9785V19.9328V19.8445V19.7561V7.94338V7.89768V7.80932V7.72096L147.411 7.6326V7.5869V7.49854L147.456 7.45284L147.502 7.36447V7.31877L147.545 7.23042L147.59 7.18471L147.633 7.09635L147.679 7.05065L147.725 7.00799L147.767 6.91963L147.813 6.87393L147.859 6.82823L147.901 6.78557L147.99 6.73987L148.035 6.69416L148.081 6.65151L148.169 6.6058H148.215L148.303 6.56315L148.349 6.51744H148.438L148.48 6.47174H148.572H148.66L148.706 6.42909H148.794H148.882H148.971H149.016L149.105 6.47174H149.193H149.285L149.327 6.51744H149.419L149.461 6.56315L149.55 6.6058H149.595L149.684 6.65151L149.729 6.69416L149.775 6.73987L149.863 6.78557L149.909 6.82823L149.952 6.87393L149.998 6.91963L150.04 7.00799L150.086 7.05065L150.132 7.09635L150.174 7.18471L150.22 7.23042L150.266 7.31877V7.36447L150.308 7.45284L150.354 7.49854V7.5869V7.6326L150.397 7.72096V7.80932V7.89768V7.94338V9.90557H155.969V7.49854L155.924 7.18471V7.05065V6.87393L155.881 6.73987V6.6058L155.835 6.47174L155.79 6.33768L155.747 6.20667L155.701 6.0726L155.659 5.93854L155.613 5.80448L155.525 5.67041L155.479 5.58205L155.345 5.31393L155.168 5.09151L155.034 4.86909L154.812 4.68932L154.632 4.4669L154.409 4.28713L154.187 4.11041L153.965 3.93065L153.742 3.79963L153.474 3.61987L153.206 3.4858L152.938 3.35174L152.627 3.21768L152.359 3.12932L152.048 3.04096L151.423 2.86119L150.799 2.72713L150.132 2.59612L149.461 2.55042H148.794H148.124L147.502 2.59612L146.832 2.68447L146.207 2.81854L145.586 2.99526L145.272 3.08666L145.004 3.21768L144.693 3.30908L144.425 3.44315L144.157 3.57417L143.892 3.75393L143.669 3.88799L143.444 4.06471L143.221 4.24448L142.999 4.4212L142.776 4.64666L142.597 4.82338L142.466 5.0458L142.286 5.26823L142.152 5.49065L142.109 5.62471L142.018 5.75877L141.975 5.84713L141.929 5.98119L141.884 6.11526L141.841 6.24932L141.795 6.38338L141.75 6.51744V6.65151L141.707 6.82823V6.96229V7.09635L141.661 7.40713V20.6915V20.8682L141.707 21.0906V21.2704V21.4471L141.75 21.6269L141.795 21.8067L141.841 21.9834L141.884 22.1631L141.929 22.2942L141.975 22.4739L142.063 22.608L142.109 22.7421L142.197 22.8761L142.286 23.0071L142.332 23.1412L142.42 23.2753L142.554 23.4093L142.642 23.5434L142.731 23.6317L142.822 23.7658L142.953 23.8542L143.045 23.9456L143.31 24.168L143.535 24.3447L143.8 24.4788L144.068 24.6128L144.382 24.7469L144.647 24.881L144.961 25.015L145.272 25.1034L145.586 25.1917L146.207 25.3258L146.832 25.4142L147.502 25.5056H148.124L148.706 25.5482L149.239 25.5056Z" fill="#074CA1"/>
</g>
<defs>
<clipPath id="clip0_269_5129">
<rect width="156" height="28.3359" fill="white"/>
</clipPath>
</defs>
</svg>
