<svg width="16" height="16" viewBox="0 0 16 16" fill="none" xmlns="http://www.w3.org/2000/svg">
<g clip-path="url(#clip0_357_1430)">
<path d="M12.0203 11.078L14.8757 13.9326L13.9323 14.876L11.0777 12.0206C10.0155 12.8721 8.69434 13.3352 7.33301 13.3333C4.02101 13.3333 1.33301 10.6453 1.33301 7.33331C1.33301 4.02131 4.02101 1.33331 7.33301 1.33331C10.645 1.33331 13.333 4.02131 13.333 7.33331C13.3349 8.69465 12.8718 10.0158 12.0203 11.078ZM10.683 10.5833C11.5291 9.71324 12.0016 8.54693 11.9997 7.33331C11.9997 4.75465 9.91101 2.66665 7.33301 2.66665C4.75434 2.66665 2.66634 4.75465 2.66634 7.33331C2.66634 9.91131 4.75434 12 7.33301 12C8.54663 12.0019 9.71293 11.5294 10.583 10.6833L10.683 10.5833Z" fill="#98A2B3"/>
</g>
<defs>
<clipPath id="clip0_357_1430">
<rect width="16" height="16" fill="white"/>
</clipPath>
</defs>
</svg>
