<svg width="14" height="14" viewBox="0 0 14 14" fill="none" xmlns="http://www.w3.org/2000/svg">
<g clip-path="url(#clip0_945_560)">
<path d="M2.33366 9.33334V2.33334H1.16699V1.16667H2.91699C3.0717 1.16667 3.22007 1.22813 3.32947 1.33753C3.43887 1.44692 3.50033 1.5953 3.50033 1.75001V8.75H10.7558L11.9225 4.08334H4.66699V2.91667H12.6703C12.759 2.91667 12.8465 2.93689 12.9262 2.97578C13.0059 3.01468 13.0756 3.07123 13.1302 3.14113C13.1847 3.21103 13.2226 3.29245 13.241 3.3792C13.2594 3.46595 13.2577 3.55574 13.2362 3.64176L11.7778 9.47509C11.7462 9.60123 11.6734 9.7132 11.5709 9.79321C11.4683 9.87321 11.342 9.91667 11.212 9.91667H2.91699C2.76228 9.91667 2.61391 9.85521 2.50451 9.74582C2.39512 9.63642 2.33366 9.48805 2.33366 9.33334ZM3.50033 13.4167C3.19091 13.4167 2.89416 13.2938 2.67537 13.075C2.45658 12.8562 2.33366 12.5594 2.33366 12.25C2.33366 11.9406 2.45658 11.6438 2.67537 11.425C2.89416 11.2063 3.19091 11.0833 3.50033 11.0833C3.80974 11.0833 4.10649 11.2063 4.32528 11.425C4.54408 11.6438 4.66699 11.9406 4.66699 12.25C4.66699 12.5594 4.54408 12.8562 4.32528 13.075C4.10649 13.2938 3.80974 13.4167 3.50033 13.4167ZM10.5003 13.4167C10.1909 13.4167 9.89416 13.2938 9.67537 13.075C9.45658 12.8562 9.33366 12.5594 9.33366 12.25C9.33366 11.9406 9.45658 11.6438 9.67537 11.425C9.89416 11.2063 10.1909 11.0833 10.5003 11.0833C10.8097 11.0833 11.1065 11.2063 11.3253 11.425C11.5441 11.6438 11.667 11.9406 11.667 12.25C11.667 12.5594 11.5441 12.8562 11.3253 13.075C11.1065 13.2938 10.8097 13.4167 10.5003 13.4167Z" fill="#F9FAFB"/>
</g>
<defs>
<clipPath id="clip0_945_560">
<rect width="14" height="14" fill="white"/>
</clipPath>
</defs>
</svg>
