<svg width="134" height="22" viewBox="0 0 134 22" fill="none" xmlns="http://www.w3.org/2000/svg">
<path d="M23.5086 0.985106H26.0812V7.59139H23.5086C22.2418 3.48086 15.8297 2.88168 11.8438 2.88168C8.32887 2.88168 5.72214 3.76015 5.72214 5.48154C5.72214 7.48476 10.6477 7.52031 14.6337 8.04587C19.7424 8.71361 27.2407 8.60697 27.2407 15.1092C27.2407 20.2403 20.2135 21.9617 15.8297 21.9973C7.96769 21.9973 5.50492 19.8189 3.73047 19.8189C3.22273 19.8189 2.96886 20.2759 2.96886 21.2254H0.396174V13.8092H2.96886C3.94769 18.2727 11.0115 19.2552 14.0186 19.2552C16.1202 19.2552 21.5902 18.8693 21.5902 16.4091C21.5902 14.0885 18.1119 14.2307 13.838 13.634C9.20039 13.0018 0.000976562 12.8597 0.000976562 6.85257C0.000976562 2.21394 5.3636 0 11.3386 0C18.2951 0 21.7707 2.17839 22.7862 2.17839C23.2547 2.21647 23.5086 1.79502 23.5086 0.985106Z" fill="#F9FAFB"/>
<path d="M47.6721 0.00268555C38.2162 0.00268555 31.9873 4.71239 31.9873 11.0013C31.9873 17.2928 38.2555 22 47.6721 22C57.128 22 63.3569 17.2902 63.3569 11.0013C63.3569 4.74539 57.0888 0.00268555 47.6721 0.00268555ZM47.6721 2.95292C53.0688 2.95292 56.6569 6.3957 56.6569 11.0369C56.6569 15.6399 53.0714 19.1208 47.6721 19.1208C42.2755 19.1208 38.6873 15.678 38.6873 11.0369C38.6507 6.39824 42.2362 2.95292 47.6721 2.95292Z" fill="#F9FAFB"/>
<path d="M94.9486 20.8069H90.8186L74.2623 7.06624V17.2931C74.2623 17.9963 74.6235 18.3112 75.3118 18.3112H78.3556V20.8069H65.9658V18.3112H69.0096C69.6979 18.3112 70.0591 17.9608 70.0591 17.2931V4.7812C70.0591 4.11346 69.6979 3.76311 69.0096 3.76311H65.9658V1.26733H76.3639L90.782 13.2155V4.7812C90.782 4.11346 90.4208 3.76311 89.7325 3.76311H86.6887V1.26733H99.0785V3.76311H96.0347C95.3097 3.76311 94.9852 4.11346 94.9852 4.7812V20.8069H94.9486Z" fill="#F9FAFB"/>
<path d="M121.827 1.23145H133.999V3.72722H131.607C130.592 3.72722 129.76 4.07759 129.071 4.74533L120.921 13.1796V17.2572C120.921 17.9604 121.282 18.2753 121.971 18.2753H125.015V20.771H110.343V18.2753H113.386C114.111 18.2753 114.436 17.9249 114.436 17.2572V13.4259L106.069 4.74533C105.38 4.07759 104.548 3.72722 103.533 3.72722H101.141V1.23145H116.103V3.72722H114.617C114.255 3.72722 114.038 3.83385 113.928 4.07759C113.818 4.32387 113.855 4.5346 114.038 4.74533L118.964 9.84096L123.889 4.74533C124.07 4.5346 124.106 4.32387 123.999 4.07759C123.889 3.83131 123.672 3.72722 123.311 3.72722H121.824L121.827 1.23145Z" fill="#F9FAFB"/>
</svg>
