<svg width="269" height="417" viewBox="0 0 269 417" fill="none" xmlns="http://www.w3.org/2000/svg">
<path d="M129.508 -107.72L130.006 -106.854L129.508 -107.72L53.5076 -64.0204C51.9563 -63.1284 51 -61.4754 51 -59.6859V27.6867C51 29.4757 51.9557 31.1283 53.5063 32.0205L129.449 75.7196C130.991 76.6074 132.89 76.608 134.433 75.7212L210.491 32.0204C212.043 31.1286 213 29.4751 213 27.685V-59.6859C213 -61.4754 212.044 -63.1284 210.492 -64.0204L134.492 -107.72C132.949 -108.608 131.051 -108.608 129.508 -107.72Z" stroke="#854EFF" stroke-width="2"/>
<path d="M134.184 75.2877L210.242 31.5868C211.639 30.7842 212.5 29.2961 212.5 27.685V-59.6859C212.5 -61.2964 211.639 -62.7842 210.243 -63.587L134.243 -107.287C132.854 -108.086 131.146 -108.086 129.757 -107.287L53.7569 -63.587C52.3607 -62.7842 51.5 -61.2964 51.5 -59.6859V27.6867C51.5 29.2968 52.3602 30.7841 53.7556 31.5871L129.698 75.2863C131.086 76.0853 132.795 76.0858 134.184 75.2877Z" stroke="#D9C8FF"/>
<g filter="url(#filter0_f_792_6760)">
<path d="M129.508 -107.72L130.006 -106.854L129.508 -107.72L53.5076 -64.0204C51.9563 -63.1284 51 -61.4754 51 -59.6859V27.6867C51 29.4757 51.9557 31.1283 53.5063 32.0205L129.449 75.7196C130.991 76.6074 132.89 76.608 134.433 75.7212L210.491 32.0204C212.043 31.1286 213 29.4751 213 27.685V-59.6859C213 -61.4754 212.044 -63.1284 210.492 -64.0204L134.492 -107.72C132.949 -108.608 131.051 -108.608 129.508 -107.72Z" stroke="#854EFF" stroke-width="2"/>
</g>
<g filter="url(#filter1_f_792_6760)">
<path d="M129.508 -107.72L130.006 -106.854L129.508 -107.72L53.5076 -64.0204C51.9563 -63.1284 51 -61.4754 51 -59.6859V27.6867C51 29.4757 51.9557 31.1283 53.5063 32.0205L129.449 75.7196C130.991 76.6074 132.89 76.608 134.433 75.7212L210.491 32.0204C212.043 31.1286 213 29.4751 213 27.685V-59.6859C213 -61.4754 212.044 -63.1284 210.492 -64.0204L134.492 -107.72C132.949 -108.608 131.051 -108.608 129.508 -107.72Z" stroke="#854EFF" stroke-width="2"/>
</g>
<g filter="url(#filter2_f_792_6760)">
<path d="M129.508 -107.72L130.006 -106.854L129.508 -107.72L53.5076 -64.0204C51.9563 -63.1284 51 -61.4754 51 -59.6859V27.6867C51 29.4757 51.9557 31.1283 53.5063 32.0205L129.449 75.7196C130.991 76.6074 132.89 76.608 134.433 75.7212L210.491 32.0204C212.043 31.1286 213 29.4751 213 27.685V-59.6859C213 -61.4754 212.044 -63.1284 210.492 -64.0204L134.492 -107.72C132.949 -108.608 131.051 -108.608 129.508 -107.72Z" stroke="#854EFF" stroke-width="2"/>
</g>
<g filter="url(#filter3_f_792_6760)">
<path d="M129.508 -107.72L130.006 -106.854L129.508 -107.72L53.5076 -64.0204C51.9563 -63.1284 51 -61.4754 51 -59.6859V27.6867C51 29.4757 51.9557 31.1283 53.5063 32.0205L129.449 75.7196C130.991 76.6074 132.89 76.608 134.433 75.7212L210.491 32.0204C212.043 31.1286 213 29.4751 213 27.685V-59.6859C213 -61.4754 212.044 -63.1284 210.492 -64.0204L134.492 -107.72C132.949 -108.608 131.051 -108.608 129.508 -107.72Z" stroke="#854EFF" stroke-width="2"/>
</g>
<path d="M296.508 -107.72L297.006 -106.854L296.508 -107.72L220.508 -64.0204C218.956 -63.1284 218 -61.4754 218 -59.6859V27.6867C218 29.4757 218.956 31.1283 220.506 32.0205L296.449 75.7196C297.991 76.6074 299.89 76.608 301.433 75.7212L377.491 32.0204C379.043 31.1286 380 29.4751 380 27.685V-59.6859C380 -61.4754 379.044 -63.1284 377.492 -64.0204L301.492 -107.72C299.949 -108.608 298.051 -108.608 296.508 -107.72Z" stroke="#854EFF" stroke-width="2"/>
<path d="M301.184 75.2877L377.242 31.5868C378.639 30.7842 379.5 29.2961 379.5 27.685V-59.6859C379.5 -61.2964 378.639 -62.7842 377.243 -63.587L301.243 -107.287C299.854 -108.086 298.146 -108.086 296.757 -107.287L220.757 -63.587C219.361 -62.7842 218.5 -61.2964 218.5 -59.6859V27.6867C218.5 29.2968 219.36 30.7841 220.756 31.5871L296.698 75.2863C298.086 76.0853 299.795 76.0858 301.184 75.2877Z" stroke="#D9C8FF"/>
<g filter="url(#filter4_f_792_6760)">
<path d="M296.508 -107.72L297.006 -106.854L296.508 -107.72L220.508 -64.0204C218.956 -63.1284 218 -61.4754 218 -59.6859V27.6867C218 29.4757 218.956 31.1283 220.506 32.0205L296.449 75.7196C297.991 76.6074 299.89 76.608 301.433 75.7212L377.491 32.0204C379.043 31.1286 380 29.4751 380 27.685V-59.6859C380 -61.4754 379.044 -63.1284 377.492 -64.0204L301.492 -107.72C299.949 -108.608 298.051 -108.608 296.508 -107.72Z" stroke="#854EFF" stroke-width="2"/>
</g>
<g filter="url(#filter5_f_792_6760)">
<path d="M296.508 -107.72L297.006 -106.854L296.508 -107.72L220.508 -64.0204C218.956 -63.1284 218 -61.4754 218 -59.6859V27.6867C218 29.4757 218.956 31.1283 220.506 32.0205L296.449 75.7196C297.991 76.6074 299.89 76.608 301.433 75.7212L377.491 32.0204C379.043 31.1286 380 29.4751 380 27.685V-59.6859C380 -61.4754 379.044 -63.1284 377.492 -64.0204L301.492 -107.72C299.949 -108.608 298.051 -108.608 296.508 -107.72Z" stroke="#854EFF" stroke-width="2"/>
</g>
<g filter="url(#filter6_f_792_6760)">
<path d="M296.508 -107.72L297.006 -106.854L296.508 -107.72L220.508 -64.0204C218.956 -63.1284 218 -61.4754 218 -59.6859V27.6867C218 29.4757 218.956 31.1283 220.506 32.0205L296.449 75.7196C297.991 76.6074 299.89 76.608 301.433 75.7212L377.491 32.0204C379.043 31.1286 380 29.4751 380 27.685V-59.6859C380 -61.4754 379.044 -63.1284 377.492 -64.0204L301.492 -107.72C299.949 -108.608 298.051 -108.608 296.508 -107.72Z" stroke="#854EFF" stroke-width="2"/>
</g>
<g filter="url(#filter7_f_792_6760)">
<path d="M296.508 -107.72L297.006 -106.854L296.508 -107.72L220.508 -64.0204C218.956 -63.1284 218 -61.4754 218 -59.6859V27.6867C218 29.4757 218.956 31.1283 220.506 32.0205L296.449 75.7196C297.991 76.6074 299.89 76.608 301.433 75.7212L377.491 32.0204C379.043 31.1286 380 29.4751 380 27.685V-59.6859C380 -61.4754 379.044 -63.1284 377.492 -64.0204L301.492 -107.72C299.949 -108.608 298.051 -108.608 296.508 -107.72Z" stroke="#854EFF" stroke-width="2"/>
</g>
<path d="M212.508 37.2796L213.006 38.1465L212.508 37.2796L136.508 80.9796C134.956 81.8716 134 83.5246 134 85.3141V172.687C134 174.476 134.956 176.128 136.506 177.02L212.449 220.72C213.991 221.607 215.89 221.608 217.433 220.721L293.491 177.02C295.043 176.129 296 174.475 296 172.685V85.3141C296 83.5246 295.044 81.8716 293.492 80.9796L217.492 37.2796C215.949 36.3923 214.051 36.3923 212.508 37.2796Z" stroke="#854EFF" stroke-width="2"/>
<path d="M217.184 220.288L293.242 176.587C294.639 175.784 295.5 174.296 295.5 172.685V85.3141C295.5 83.7036 294.639 82.2158 293.243 81.413L217.243 37.713C215.854 36.9145 214.146 36.9145 212.757 37.713L136.757 81.413C135.361 82.2158 134.5 83.7036 134.5 85.3141V172.687C134.5 174.297 135.36 175.784 136.756 176.587L212.698 220.286C214.086 221.085 215.795 221.086 217.184 220.288Z" stroke="#D9C8FF"/>
<g filter="url(#filter8_f_792_6760)">
<path d="M212.508 37.2796L213.006 38.1465L212.508 37.2796L136.508 80.9796C134.956 81.8716 134 83.5246 134 85.3141V172.687C134 174.476 134.956 176.128 136.506 177.02L212.449 220.72C213.991 221.607 215.89 221.608 217.433 220.721L293.491 177.02C295.043 176.129 296 174.475 296 172.685V85.3141C296 83.5246 295.044 81.8716 293.492 80.9796L217.492 37.2796C215.949 36.3923 214.051 36.3923 212.508 37.2796Z" stroke="#854EFF" stroke-width="2"/>
</g>
<g filter="url(#filter9_f_792_6760)">
<path d="M212.508 37.2796L213.006 38.1465L212.508 37.2796L136.508 80.9796C134.956 81.8716 134 83.5246 134 85.3141V172.687C134 174.476 134.956 176.128 136.506 177.02L212.449 220.72C213.991 221.607 215.89 221.608 217.433 220.721L293.491 177.02C295.043 176.129 296 174.475 296 172.685V85.3141C296 83.5246 295.044 81.8716 293.492 80.9796L217.492 37.2796C215.949 36.3923 214.051 36.3923 212.508 37.2796Z" stroke="#854EFF" stroke-width="2"/>
</g>
<g filter="url(#filter10_f_792_6760)">
<path d="M212.508 37.2796L213.006 38.1465L212.508 37.2796L136.508 80.9796C134.956 81.8716 134 83.5246 134 85.3141V172.687C134 174.476 134.956 176.128 136.506 177.02L212.449 220.72C213.991 221.607 215.89 221.608 217.433 220.721L293.491 177.02C295.043 176.129 296 174.475 296 172.685V85.3141C296 83.5246 295.044 81.8716 293.492 80.9796L217.492 37.2796C215.949 36.3923 214.051 36.3923 212.508 37.2796Z" stroke="#854EFF" stroke-width="2"/>
</g>
<g filter="url(#filter11_f_792_6760)">
<path d="M212.508 37.2796L213.006 38.1465L212.508 37.2796L136.508 80.9796C134.956 81.8716 134 83.5246 134 85.3141V172.687C134 174.476 134.956 176.128 136.506 177.02L212.449 220.72C213.991 221.607 215.89 221.608 217.433 220.721L293.491 177.02C295.043 176.129 296 174.475 296 172.685V85.3141C296 83.5246 295.044 81.8716 293.492 80.9796L217.492 37.2796C215.949 36.3923 214.051 36.3923 212.508 37.2796Z" stroke="#854EFF" stroke-width="2"/>
</g>
<path d="M295.508 181.28L296.006 182.146L295.508 181.28L219.508 224.98C217.956 225.872 217 227.525 217 229.314V316.687C217 318.476 217.956 320.128 219.506 321.02L295.449 364.72C296.991 365.607 298.89 365.608 300.433 364.721L376.491 321.02C378.043 320.129 379 318.475 379 316.685V229.314C379 227.525 378.044 225.872 376.492 224.98L300.492 181.28C298.949 180.392 297.051 180.392 295.508 181.28Z" stroke="#854EFF" stroke-width="2"/>
<path d="M300.184 364.288L376.242 320.587C377.639 319.784 378.5 318.296 378.5 316.685V229.314C378.5 227.704 377.639 226.216 376.243 225.413L300.243 181.713C298.854 180.914 297.146 180.914 295.757 181.713L219.757 225.413C218.361 226.216 217.5 227.704 217.5 229.314V316.687C217.5 318.297 218.36 319.784 219.756 320.587L295.698 364.286C297.086 365.085 298.795 365.086 300.184 364.288Z" stroke="#D9C8FF"/>
<g filter="url(#filter12_f_792_6760)">
<path d="M295.508 181.28L296.006 182.146L295.508 181.28L219.508 224.98C217.956 225.872 217 227.525 217 229.314V316.687C217 318.476 217.956 320.128 219.506 321.02L295.449 364.72C296.991 365.607 298.89 365.608 300.433 364.721L376.491 321.02C378.043 320.129 379 318.475 379 316.685V229.314C379 227.525 378.044 225.872 376.492 224.98L300.492 181.28C298.949 180.392 297.051 180.392 295.508 181.28Z" stroke="#854EFF" stroke-width="2"/>
</g>
<g filter="url(#filter13_f_792_6760)">
<path d="M295.508 181.28L296.006 182.146L295.508 181.28L219.508 224.98C217.956 225.872 217 227.525 217 229.314V316.687C217 318.476 217.956 320.128 219.506 321.02L295.449 364.72C296.991 365.607 298.89 365.608 300.433 364.721L376.491 321.02C378.043 320.129 379 318.475 379 316.685V229.314C379 227.525 378.044 225.872 376.492 224.98L300.492 181.28C298.949 180.392 297.051 180.392 295.508 181.28Z" stroke="#854EFF" stroke-width="2"/>
</g>
<g filter="url(#filter14_f_792_6760)">
<path d="M295.508 181.28L296.006 182.146L295.508 181.28L219.508 224.98C217.956 225.872 217 227.525 217 229.314V316.687C217 318.476 217.956 320.128 219.506 321.02L295.449 364.72C296.991 365.607 298.89 365.608 300.433 364.721L376.491 321.02C378.043 320.129 379 318.475 379 316.685V229.314C379 227.525 378.044 225.872 376.492 224.98L300.492 181.28C298.949 180.392 297.051 180.392 295.508 181.28Z" stroke="#854EFF" stroke-width="2"/>
</g>
<g filter="url(#filter15_f_792_6760)">
<path d="M295.508 181.28L296.006 182.146L295.508 181.28L219.508 224.98C217.956 225.872 217 227.525 217 229.314V316.687C217 318.476 217.956 320.128 219.506 321.02L295.449 364.72C296.991 365.607 298.89 365.608 300.433 364.721L376.491 321.02C378.043 320.129 379 318.475 379 316.685V229.314C379 227.525 378.044 225.872 376.492 224.98L300.492 181.28C298.949 180.392 297.051 180.392 295.508 181.28Z" stroke="#854EFF" stroke-width="2"/>
</g>
<defs>
<filter id="filter0_f_792_6760" x="0" y="-159.386" width="264" height="286.772" filterUnits="userSpaceOnUse" color-interpolation-filters="sRGB">
<feFlood flood-opacity="0" result="BackgroundImageFix"/>
<feBlend mode="normal" in="SourceGraphic" in2="BackgroundImageFix" result="shape"/>
<feGaussianBlur stdDeviation="25" result="effect1_foregroundBlur_792_6760"/>
</filter>
<filter id="filter1_f_792_6760" x="30" y="-129.386" width="204" height="226.772" filterUnits="userSpaceOnUse" color-interpolation-filters="sRGB">
<feFlood flood-opacity="0" result="BackgroundImageFix"/>
<feBlend mode="normal" in="SourceGraphic" in2="BackgroundImageFix" result="shape"/>
<feGaussianBlur stdDeviation="10" result="effect1_foregroundBlur_792_6760"/>
</filter>
<filter id="filter2_f_792_6760" x="35" y="-124.386" width="194" height="216.772" filterUnits="userSpaceOnUse" color-interpolation-filters="sRGB">
<feFlood flood-opacity="0" result="BackgroundImageFix"/>
<feBlend mode="normal" in="SourceGraphic" in2="BackgroundImageFix" result="shape"/>
<feGaussianBlur stdDeviation="7.5" result="effect1_foregroundBlur_792_6760"/>
</filter>
<filter id="filter3_f_792_6760" x="40" y="-119.386" width="184" height="206.772" filterUnits="userSpaceOnUse" color-interpolation-filters="sRGB">
<feFlood flood-opacity="0" result="BackgroundImageFix"/>
<feBlend mode="normal" in="SourceGraphic" in2="BackgroundImageFix" result="shape"/>
<feGaussianBlur stdDeviation="5" result="effect1_foregroundBlur_792_6760"/>
</filter>
<filter id="filter4_f_792_6760" x="167" y="-159.386" width="264" height="286.772" filterUnits="userSpaceOnUse" color-interpolation-filters="sRGB">
<feFlood flood-opacity="0" result="BackgroundImageFix"/>
<feBlend mode="normal" in="SourceGraphic" in2="BackgroundImageFix" result="shape"/>
<feGaussianBlur stdDeviation="25" result="effect1_foregroundBlur_792_6760"/>
</filter>
<filter id="filter5_f_792_6760" x="197" y="-129.386" width="204" height="226.772" filterUnits="userSpaceOnUse" color-interpolation-filters="sRGB">
<feFlood flood-opacity="0" result="BackgroundImageFix"/>
<feBlend mode="normal" in="SourceGraphic" in2="BackgroundImageFix" result="shape"/>
<feGaussianBlur stdDeviation="10" result="effect1_foregroundBlur_792_6760"/>
</filter>
<filter id="filter6_f_792_6760" x="202" y="-124.386" width="194" height="216.772" filterUnits="userSpaceOnUse" color-interpolation-filters="sRGB">
<feFlood flood-opacity="0" result="BackgroundImageFix"/>
<feBlend mode="normal" in="SourceGraphic" in2="BackgroundImageFix" result="shape"/>
<feGaussianBlur stdDeviation="7.5" result="effect1_foregroundBlur_792_6760"/>
</filter>
<filter id="filter7_f_792_6760" x="207" y="-119.386" width="184" height="206.772" filterUnits="userSpaceOnUse" color-interpolation-filters="sRGB">
<feFlood flood-opacity="0" result="BackgroundImageFix"/>
<feBlend mode="normal" in="SourceGraphic" in2="BackgroundImageFix" result="shape"/>
<feGaussianBlur stdDeviation="5" result="effect1_foregroundBlur_792_6760"/>
</filter>
<filter id="filter8_f_792_6760" x="83" y="-14.3859" width="264" height="286.772" filterUnits="userSpaceOnUse" color-interpolation-filters="sRGB">
<feFlood flood-opacity="0" result="BackgroundImageFix"/>
<feBlend mode="normal" in="SourceGraphic" in2="BackgroundImageFix" result="shape"/>
<feGaussianBlur stdDeviation="25" result="effect1_foregroundBlur_792_6760"/>
</filter>
<filter id="filter9_f_792_6760" x="113" y="15.6141" width="204" height="226.772" filterUnits="userSpaceOnUse" color-interpolation-filters="sRGB">
<feFlood flood-opacity="0" result="BackgroundImageFix"/>
<feBlend mode="normal" in="SourceGraphic" in2="BackgroundImageFix" result="shape"/>
<feGaussianBlur stdDeviation="10" result="effect1_foregroundBlur_792_6760"/>
</filter>
<filter id="filter10_f_792_6760" x="118" y="20.6141" width="194" height="216.772" filterUnits="userSpaceOnUse" color-interpolation-filters="sRGB">
<feFlood flood-opacity="0" result="BackgroundImageFix"/>
<feBlend mode="normal" in="SourceGraphic" in2="BackgroundImageFix" result="shape"/>
<feGaussianBlur stdDeviation="7.5" result="effect1_foregroundBlur_792_6760"/>
</filter>
<filter id="filter11_f_792_6760" x="123" y="25.6141" width="184" height="206.772" filterUnits="userSpaceOnUse" color-interpolation-filters="sRGB">
<feFlood flood-opacity="0" result="BackgroundImageFix"/>
<feBlend mode="normal" in="SourceGraphic" in2="BackgroundImageFix" result="shape"/>
<feGaussianBlur stdDeviation="5" result="effect1_foregroundBlur_792_6760"/>
</filter>
<filter id="filter12_f_792_6760" x="166" y="129.614" width="264" height="286.772" filterUnits="userSpaceOnUse" color-interpolation-filters="sRGB">
<feFlood flood-opacity="0" result="BackgroundImageFix"/>
<feBlend mode="normal" in="SourceGraphic" in2="BackgroundImageFix" result="shape"/>
<feGaussianBlur stdDeviation="25" result="effect1_foregroundBlur_792_6760"/>
</filter>
<filter id="filter13_f_792_6760" x="196" y="159.614" width="204" height="226.772" filterUnits="userSpaceOnUse" color-interpolation-filters="sRGB">
<feFlood flood-opacity="0" result="BackgroundImageFix"/>
<feBlend mode="normal" in="SourceGraphic" in2="BackgroundImageFix" result="shape"/>
<feGaussianBlur stdDeviation="10" result="effect1_foregroundBlur_792_6760"/>
</filter>
<filter id="filter14_f_792_6760" x="201" y="164.614" width="194" height="216.772" filterUnits="userSpaceOnUse" color-interpolation-filters="sRGB">
<feFlood flood-opacity="0" result="BackgroundImageFix"/>
<feBlend mode="normal" in="SourceGraphic" in2="BackgroundImageFix" result="shape"/>
<feGaussianBlur stdDeviation="7.5" result="effect1_foregroundBlur_792_6760"/>
</filter>
<filter id="filter15_f_792_6760" x="206" y="169.614" width="184" height="206.772" filterUnits="userSpaceOnUse" color-interpolation-filters="sRGB">
<feFlood flood-opacity="0" result="BackgroundImageFix"/>
<feBlend mode="normal" in="SourceGraphic" in2="BackgroundImageFix" result="shape"/>
<feGaussianBlur stdDeviation="5" result="effect1_foregroundBlur_792_6760"/>
</filter>
</defs>
</svg>
