<svg width="112" height="230" viewBox="0 0 112 230" fill="none" xmlns="http://www.w3.org/2000/svg">
<path d="M79.4689 220.772L79.9752 219.909L79.4689 220.772L101.451 233.675C103.013 234.591 104.948 234.592 106.511 233.676L128.528 220.772C130.059 219.874 131 218.233 131 216.458V190.541C131 188.767 130.06 187.126 128.53 186.228L106.53 173.324C104.968 172.408 103.032 172.408 101.47 173.324L79.4703 186.228C77.9401 187.126 77 188.767 77 190.541V216.46C77 218.233 77.9395 219.874 79.4689 220.772Z" stroke="#854EFF" stroke-width="2"/>
<path d="M106.258 233.245L128.275 220.34C129.653 219.533 130.5 218.055 130.5 216.458V190.541C130.5 188.944 129.654 187.467 128.277 186.66L106.277 173.756C104.871 172.931 103.129 172.931 101.723 173.756L79.7233 186.66C78.3461 187.467 77.5 188.944 77.5 190.541V216.46C77.5 218.056 78.3455 219.533 79.7221 220.341L101.704 233.244C103.11 234.069 104.852 234.069 106.258 233.245Z" stroke="#D9C8FF"/>
<g filter="url(#filter0_f_457_3649)">
<path d="M79.4689 220.772L79.9752 219.909L79.4689 220.772L101.451 233.675C103.013 234.591 104.948 234.592 106.511 233.676L128.528 220.772C130.059 219.874 131 218.233 131 216.458V190.541C131 188.767 130.06 187.126 128.53 186.228L106.53 173.324C104.968 172.408 103.032 172.408 101.47 173.324L79.4703 186.228C77.9401 187.126 77 188.767 77 190.541V216.46C77 218.233 77.9395 219.874 79.4689 220.772Z" stroke="#854EFF" stroke-width="2"/>
</g>
<g filter="url(#filter1_f_457_3649)">
<path d="M79.4689 220.772L79.9752 219.909L79.4689 220.772L101.451 233.675C103.013 234.591 104.948 234.592 106.511 233.676L128.528 220.772C130.059 219.874 131 218.233 131 216.458V190.541C131 188.767 130.06 187.126 128.53 186.228L106.53 173.324C104.968 172.408 103.032 172.408 101.47 173.324L79.4703 186.228C77.9401 187.126 77 188.767 77 190.541V216.46C77 218.233 77.9395 219.874 79.4689 220.772Z" stroke="#854EFF" stroke-width="2"/>
</g>
<g filter="url(#filter2_f_457_3649)">
<path d="M79.4689 220.772L79.9752 219.909L79.4689 220.772L101.451 233.675C103.013 234.591 104.948 234.592 106.511 233.676L128.528 220.772C130.059 219.874 131 218.233 131 216.458V190.541C131 188.767 130.06 187.126 128.53 186.228L106.53 173.324C104.968 172.408 103.032 172.408 101.47 173.324L79.4703 186.228C77.9401 187.126 77 188.767 77 190.541V216.46C77 218.233 77.9395 219.874 79.4689 220.772Z" stroke="#854EFF" stroke-width="2"/>
</g>
<g filter="url(#filter3_f_457_3649)">
<path d="M79.4689 220.772L79.9752 219.909L79.4689 220.772L101.451 233.675C103.013 234.591 104.948 234.592 106.511 233.676L128.528 220.772C130.059 219.874 131 218.233 131 216.458V190.541C131 188.767 130.06 187.126 128.53 186.228L106.53 173.324C104.968 172.408 103.032 172.408 101.47 173.324L79.4703 186.228C77.9401 187.126 77 188.767 77 190.541V216.46C77 218.233 77.9395 219.874 79.4689 220.772Z" stroke="#854EFF" stroke-width="2"/>
</g>
<path d="M53.4689 23.7718L53.9752 22.9094L53.4689 23.7718L75.4512 36.6748C77.0129 37.5914 78.9482 37.5921 80.5105 36.6764L102.528 23.7717C104.059 22.8743 105 21.2327 105 19.458V-6.45887C105 -8.23294 104.06 -9.87417 102.53 -10.7717L80.5297 -23.6756C78.9677 -24.5918 77.0324 -24.5918 75.4703 -23.6756L53.4703 -10.7717C51.9401 -9.87417 51 -8.23294 51 -6.45887V19.4597C51 21.2332 51.9395 22.874 53.4689 23.7718Z" stroke="#854EFF" stroke-width="2"/>
<path d="M80.2577 36.245L102.275 23.3403C103.653 22.5327 104.5 21.0552 104.5 19.458V-6.45887C104.5 -8.05553 103.654 -9.53264 102.277 -10.3404L80.2767 -23.2443C78.8709 -24.0689 77.1291 -24.0689 75.7233 -23.2443L53.7233 -10.3404C52.3461 -9.53264 51.5 -8.05553 51.5 -6.45887V19.4597C51.5 21.0559 52.3455 22.5326 53.7221 23.3406L75.7043 36.2436C77.1099 37.0686 78.8516 37.0691 80.2577 36.245Z" stroke="#D9C8FF"/>
<g filter="url(#filter4_f_457_3649)">
<path d="M53.4689 23.7718L53.9752 22.9094L53.4689 23.7718L75.4512 36.6748C77.0129 37.5914 78.9482 37.5921 80.5105 36.6764L102.528 23.7717C104.059 22.8743 105 21.2327 105 19.458V-6.45887C105 -8.23294 104.06 -9.87417 102.53 -10.7717L80.5297 -23.6756C78.9677 -24.5918 77.0324 -24.5918 75.4703 -23.6756L53.4703 -10.7717C51.9401 -9.87417 51 -8.23294 51 -6.45887V19.4597C51 21.2332 51.9395 22.874 53.4689 23.7718Z" stroke="#854EFF" stroke-width="2"/>
</g>
<g filter="url(#filter5_f_457_3649)">
<path d="M53.4689 23.7718L53.9752 22.9094L53.4689 23.7718L75.4512 36.6748C77.0129 37.5914 78.9482 37.5921 80.5105 36.6764L102.528 23.7717C104.059 22.8743 105 21.2327 105 19.458V-6.45887C105 -8.23294 104.06 -9.87417 102.53 -10.7717L80.5297 -23.6756C78.9677 -24.5918 77.0324 -24.5918 75.4703 -23.6756L53.4703 -10.7717C51.9401 -9.87417 51 -8.23294 51 -6.45887V19.4597C51 21.2332 51.9395 22.874 53.4689 23.7718Z" stroke="#854EFF" stroke-width="2"/>
</g>
<g filter="url(#filter6_f_457_3649)">
<path d="M53.4689 23.7718L53.9752 22.9094L53.4689 23.7718L75.4512 36.6748C77.0129 37.5914 78.9482 37.5921 80.5105 36.6764L102.528 23.7717C104.059 22.8743 105 21.2327 105 19.458V-6.45887C105 -8.23294 104.06 -9.87417 102.53 -10.7717L80.5297 -23.6756C78.9677 -24.5918 77.0324 -24.5918 75.4703 -23.6756L53.4703 -10.7717C51.9401 -9.87417 51 -8.23294 51 -6.45887V19.4597C51 21.2332 51.9395 22.874 53.4689 23.7718Z" stroke="#854EFF" stroke-width="2"/>
</g>
<g filter="url(#filter7_f_457_3649)">
<path d="M53.4689 23.7718L53.9752 22.9094L53.4689 23.7718L75.4512 36.6748C77.0129 37.5914 78.9482 37.5921 80.5105 36.6764L102.528 23.7717C104.059 22.8743 105 21.2327 105 19.458V-6.45887C105 -8.23294 104.06 -9.87417 102.53 -10.7717L80.5297 -23.6756C78.9677 -24.5918 77.0324 -24.5918 75.4703 -23.6756L53.4703 -10.7717C51.9401 -9.87417 51 -8.23294 51 -6.45887V19.4597C51 21.2332 51.9395 22.874 53.4689 23.7718Z" stroke="#854EFF" stroke-width="2"/>
</g>
<path d="M82.4689 74.7718L82.9752 73.9094L82.4689 74.7718L104.451 87.6748C106.013 88.5914 107.948 88.5921 109.511 87.6764L131.528 74.7717C133.059 73.8743 134 72.2327 134 70.458V44.5411C134 42.7671 133.06 41.1258 131.53 40.2283L109.53 27.3244C107.968 26.4082 106.032 26.4082 104.47 27.3244L82.4703 40.2283C80.9401 41.1258 80 42.7671 80 44.5411V70.4597C80 72.2332 80.9395 73.874 82.4689 74.7718Z" stroke="#854EFF" stroke-width="2"/>
<path d="M109.258 87.245L131.275 74.3403C132.653 73.5327 133.5 72.0552 133.5 70.458V44.5411C133.5 42.9445 132.654 41.4674 131.277 40.6596L109.277 27.7557C107.871 26.9311 106.129 26.9311 104.723 27.7557L82.7233 40.6596C81.3461 41.4674 80.5 42.9445 80.5 44.5411V70.4597C80.5 72.0559 81.3455 73.5326 82.7221 74.3406L104.704 87.2436C106.11 88.0686 107.852 88.0691 109.258 87.245Z" stroke="#D9C8FF"/>
<g filter="url(#filter8_f_457_3649)">
<path d="M82.4689 74.7718L82.9752 73.9094L82.4689 74.7718L104.451 87.6748C106.013 88.5914 107.948 88.5921 109.511 87.6764L131.528 74.7717C133.059 73.8743 134 72.2327 134 70.458V44.5411C134 42.7671 133.06 41.1258 131.53 40.2283L109.53 27.3244C107.968 26.4082 106.032 26.4082 104.47 27.3244L82.4703 40.2283C80.9401 41.1258 80 42.7671 80 44.5411V70.4597C80 72.2332 80.9395 73.874 82.4689 74.7718Z" stroke="#854EFF" stroke-width="2"/>
</g>
<g filter="url(#filter9_f_457_3649)">
<path d="M82.4689 74.7718L82.9752 73.9094L82.4689 74.7718L104.451 87.6748C106.013 88.5914 107.948 88.5921 109.511 87.6764L131.528 74.7717C133.059 73.8743 134 72.2327 134 70.458V44.5411C134 42.7671 133.06 41.1258 131.53 40.2283L109.53 27.3244C107.968 26.4082 106.032 26.4082 104.47 27.3244L82.4703 40.2283C80.9401 41.1258 80 42.7671 80 44.5411V70.4597C80 72.2332 80.9395 73.874 82.4689 74.7718Z" stroke="#854EFF" stroke-width="2"/>
</g>
<g filter="url(#filter10_f_457_3649)">
<path d="M82.4689 74.7718L82.9752 73.9094L82.4689 74.7718L104.451 87.6748C106.013 88.5914 107.948 88.5921 109.511 87.6764L131.528 74.7717C133.059 73.8743 134 72.2327 134 70.458V44.5411C134 42.7671 133.06 41.1258 131.53 40.2283L109.53 27.3244C107.968 26.4082 106.032 26.4082 104.47 27.3244L82.4703 40.2283C80.9401 41.1258 80 42.7671 80 44.5411V70.4597C80 72.2332 80.9395 73.874 82.4689 74.7718Z" stroke="#854EFF" stroke-width="2"/>
</g>
<g filter="url(#filter11_f_457_3649)">
<path d="M82.4689 74.7718L82.9752 73.9094L82.4689 74.7718L104.451 87.6748C106.013 88.5914 107.948 88.5921 109.511 87.6764L131.528 74.7717C133.059 73.8743 134 72.2327 134 70.458V44.5411C134 42.7671 133.06 41.1258 131.53 40.2283L109.53 27.3244C107.968 26.4082 106.032 26.4082 104.47 27.3244L82.4703 40.2283C80.9401 41.1258 80 42.7671 80 44.5411V70.4597C80 72.2332 80.9395 73.874 82.4689 74.7718Z" stroke="#854EFF" stroke-width="2"/>
</g>
<path d="M111.469 23.7718L111.975 22.9094L111.469 23.7718L133.451 36.6748C135.013 37.5914 136.948 37.5921 138.511 36.6764L160.528 23.7717C162.059 22.8743 163 21.2327 163 19.458V-6.45887C163 -8.23294 162.06 -9.87417 160.53 -10.7717L138.53 -23.6756C136.968 -24.5918 135.032 -24.5918 133.47 -23.6756L111.47 -10.7717C109.94 -9.87417 109 -8.23294 109 -6.45887V19.4597C109 21.2332 109.939 22.874 111.469 23.7718Z" stroke="#854EFF" stroke-width="2"/>
<path d="M138.258 36.245L160.275 23.3403C161.653 22.5327 162.5 21.0552 162.5 19.458V-6.45887C162.5 -8.05553 161.654 -9.53264 160.277 -10.3404L138.277 -23.2443C136.871 -24.0689 135.129 -24.0689 133.723 -23.2443L111.723 -10.3404C110.346 -9.53264 109.5 -8.05553 109.5 -6.45887V19.4597C109.5 21.0559 110.346 22.5326 111.722 23.3406L133.704 36.2436C135.11 37.0686 136.852 37.0691 138.258 36.245Z" stroke="#D9C8FF"/>
<g filter="url(#filter12_f_457_3649)">
<path d="M111.469 23.7718L111.975 22.9094L111.469 23.7718L133.451 36.6748C135.013 37.5914 136.948 37.5921 138.511 36.6764L160.528 23.7717C162.059 22.8743 163 21.2327 163 19.458V-6.45887C163 -8.23294 162.06 -9.87417 160.53 -10.7717L138.53 -23.6756C136.968 -24.5918 135.032 -24.5918 133.47 -23.6756L111.47 -10.7717C109.94 -9.87417 109 -8.23294 109 -6.45887V19.4597C109 21.2332 109.939 22.874 111.469 23.7718Z" stroke="#854EFF" stroke-width="2"/>
</g>
<g filter="url(#filter13_f_457_3649)">
<path d="M111.469 23.7718L111.975 22.9094L111.469 23.7718L133.451 36.6748C135.013 37.5914 136.948 37.5921 138.511 36.6764L160.528 23.7717C162.059 22.8743 163 21.2327 163 19.458V-6.45887C163 -8.23294 162.06 -9.87417 160.53 -10.7717L138.53 -23.6756C136.968 -24.5918 135.032 -24.5918 133.47 -23.6756L111.47 -10.7717C109.94 -9.87417 109 -8.23294 109 -6.45887V19.4597C109 21.2332 109.939 22.874 111.469 23.7718Z" stroke="#854EFF" stroke-width="2"/>
</g>
<g filter="url(#filter14_f_457_3649)">
<path d="M111.469 23.7718L111.975 22.9094L111.469 23.7718L133.451 36.6748C135.013 37.5914 136.948 37.5921 138.511 36.6764L160.528 23.7717C162.059 22.8743 163 21.2327 163 19.458V-6.45887C163 -8.23294 162.06 -9.87417 160.53 -10.7717L138.53 -23.6756C136.968 -24.5918 135.032 -24.5918 133.47 -23.6756L111.47 -10.7717C109.94 -9.87417 109 -8.23294 109 -6.45887V19.4597C109 21.2332 109.939 22.874 111.469 23.7718Z" stroke="#854EFF" stroke-width="2"/>
</g>
<g filter="url(#filter15_f_457_3649)">
<path d="M111.469 23.7718L111.975 22.9094L111.469 23.7718L133.451 36.6748C135.013 37.5914 136.948 37.5921 138.511 36.6764L160.528 23.7717C162.059 22.8743 163 21.2327 163 19.458V-6.45887C163 -8.23294 162.06 -9.87417 160.53 -10.7717L138.53 -23.6756C136.968 -24.5918 135.032 -24.5918 133.47 -23.6756L111.47 -10.7717C109.94 -9.87417 109 -8.23294 109 -6.45887V19.4597C109 21.2332 109.939 22.874 111.469 23.7718Z" stroke="#854EFF" stroke-width="2"/>
</g>
<defs>
<filter id="filter0_f_457_3649" x="26" y="121.637" width="156" height="163.725" filterUnits="userSpaceOnUse" color-interpolation-filters="sRGB">
<feFlood flood-opacity="0" result="BackgroundImageFix"/>
<feBlend mode="normal" in="SourceGraphic" in2="BackgroundImageFix" result="shape"/>
<feGaussianBlur stdDeviation="25" result="effect1_foregroundBlur_457_3649"/>
</filter>
<filter id="filter1_f_457_3649" x="56" y="151.637" width="96" height="103.725" filterUnits="userSpaceOnUse" color-interpolation-filters="sRGB">
<feFlood flood-opacity="0" result="BackgroundImageFix"/>
<feBlend mode="normal" in="SourceGraphic" in2="BackgroundImageFix" result="shape"/>
<feGaussianBlur stdDeviation="10" result="effect1_foregroundBlur_457_3649"/>
</filter>
<filter id="filter2_f_457_3649" x="61" y="156.637" width="86" height="93.7255" filterUnits="userSpaceOnUse" color-interpolation-filters="sRGB">
<feFlood flood-opacity="0" result="BackgroundImageFix"/>
<feBlend mode="normal" in="SourceGraphic" in2="BackgroundImageFix" result="shape"/>
<feGaussianBlur stdDeviation="7.5" result="effect1_foregroundBlur_457_3649"/>
</filter>
<filter id="filter3_f_457_3649" x="66" y="161.637" width="76" height="83.7255" filterUnits="userSpaceOnUse" color-interpolation-filters="sRGB">
<feFlood flood-opacity="0" result="BackgroundImageFix"/>
<feBlend mode="normal" in="SourceGraphic" in2="BackgroundImageFix" result="shape"/>
<feGaussianBlur stdDeviation="5" result="effect1_foregroundBlur_457_3649"/>
</filter>
<filter id="filter4_f_457_3649" x="0" y="-75.3627" width="156" height="163.725" filterUnits="userSpaceOnUse" color-interpolation-filters="sRGB">
<feFlood flood-opacity="0" result="BackgroundImageFix"/>
<feBlend mode="normal" in="SourceGraphic" in2="BackgroundImageFix" result="shape"/>
<feGaussianBlur stdDeviation="25" result="effect1_foregroundBlur_457_3649"/>
</filter>
<filter id="filter5_f_457_3649" x="30" y="-45.3627" width="96" height="103.725" filterUnits="userSpaceOnUse" color-interpolation-filters="sRGB">
<feFlood flood-opacity="0" result="BackgroundImageFix"/>
<feBlend mode="normal" in="SourceGraphic" in2="BackgroundImageFix" result="shape"/>
<feGaussianBlur stdDeviation="10" result="effect1_foregroundBlur_457_3649"/>
</filter>
<filter id="filter6_f_457_3649" x="35" y="-40.3627" width="86" height="93.7255" filterUnits="userSpaceOnUse" color-interpolation-filters="sRGB">
<feFlood flood-opacity="0" result="BackgroundImageFix"/>
<feBlend mode="normal" in="SourceGraphic" in2="BackgroundImageFix" result="shape"/>
<feGaussianBlur stdDeviation="7.5" result="effect1_foregroundBlur_457_3649"/>
</filter>
<filter id="filter7_f_457_3649" x="40" y="-35.3627" width="76" height="83.7255" filterUnits="userSpaceOnUse" color-interpolation-filters="sRGB">
<feFlood flood-opacity="0" result="BackgroundImageFix"/>
<feBlend mode="normal" in="SourceGraphic" in2="BackgroundImageFix" result="shape"/>
<feGaussianBlur stdDeviation="5" result="effect1_foregroundBlur_457_3649"/>
</filter>
<filter id="filter8_f_457_3649" x="29" y="-24.3627" width="156" height="163.725" filterUnits="userSpaceOnUse" color-interpolation-filters="sRGB">
<feFlood flood-opacity="0" result="BackgroundImageFix"/>
<feBlend mode="normal" in="SourceGraphic" in2="BackgroundImageFix" result="shape"/>
<feGaussianBlur stdDeviation="25" result="effect1_foregroundBlur_457_3649"/>
</filter>
<filter id="filter9_f_457_3649" x="59" y="5.63727" width="96" height="103.725" filterUnits="userSpaceOnUse" color-interpolation-filters="sRGB">
<feFlood flood-opacity="0" result="BackgroundImageFix"/>
<feBlend mode="normal" in="SourceGraphic" in2="BackgroundImageFix" result="shape"/>
<feGaussianBlur stdDeviation="10" result="effect1_foregroundBlur_457_3649"/>
</filter>
<filter id="filter10_f_457_3649" x="64" y="10.6373" width="86" height="93.7255" filterUnits="userSpaceOnUse" color-interpolation-filters="sRGB">
<feFlood flood-opacity="0" result="BackgroundImageFix"/>
<feBlend mode="normal" in="SourceGraphic" in2="BackgroundImageFix" result="shape"/>
<feGaussianBlur stdDeviation="7.5" result="effect1_foregroundBlur_457_3649"/>
</filter>
<filter id="filter11_f_457_3649" x="69" y="15.6373" width="76" height="83.7255" filterUnits="userSpaceOnUse" color-interpolation-filters="sRGB">
<feFlood flood-opacity="0" result="BackgroundImageFix"/>
<feBlend mode="normal" in="SourceGraphic" in2="BackgroundImageFix" result="shape"/>
<feGaussianBlur stdDeviation="5" result="effect1_foregroundBlur_457_3649"/>
</filter>
<filter id="filter12_f_457_3649" x="58" y="-75.3627" width="156" height="163.725" filterUnits="userSpaceOnUse" color-interpolation-filters="sRGB">
<feFlood flood-opacity="0" result="BackgroundImageFix"/>
<feBlend mode="normal" in="SourceGraphic" in2="BackgroundImageFix" result="shape"/>
<feGaussianBlur stdDeviation="25" result="effect1_foregroundBlur_457_3649"/>
</filter>
<filter id="filter13_f_457_3649" x="88" y="-45.3627" width="96" height="103.725" filterUnits="userSpaceOnUse" color-interpolation-filters="sRGB">
<feFlood flood-opacity="0" result="BackgroundImageFix"/>
<feBlend mode="normal" in="SourceGraphic" in2="BackgroundImageFix" result="shape"/>
<feGaussianBlur stdDeviation="10" result="effect1_foregroundBlur_457_3649"/>
</filter>
<filter id="filter14_f_457_3649" x="93" y="-40.3627" width="86" height="93.7255" filterUnits="userSpaceOnUse" color-interpolation-filters="sRGB">
<feFlood flood-opacity="0" result="BackgroundImageFix"/>
<feBlend mode="normal" in="SourceGraphic" in2="BackgroundImageFix" result="shape"/>
<feGaussianBlur stdDeviation="7.5" result="effect1_foregroundBlur_457_3649"/>
</filter>
<filter id="filter15_f_457_3649" x="98" y="-35.3627" width="76" height="83.7255" filterUnits="userSpaceOnUse" color-interpolation-filters="sRGB">
<feFlood flood-opacity="0" result="BackgroundImageFix"/>
<feBlend mode="normal" in="SourceGraphic" in2="BackgroundImageFix" result="shape"/>
<feGaussianBlur stdDeviation="5" result="effect1_foregroundBlur_457_3649"/>
</filter>
</defs>
</svg>
