<svg width="76" height="75" viewBox="0 0 76 75" fill="none" xmlns="http://www.w3.org/2000/svg">
<path d="M69.25 53.1313C69.2486 57.4049 67.7878 61.5499 65.1095 64.8801C62.4311 68.2103 58.6958 70.5259 54.5219 71.4437L52.5281 65.4625C54.3539 65.1618 56.0901 64.4598 57.6119 63.4072C59.1336 62.3545 60.4028 60.9774 61.3281 59.375H53.625C51.9674 59.375 50.3777 58.7165 49.2056 57.5444C48.0335 56.3723 47.375 54.7826 47.375 53.125V40.625C47.375 38.9674 48.0335 37.3777 49.2056 36.2056C50.3777 35.0335 51.9674 34.375 53.625 34.375H62.8062C62.0437 28.334 59.1029 22.779 54.5357 18.7521C49.9685 14.7252 44.0889 12.5034 38 12.5034C31.9111 12.5034 26.0315 14.7252 21.4643 18.7521C16.8971 22.779 13.9563 28.334 13.1937 34.375H22.375C24.0326 34.375 25.6223 35.0335 26.7944 36.2056C27.9665 37.3777 28.625 38.9674 28.625 40.625V53.125C28.625 54.7826 27.9665 56.3723 26.7944 57.5444C25.6223 58.7165 24.0326 59.375 22.375 59.375H13C11.3424 59.375 9.75268 58.7165 8.58058 57.5444C7.40848 56.3723 6.75 54.7826 6.75 53.125V37.5C6.75 20.2406 20.7406 6.25 38 6.25C55.2594 6.25 69.25 20.2406 69.25 37.5V53.1313ZM63 53.125V40.625H53.625V53.125H63ZM13 40.625V53.125H22.375V40.625H13Z" fill="#F2F4F7"/>
</svg>
