<svg width="44" height="44" viewBox="0 0 44 44" fill="none" xmlns="http://www.w3.org/2000/svg">
<g clip-path="url(#clip0_398_4836)">
<path d="M32.0833 38.5C30.3815 38.5 28.7494 37.824 27.5461 36.6206C26.3427 35.4172 25.6667 33.7851 25.6667 32.0833C25.6667 30.3815 26.3427 28.7494 27.5461 27.5461C28.7494 26.3427 30.3815 25.6667 32.0833 25.6667C33.7851 25.6667 35.4172 26.3427 36.6206 27.5461C37.824 28.7494 38.5 30.3815 38.5 32.0833C38.5 33.7851 37.824 35.4172 36.6206 36.6206C35.4172 37.824 33.7851 38.5 32.0833 38.5ZM32.0833 34.8333C32.8127 34.8333 33.5122 34.5436 34.0279 34.0279C34.5436 33.5122 34.8333 32.8127 34.8333 32.0833C34.8333 31.354 34.5436 30.6545 34.0279 30.1388C33.5122 29.6231 32.8127 29.3333 32.0833 29.3333C31.354 29.3333 30.6545 29.6231 30.1388 30.1388C29.6231 30.6545 29.3333 31.354 29.3333 32.0833C29.3333 32.8127 29.6231 33.5122 30.1388 34.0279C30.6545 34.5436 31.354 34.8333 32.0833 34.8333ZM11.9167 18.3333C11.074 18.3333 10.2396 18.1674 9.46111 17.8449C8.68261 17.5224 7.97524 17.0498 7.3794 16.4539C6.78356 15.8581 6.31091 15.1507 5.98844 14.3722C5.66597 13.5937 5.5 12.7593 5.5 11.9167C5.5 11.074 5.66597 10.2396 5.98844 9.46111C6.31091 8.68261 6.78356 7.97524 7.3794 7.3794C7.97524 6.78356 8.68261 6.31091 9.46111 5.98844C10.2396 5.66597 11.074 5.5 11.9167 5.5C13.6185 5.5 15.2506 6.17604 16.4539 7.3794C17.6573 8.58276 18.3333 10.2149 18.3333 11.9167C18.3333 13.6185 17.6573 15.2506 16.4539 16.4539C15.2506 17.6573 13.6185 18.3333 11.9167 18.3333ZM11.9167 14.6667C12.646 14.6667 13.3455 14.3769 13.8612 13.8612C14.3769 13.3455 14.6667 12.646 14.6667 11.9167C14.6667 11.1873 14.3769 10.4878 13.8612 9.97212C13.3455 9.4564 12.646 9.16667 11.9167 9.16667C11.1873 9.16667 10.4878 9.4564 9.97212 9.97212C9.4564 10.4878 9.16667 11.1873 9.16667 11.9167C9.16667 12.646 9.4564 13.3455 9.97212 13.8612C10.4878 14.3769 11.1873 14.6667 11.9167 14.6667ZM34.9635 6.44417L37.5558 9.0365L9.03833 37.5558L6.446 34.9635L34.9617 6.44417H34.9635Z" fill="#F2F4F7"/>
</g>
<defs>
<clipPath id="clip0_398_4836">
<rect width="44" height="44" fill="white"/>
</clipPath>
</defs>
</svg>
