<svg width="16" height="16" viewBox="0 0 16 16" fill="none" xmlns="http://www.w3.org/2000/svg">
<path d="M2.66683 5.33331H13.3335V14C13.3335 14.1768 13.2633 14.3464 13.1382 14.4714C13.0132 14.5964 12.8436 14.6666 12.6668 14.6666H3.3335C3.15668 14.6666 2.98712 14.5964 2.86209 14.4714C2.73707 14.3464 2.66683 14.1768 2.66683 14V5.33331ZM4.00016 6.66665V13.3333H12.0002V6.66665H4.00016ZM6.00016 7.99998H7.3335V12H6.00016V7.99998ZM8.66683 7.99998H10.0002V12H8.66683V7.99998ZM4.66683 3.33331V1.99998C4.66683 1.82317 4.73707 1.6536 4.86209 1.52858C4.98712 1.40355 5.15668 1.33331 5.3335 1.33331H10.6668C10.8436 1.33331 11.0132 1.40355 11.1382 1.52858C11.2633 1.6536 11.3335 1.82317 11.3335 1.99998V3.33331H14.6668V4.66665H1.3335V3.33331H4.66683ZM6.00016 2.66665V3.33331H10.0002V2.66665H6.00016Z" fill="#98A2B3"/>
</svg>
